G04 #@! TF.GenerationSoftware,KiCad,Pcbnew,(5.1.2)-2*
G04 #@! TF.CreationDate,2019-06-20T10:34:22-04:00*
G04 #@! TF.ProjectId,macropad,6d616372-6f70-4616-942e-6b696361645f,rev?*
G04 #@! TF.SameCoordinates,Original*
G04 #@! TF.FileFunction,Legend,Bot*
G04 #@! TF.FilePolarity,Positive*
%FSLAX46Y46*%
G04 Gerber Fmt 4.6, Leading zero omitted, Abs format (unit mm)*
G04 Created by KiCad (PCBNEW (5.1.2)-2) date 2019-06-20 10:34:22*
%MOMM*%
%LPD*%
G04 APERTURE LIST*
%ADD10C,0.150000*%
%ADD11C,0.100000*%
%ADD12C,0.120000*%
G04 APERTURE END LIST*
D10*
X98496380Y-55523285D02*
X98020190Y-55189952D01*
X98496380Y-54951857D02*
X97496380Y-54951857D01*
X97496380Y-55332809D01*
X97544000Y-55428047D01*
X97591619Y-55475666D01*
X97686857Y-55523285D01*
X97829714Y-55523285D01*
X97924952Y-55475666D01*
X97972571Y-55428047D01*
X98020190Y-55332809D01*
X98020190Y-54951857D01*
X97496380Y-56142333D02*
X97496380Y-56332809D01*
X97544000Y-56428047D01*
X97639238Y-56523285D01*
X97829714Y-56570904D01*
X98163047Y-56570904D01*
X98353523Y-56523285D01*
X98448761Y-56428047D01*
X98496380Y-56332809D01*
X98496380Y-56142333D01*
X98448761Y-56047095D01*
X98353523Y-55951857D01*
X98163047Y-55904238D01*
X97829714Y-55904238D01*
X97639238Y-55951857D01*
X97544000Y-56047095D01*
X97496380Y-56142333D01*
X97496380Y-56904238D02*
X98496380Y-57142333D01*
X97782095Y-57332809D01*
X98496380Y-57523285D01*
X97496380Y-57761380D01*
X97496380Y-58332809D02*
X97496380Y-58428047D01*
X97544000Y-58523285D01*
X97591619Y-58570904D01*
X97686857Y-58618523D01*
X97877333Y-58666142D01*
X98115428Y-58666142D01*
X98305904Y-58618523D01*
X98401142Y-58570904D01*
X98448761Y-58523285D01*
X98496380Y-58428047D01*
X98496380Y-58332809D01*
X98448761Y-58237571D01*
X98401142Y-58189952D01*
X98305904Y-58142333D01*
X98115428Y-58094714D01*
X97877333Y-58094714D01*
X97686857Y-58142333D01*
X97591619Y-58189952D01*
X97544000Y-58237571D01*
X97496380Y-58332809D01*
X98877333Y-60142333D02*
X98829714Y-60094714D01*
X98686857Y-59999476D01*
X98591619Y-59951857D01*
X98448761Y-59904238D01*
X98210666Y-59856619D01*
X98020190Y-59856619D01*
X97782095Y-59904238D01*
X97639238Y-59951857D01*
X97544000Y-59999476D01*
X97401142Y-60094714D01*
X97353523Y-60142333D01*
X98496380Y-60523285D02*
X97496380Y-60523285D01*
X97496380Y-60904238D01*
X97544000Y-60999476D01*
X97591619Y-61047095D01*
X97686857Y-61094714D01*
X97829714Y-61094714D01*
X97924952Y-61047095D01*
X97972571Y-60999476D01*
X98020190Y-60904238D01*
X98020190Y-60523285D01*
X98496380Y-61523285D02*
X97496380Y-61523285D01*
X97496380Y-61761380D01*
X97544000Y-61904238D01*
X97639238Y-61999476D01*
X97734476Y-62047095D01*
X97924952Y-62094714D01*
X98067809Y-62094714D01*
X98258285Y-62047095D01*
X98353523Y-61999476D01*
X98448761Y-61904238D01*
X98496380Y-61761380D01*
X98496380Y-61523285D01*
X97496380Y-62713761D02*
X97496380Y-62809000D01*
X97544000Y-62904238D01*
X97591619Y-62951857D01*
X97686857Y-62999476D01*
X97877333Y-63047095D01*
X98115428Y-63047095D01*
X98305904Y-62999476D01*
X98401142Y-62951857D01*
X98448761Y-62904238D01*
X98496380Y-62809000D01*
X98496380Y-62713761D01*
X98448761Y-62618523D01*
X98401142Y-62570904D01*
X98305904Y-62523285D01*
X98115428Y-62475666D01*
X97877333Y-62475666D01*
X97686857Y-62523285D01*
X97591619Y-62570904D01*
X97544000Y-62618523D01*
X97496380Y-62713761D01*
X98877333Y-63380428D02*
X98829714Y-63428047D01*
X98686857Y-63523285D01*
X98591619Y-63570904D01*
X98448761Y-63618523D01*
X98210666Y-63666142D01*
X98020190Y-63666142D01*
X97782095Y-63618523D01*
X97639238Y-63570904D01*
X97544000Y-63523285D01*
X97401142Y-63428047D01*
X97353523Y-63380428D01*
X98369380Y-73684285D02*
X97893190Y-73350952D01*
X98369380Y-73112857D02*
X97369380Y-73112857D01*
X97369380Y-73493809D01*
X97417000Y-73589047D01*
X97464619Y-73636666D01*
X97559857Y-73684285D01*
X97702714Y-73684285D01*
X97797952Y-73636666D01*
X97845571Y-73589047D01*
X97893190Y-73493809D01*
X97893190Y-73112857D01*
X97369380Y-74303333D02*
X97369380Y-74493809D01*
X97417000Y-74589047D01*
X97512238Y-74684285D01*
X97702714Y-74731904D01*
X98036047Y-74731904D01*
X98226523Y-74684285D01*
X98321761Y-74589047D01*
X98369380Y-74493809D01*
X98369380Y-74303333D01*
X98321761Y-74208095D01*
X98226523Y-74112857D01*
X98036047Y-74065238D01*
X97702714Y-74065238D01*
X97512238Y-74112857D01*
X97417000Y-74208095D01*
X97369380Y-74303333D01*
X97369380Y-75065238D02*
X98369380Y-75303333D01*
X97655095Y-75493809D01*
X98369380Y-75684285D01*
X97369380Y-75922380D01*
X98369380Y-76827142D02*
X98369380Y-76255714D01*
X98369380Y-76541428D02*
X97369380Y-76541428D01*
X97512238Y-76446190D01*
X97607476Y-76350952D01*
X97655095Y-76255714D01*
X98750333Y-78303333D02*
X98702714Y-78255714D01*
X98559857Y-78160476D01*
X98464619Y-78112857D01*
X98321761Y-78065238D01*
X98083666Y-78017619D01*
X97893190Y-78017619D01*
X97655095Y-78065238D01*
X97512238Y-78112857D01*
X97417000Y-78160476D01*
X97274142Y-78255714D01*
X97226523Y-78303333D01*
X98369380Y-78684285D02*
X97369380Y-78684285D01*
X97369380Y-79065238D01*
X97417000Y-79160476D01*
X97464619Y-79208095D01*
X97559857Y-79255714D01*
X97702714Y-79255714D01*
X97797952Y-79208095D01*
X97845571Y-79160476D01*
X97893190Y-79065238D01*
X97893190Y-78684285D01*
X98369380Y-79684285D02*
X97369380Y-79684285D01*
X97369380Y-79922380D01*
X97417000Y-80065238D01*
X97512238Y-80160476D01*
X97607476Y-80208095D01*
X97797952Y-80255714D01*
X97940809Y-80255714D01*
X98131285Y-80208095D01*
X98226523Y-80160476D01*
X98321761Y-80065238D01*
X98369380Y-79922380D01*
X98369380Y-79684285D01*
X98369380Y-81208095D02*
X98369380Y-80636666D01*
X98369380Y-80922380D02*
X97369380Y-80922380D01*
X97512238Y-80827142D01*
X97607476Y-80731904D01*
X97655095Y-80636666D01*
X98750333Y-81541428D02*
X98702714Y-81589047D01*
X98559857Y-81684285D01*
X98464619Y-81731904D01*
X98321761Y-81779523D01*
X98083666Y-81827142D01*
X97893190Y-81827142D01*
X97655095Y-81779523D01*
X97512238Y-81731904D01*
X97417000Y-81684285D01*
X97274142Y-81589047D01*
X97226523Y-81541428D01*
X98623380Y-93115285D02*
X98147190Y-92781952D01*
X98623380Y-92543857D02*
X97623380Y-92543857D01*
X97623380Y-92924809D01*
X97671000Y-93020047D01*
X97718619Y-93067666D01*
X97813857Y-93115285D01*
X97956714Y-93115285D01*
X98051952Y-93067666D01*
X98099571Y-93020047D01*
X98147190Y-92924809D01*
X98147190Y-92543857D01*
X97623380Y-93734333D02*
X97623380Y-93924809D01*
X97671000Y-94020047D01*
X97766238Y-94115285D01*
X97956714Y-94162904D01*
X98290047Y-94162904D01*
X98480523Y-94115285D01*
X98575761Y-94020047D01*
X98623380Y-93924809D01*
X98623380Y-93734333D01*
X98575761Y-93639095D01*
X98480523Y-93543857D01*
X98290047Y-93496238D01*
X97956714Y-93496238D01*
X97766238Y-93543857D01*
X97671000Y-93639095D01*
X97623380Y-93734333D01*
X97623380Y-94496238D02*
X98623380Y-94734333D01*
X97909095Y-94924809D01*
X98623380Y-95115285D01*
X97623380Y-95353380D01*
X97718619Y-95686714D02*
X97671000Y-95734333D01*
X97623380Y-95829571D01*
X97623380Y-96067666D01*
X97671000Y-96162904D01*
X97718619Y-96210523D01*
X97813857Y-96258142D01*
X97909095Y-96258142D01*
X98051952Y-96210523D01*
X98623380Y-95639095D01*
X98623380Y-96258142D01*
X99004333Y-97734333D02*
X98956714Y-97686714D01*
X98813857Y-97591476D01*
X98718619Y-97543857D01*
X98575761Y-97496238D01*
X98337666Y-97448619D01*
X98147190Y-97448619D01*
X97909095Y-97496238D01*
X97766238Y-97543857D01*
X97671000Y-97591476D01*
X97528142Y-97686714D01*
X97480523Y-97734333D01*
X98623380Y-98115285D02*
X97623380Y-98115285D01*
X97623380Y-98496238D01*
X97671000Y-98591476D01*
X97718619Y-98639095D01*
X97813857Y-98686714D01*
X97956714Y-98686714D01*
X98051952Y-98639095D01*
X98099571Y-98591476D01*
X98147190Y-98496238D01*
X98147190Y-98115285D01*
X98623380Y-99115285D02*
X97623380Y-99115285D01*
X97623380Y-99353380D01*
X97671000Y-99496238D01*
X97766238Y-99591476D01*
X97861476Y-99639095D01*
X98051952Y-99686714D01*
X98194809Y-99686714D01*
X98385285Y-99639095D01*
X98480523Y-99591476D01*
X98575761Y-99496238D01*
X98623380Y-99353380D01*
X98623380Y-99115285D01*
X97718619Y-100067666D02*
X97671000Y-100115285D01*
X97623380Y-100210523D01*
X97623380Y-100448619D01*
X97671000Y-100543857D01*
X97718619Y-100591476D01*
X97813857Y-100639095D01*
X97909095Y-100639095D01*
X98051952Y-100591476D01*
X98623380Y-100020047D01*
X98623380Y-100639095D01*
X99004333Y-100972428D02*
X98956714Y-101020047D01*
X98813857Y-101115285D01*
X98718619Y-101162904D01*
X98575761Y-101210523D01*
X98337666Y-101258142D01*
X98147190Y-101258142D01*
X97909095Y-101210523D01*
X97766238Y-101162904D01*
X97671000Y-101115285D01*
X97528142Y-101020047D01*
X97480523Y-100972428D01*
X98750380Y-111784285D02*
X98274190Y-111450952D01*
X98750380Y-111212857D02*
X97750380Y-111212857D01*
X97750380Y-111593809D01*
X97798000Y-111689047D01*
X97845619Y-111736666D01*
X97940857Y-111784285D01*
X98083714Y-111784285D01*
X98178952Y-111736666D01*
X98226571Y-111689047D01*
X98274190Y-111593809D01*
X98274190Y-111212857D01*
X97750380Y-112403333D02*
X97750380Y-112593809D01*
X97798000Y-112689047D01*
X97893238Y-112784285D01*
X98083714Y-112831904D01*
X98417047Y-112831904D01*
X98607523Y-112784285D01*
X98702761Y-112689047D01*
X98750380Y-112593809D01*
X98750380Y-112403333D01*
X98702761Y-112308095D01*
X98607523Y-112212857D01*
X98417047Y-112165238D01*
X98083714Y-112165238D01*
X97893238Y-112212857D01*
X97798000Y-112308095D01*
X97750380Y-112403333D01*
X97750380Y-113165238D02*
X98750380Y-113403333D01*
X98036095Y-113593809D01*
X98750380Y-113784285D01*
X97750380Y-114022380D01*
X97750380Y-114308095D02*
X97750380Y-114927142D01*
X98131333Y-114593809D01*
X98131333Y-114736666D01*
X98178952Y-114831904D01*
X98226571Y-114879523D01*
X98321809Y-114927142D01*
X98559904Y-114927142D01*
X98655142Y-114879523D01*
X98702761Y-114831904D01*
X98750380Y-114736666D01*
X98750380Y-114450952D01*
X98702761Y-114355714D01*
X98655142Y-114308095D01*
X99131333Y-116403333D02*
X99083714Y-116355714D01*
X98940857Y-116260476D01*
X98845619Y-116212857D01*
X98702761Y-116165238D01*
X98464666Y-116117619D01*
X98274190Y-116117619D01*
X98036095Y-116165238D01*
X97893238Y-116212857D01*
X97798000Y-116260476D01*
X97655142Y-116355714D01*
X97607523Y-116403333D01*
X98750380Y-116784285D02*
X97750380Y-116784285D01*
X97750380Y-117165238D01*
X97798000Y-117260476D01*
X97845619Y-117308095D01*
X97940857Y-117355714D01*
X98083714Y-117355714D01*
X98178952Y-117308095D01*
X98226571Y-117260476D01*
X98274190Y-117165238D01*
X98274190Y-116784285D01*
X98750380Y-117784285D02*
X97750380Y-117784285D01*
X97750380Y-118022380D01*
X97798000Y-118165238D01*
X97893238Y-118260476D01*
X97988476Y-118308095D01*
X98178952Y-118355714D01*
X98321809Y-118355714D01*
X98512285Y-118308095D01*
X98607523Y-118260476D01*
X98702761Y-118165238D01*
X98750380Y-118022380D01*
X98750380Y-117784285D01*
X97750380Y-118689047D02*
X97750380Y-119308095D01*
X98131333Y-118974761D01*
X98131333Y-119117619D01*
X98178952Y-119212857D01*
X98226571Y-119260476D01*
X98321809Y-119308095D01*
X98559904Y-119308095D01*
X98655142Y-119260476D01*
X98702761Y-119212857D01*
X98750380Y-119117619D01*
X98750380Y-118831904D01*
X98702761Y-118736666D01*
X98655142Y-118689047D01*
X99131333Y-119641428D02*
X99083714Y-119689047D01*
X98940857Y-119784285D01*
X98845619Y-119831904D01*
X98702761Y-119879523D01*
X98464666Y-119927142D01*
X98274190Y-119927142D01*
X98036095Y-119879523D01*
X97893238Y-119831904D01*
X97798000Y-119784285D01*
X97655142Y-119689047D01*
X97607523Y-119641428D01*
X98877380Y-129437285D02*
X98401190Y-129103952D01*
X98877380Y-128865857D02*
X97877380Y-128865857D01*
X97877380Y-129246809D01*
X97925000Y-129342047D01*
X97972619Y-129389666D01*
X98067857Y-129437285D01*
X98210714Y-129437285D01*
X98305952Y-129389666D01*
X98353571Y-129342047D01*
X98401190Y-129246809D01*
X98401190Y-128865857D01*
X97877380Y-130056333D02*
X97877380Y-130246809D01*
X97925000Y-130342047D01*
X98020238Y-130437285D01*
X98210714Y-130484904D01*
X98544047Y-130484904D01*
X98734523Y-130437285D01*
X98829761Y-130342047D01*
X98877380Y-130246809D01*
X98877380Y-130056333D01*
X98829761Y-129961095D01*
X98734523Y-129865857D01*
X98544047Y-129818238D01*
X98210714Y-129818238D01*
X98020238Y-129865857D01*
X97925000Y-129961095D01*
X97877380Y-130056333D01*
X97877380Y-130818238D02*
X98877380Y-131056333D01*
X98163095Y-131246809D01*
X98877380Y-131437285D01*
X97877380Y-131675380D01*
X98210714Y-132484904D02*
X98877380Y-132484904D01*
X97829761Y-132246809D02*
X98544047Y-132008714D01*
X98544047Y-132627761D01*
X99258333Y-134056333D02*
X99210714Y-134008714D01*
X99067857Y-133913476D01*
X98972619Y-133865857D01*
X98829761Y-133818238D01*
X98591666Y-133770619D01*
X98401190Y-133770619D01*
X98163095Y-133818238D01*
X98020238Y-133865857D01*
X97925000Y-133913476D01*
X97782142Y-134008714D01*
X97734523Y-134056333D01*
X98877380Y-134437285D02*
X97877380Y-134437285D01*
X97877380Y-134818238D01*
X97925000Y-134913476D01*
X97972619Y-134961095D01*
X98067857Y-135008714D01*
X98210714Y-135008714D01*
X98305952Y-134961095D01*
X98353571Y-134913476D01*
X98401190Y-134818238D01*
X98401190Y-134437285D01*
X98877380Y-135437285D02*
X97877380Y-135437285D01*
X97877380Y-135675380D01*
X97925000Y-135818238D01*
X98020238Y-135913476D01*
X98115476Y-135961095D01*
X98305952Y-136008714D01*
X98448809Y-136008714D01*
X98639285Y-135961095D01*
X98734523Y-135913476D01*
X98829761Y-135818238D01*
X98877380Y-135675380D01*
X98877380Y-135437285D01*
X98210714Y-136865857D02*
X98877380Y-136865857D01*
X97829761Y-136627761D02*
X98544047Y-136389666D01*
X98544047Y-137008714D01*
X99258333Y-137294428D02*
X99210714Y-137342047D01*
X99067857Y-137437285D01*
X98972619Y-137484904D01*
X98829761Y-137532523D01*
X98591666Y-137580142D01*
X98401190Y-137580142D01*
X98163095Y-137532523D01*
X98020238Y-137484904D01*
X97925000Y-137437285D01*
X97782142Y-137342047D01*
X97734523Y-137294428D01*
X167322047Y-142597142D02*
X167369666Y-142644761D01*
X167512523Y-142692380D01*
X167607761Y-142692380D01*
X167750619Y-142644761D01*
X167845857Y-142549523D01*
X167893476Y-142454285D01*
X167941095Y-142263809D01*
X167941095Y-142120952D01*
X167893476Y-141930476D01*
X167845857Y-141835238D01*
X167750619Y-141740000D01*
X167607761Y-141692380D01*
X167512523Y-141692380D01*
X167369666Y-141740000D01*
X167322047Y-141787619D01*
X166703000Y-141692380D02*
X166512523Y-141692380D01*
X166417285Y-141740000D01*
X166322047Y-141835238D01*
X166274428Y-142025714D01*
X166274428Y-142359047D01*
X166322047Y-142549523D01*
X166417285Y-142644761D01*
X166512523Y-142692380D01*
X166703000Y-142692380D01*
X166798238Y-142644761D01*
X166893476Y-142549523D01*
X166941095Y-142359047D01*
X166941095Y-142025714D01*
X166893476Y-141835238D01*
X166798238Y-141740000D01*
X166703000Y-141692380D01*
X165369666Y-142692380D02*
X165845857Y-142692380D01*
X165845857Y-141692380D01*
X165131571Y-141692380D02*
X164512523Y-141692380D01*
X164845857Y-142073333D01*
X164703000Y-142073333D01*
X164607761Y-142120952D01*
X164560142Y-142168571D01*
X164512523Y-142263809D01*
X164512523Y-142501904D01*
X164560142Y-142597142D01*
X164607761Y-142644761D01*
X164703000Y-142692380D01*
X164988714Y-142692380D01*
X165083952Y-142644761D01*
X165131571Y-142597142D01*
X163036333Y-143073333D02*
X163083952Y-143025714D01*
X163179190Y-142882857D01*
X163226809Y-142787619D01*
X163274428Y-142644761D01*
X163322047Y-142406666D01*
X163322047Y-142216190D01*
X163274428Y-141978095D01*
X163226809Y-141835238D01*
X163179190Y-141740000D01*
X163083952Y-141597142D01*
X163036333Y-141549523D01*
X162655380Y-142692380D02*
X162655380Y-141692380D01*
X162274428Y-141692380D01*
X162179190Y-141740000D01*
X162131571Y-141787619D01*
X162083952Y-141882857D01*
X162083952Y-142025714D01*
X162131571Y-142120952D01*
X162179190Y-142168571D01*
X162274428Y-142216190D01*
X162655380Y-142216190D01*
X161083952Y-142597142D02*
X161131571Y-142644761D01*
X161274428Y-142692380D01*
X161369666Y-142692380D01*
X161512523Y-142644761D01*
X161607761Y-142549523D01*
X161655380Y-142454285D01*
X161703000Y-142263809D01*
X161703000Y-142120952D01*
X161655380Y-141930476D01*
X161607761Y-141835238D01*
X161512523Y-141740000D01*
X161369666Y-141692380D01*
X161274428Y-141692380D01*
X161131571Y-141740000D01*
X161083952Y-141787619D01*
X160750619Y-141692380D02*
X160083952Y-141692380D01*
X160512523Y-142692380D01*
X159798238Y-143073333D02*
X159750619Y-143025714D01*
X159655380Y-142882857D01*
X159607761Y-142787619D01*
X159560142Y-142644761D01*
X159512523Y-142406666D01*
X159512523Y-142216190D01*
X159560142Y-141978095D01*
X159607761Y-141835238D01*
X159655380Y-141740000D01*
X159750619Y-141597142D01*
X159798238Y-141549523D01*
X148907047Y-142470142D02*
X148954666Y-142517761D01*
X149097523Y-142565380D01*
X149192761Y-142565380D01*
X149335619Y-142517761D01*
X149430857Y-142422523D01*
X149478476Y-142327285D01*
X149526095Y-142136809D01*
X149526095Y-141993952D01*
X149478476Y-141803476D01*
X149430857Y-141708238D01*
X149335619Y-141613000D01*
X149192761Y-141565380D01*
X149097523Y-141565380D01*
X148954666Y-141613000D01*
X148907047Y-141660619D01*
X148288000Y-141565380D02*
X148097523Y-141565380D01*
X148002285Y-141613000D01*
X147907047Y-141708238D01*
X147859428Y-141898714D01*
X147859428Y-142232047D01*
X147907047Y-142422523D01*
X148002285Y-142517761D01*
X148097523Y-142565380D01*
X148288000Y-142565380D01*
X148383238Y-142517761D01*
X148478476Y-142422523D01*
X148526095Y-142232047D01*
X148526095Y-141898714D01*
X148478476Y-141708238D01*
X148383238Y-141613000D01*
X148288000Y-141565380D01*
X146954666Y-142565380D02*
X147430857Y-142565380D01*
X147430857Y-141565380D01*
X146668952Y-141660619D02*
X146621333Y-141613000D01*
X146526095Y-141565380D01*
X146288000Y-141565380D01*
X146192761Y-141613000D01*
X146145142Y-141660619D01*
X146097523Y-141755857D01*
X146097523Y-141851095D01*
X146145142Y-141993952D01*
X146716571Y-142565380D01*
X146097523Y-142565380D01*
X144621333Y-142946333D02*
X144668952Y-142898714D01*
X144764190Y-142755857D01*
X144811809Y-142660619D01*
X144859428Y-142517761D01*
X144907047Y-142279666D01*
X144907047Y-142089190D01*
X144859428Y-141851095D01*
X144811809Y-141708238D01*
X144764190Y-141613000D01*
X144668952Y-141470142D01*
X144621333Y-141422523D01*
X144240380Y-142565380D02*
X144240380Y-141565380D01*
X143859428Y-141565380D01*
X143764190Y-141613000D01*
X143716571Y-141660619D01*
X143668952Y-141755857D01*
X143668952Y-141898714D01*
X143716571Y-141993952D01*
X143764190Y-142041571D01*
X143859428Y-142089190D01*
X144240380Y-142089190D01*
X142668952Y-142470142D02*
X142716571Y-142517761D01*
X142859428Y-142565380D01*
X142954666Y-142565380D01*
X143097523Y-142517761D01*
X143192761Y-142422523D01*
X143240380Y-142327285D01*
X143288000Y-142136809D01*
X143288000Y-141993952D01*
X143240380Y-141803476D01*
X143192761Y-141708238D01*
X143097523Y-141613000D01*
X142954666Y-141565380D01*
X142859428Y-141565380D01*
X142716571Y-141613000D01*
X142668952Y-141660619D01*
X141811809Y-141565380D02*
X142002285Y-141565380D01*
X142097523Y-141613000D01*
X142145142Y-141660619D01*
X142240380Y-141803476D01*
X142288000Y-141993952D01*
X142288000Y-142374904D01*
X142240380Y-142470142D01*
X142192761Y-142517761D01*
X142097523Y-142565380D01*
X141907047Y-142565380D01*
X141811809Y-142517761D01*
X141764190Y-142470142D01*
X141716571Y-142374904D01*
X141716571Y-142136809D01*
X141764190Y-142041571D01*
X141811809Y-141993952D01*
X141907047Y-141946333D01*
X142097523Y-141946333D01*
X142192761Y-141993952D01*
X142240380Y-142041571D01*
X142288000Y-142136809D01*
X141383238Y-142946333D02*
X141335619Y-142898714D01*
X141240380Y-142755857D01*
X141192761Y-142660619D01*
X141145142Y-142517761D01*
X141097523Y-142279666D01*
X141097523Y-142089190D01*
X141145142Y-141851095D01*
X141192761Y-141708238D01*
X141240380Y-141613000D01*
X141335619Y-141470142D01*
X141383238Y-141422523D01*
X129857047Y-142724142D02*
X129904666Y-142771761D01*
X130047523Y-142819380D01*
X130142761Y-142819380D01*
X130285619Y-142771761D01*
X130380857Y-142676523D01*
X130428476Y-142581285D01*
X130476095Y-142390809D01*
X130476095Y-142247952D01*
X130428476Y-142057476D01*
X130380857Y-141962238D01*
X130285619Y-141867000D01*
X130142761Y-141819380D01*
X130047523Y-141819380D01*
X129904666Y-141867000D01*
X129857047Y-141914619D01*
X129238000Y-141819380D02*
X129047523Y-141819380D01*
X128952285Y-141867000D01*
X128857047Y-141962238D01*
X128809428Y-142152714D01*
X128809428Y-142486047D01*
X128857047Y-142676523D01*
X128952285Y-142771761D01*
X129047523Y-142819380D01*
X129238000Y-142819380D01*
X129333238Y-142771761D01*
X129428476Y-142676523D01*
X129476095Y-142486047D01*
X129476095Y-142152714D01*
X129428476Y-141962238D01*
X129333238Y-141867000D01*
X129238000Y-141819380D01*
X127904666Y-142819380D02*
X128380857Y-142819380D01*
X128380857Y-141819380D01*
X127047523Y-142819380D02*
X127618952Y-142819380D01*
X127333238Y-142819380D02*
X127333238Y-141819380D01*
X127428476Y-141962238D01*
X127523714Y-142057476D01*
X127618952Y-142105095D01*
X125571333Y-143200333D02*
X125618952Y-143152714D01*
X125714190Y-143009857D01*
X125761809Y-142914619D01*
X125809428Y-142771761D01*
X125857047Y-142533666D01*
X125857047Y-142343190D01*
X125809428Y-142105095D01*
X125761809Y-141962238D01*
X125714190Y-141867000D01*
X125618952Y-141724142D01*
X125571333Y-141676523D01*
X125190380Y-142819380D02*
X125190380Y-141819380D01*
X124809428Y-141819380D01*
X124714190Y-141867000D01*
X124666571Y-141914619D01*
X124618952Y-142009857D01*
X124618952Y-142152714D01*
X124666571Y-142247952D01*
X124714190Y-142295571D01*
X124809428Y-142343190D01*
X125190380Y-142343190D01*
X123618952Y-142724142D02*
X123666571Y-142771761D01*
X123809428Y-142819380D01*
X123904666Y-142819380D01*
X124047523Y-142771761D01*
X124142761Y-142676523D01*
X124190380Y-142581285D01*
X124238000Y-142390809D01*
X124238000Y-142247952D01*
X124190380Y-142057476D01*
X124142761Y-141962238D01*
X124047523Y-141867000D01*
X123904666Y-141819380D01*
X123809428Y-141819380D01*
X123666571Y-141867000D01*
X123618952Y-141914619D01*
X122714190Y-141819380D02*
X123190380Y-141819380D01*
X123238000Y-142295571D01*
X123190380Y-142247952D01*
X123095142Y-142200333D01*
X122857047Y-142200333D01*
X122761809Y-142247952D01*
X122714190Y-142295571D01*
X122666571Y-142390809D01*
X122666571Y-142628904D01*
X122714190Y-142724142D01*
X122761809Y-142771761D01*
X122857047Y-142819380D01*
X123095142Y-142819380D01*
X123190380Y-142771761D01*
X123238000Y-142724142D01*
X122333238Y-143200333D02*
X122285619Y-143152714D01*
X122190380Y-143009857D01*
X122142761Y-142914619D01*
X122095142Y-142771761D01*
X122047523Y-142533666D01*
X122047523Y-142343190D01*
X122095142Y-142105095D01*
X122142761Y-141962238D01*
X122190380Y-141867000D01*
X122285619Y-141724142D01*
X122333238Y-141676523D01*
X109918047Y-142343142D02*
X109965666Y-142390761D01*
X110108523Y-142438380D01*
X110203761Y-142438380D01*
X110346619Y-142390761D01*
X110441857Y-142295523D01*
X110489476Y-142200285D01*
X110537095Y-142009809D01*
X110537095Y-141866952D01*
X110489476Y-141676476D01*
X110441857Y-141581238D01*
X110346619Y-141486000D01*
X110203761Y-141438380D01*
X110108523Y-141438380D01*
X109965666Y-141486000D01*
X109918047Y-141533619D01*
X109299000Y-141438380D02*
X109108523Y-141438380D01*
X109013285Y-141486000D01*
X108918047Y-141581238D01*
X108870428Y-141771714D01*
X108870428Y-142105047D01*
X108918047Y-142295523D01*
X109013285Y-142390761D01*
X109108523Y-142438380D01*
X109299000Y-142438380D01*
X109394238Y-142390761D01*
X109489476Y-142295523D01*
X109537095Y-142105047D01*
X109537095Y-141771714D01*
X109489476Y-141581238D01*
X109394238Y-141486000D01*
X109299000Y-141438380D01*
X107965666Y-142438380D02*
X108441857Y-142438380D01*
X108441857Y-141438380D01*
X107441857Y-141438380D02*
X107346619Y-141438380D01*
X107251380Y-141486000D01*
X107203761Y-141533619D01*
X107156142Y-141628857D01*
X107108523Y-141819333D01*
X107108523Y-142057428D01*
X107156142Y-142247904D01*
X107203761Y-142343142D01*
X107251380Y-142390761D01*
X107346619Y-142438380D01*
X107441857Y-142438380D01*
X107537095Y-142390761D01*
X107584714Y-142343142D01*
X107632333Y-142247904D01*
X107679952Y-142057428D01*
X107679952Y-141819333D01*
X107632333Y-141628857D01*
X107584714Y-141533619D01*
X107537095Y-141486000D01*
X107441857Y-141438380D01*
X105632333Y-142819333D02*
X105679952Y-142771714D01*
X105775190Y-142628857D01*
X105822809Y-142533619D01*
X105870428Y-142390761D01*
X105918047Y-142152666D01*
X105918047Y-141962190D01*
X105870428Y-141724095D01*
X105822809Y-141581238D01*
X105775190Y-141486000D01*
X105679952Y-141343142D01*
X105632333Y-141295523D01*
X105251380Y-142438380D02*
X105251380Y-141438380D01*
X104870428Y-141438380D01*
X104775190Y-141486000D01*
X104727571Y-141533619D01*
X104679952Y-141628857D01*
X104679952Y-141771714D01*
X104727571Y-141866952D01*
X104775190Y-141914571D01*
X104870428Y-141962190D01*
X105251380Y-141962190D01*
X103679952Y-142343142D02*
X103727571Y-142390761D01*
X103870428Y-142438380D01*
X103965666Y-142438380D01*
X104108523Y-142390761D01*
X104203761Y-142295523D01*
X104251380Y-142200285D01*
X104299000Y-142009809D01*
X104299000Y-141866952D01*
X104251380Y-141676476D01*
X104203761Y-141581238D01*
X104108523Y-141486000D01*
X103965666Y-141438380D01*
X103870428Y-141438380D01*
X103727571Y-141486000D01*
X103679952Y-141533619D01*
X102822809Y-141771714D02*
X102822809Y-142438380D01*
X103060904Y-141390761D02*
X103299000Y-142105047D01*
X102679952Y-142105047D01*
X102394238Y-142819333D02*
X102346619Y-142771714D01*
X102251380Y-142628857D01*
X102203761Y-142533619D01*
X102156142Y-142390761D01*
X102108523Y-142152666D01*
X102108523Y-141962190D01*
X102156142Y-141724095D01*
X102203761Y-141581238D01*
X102251380Y-141486000D01*
X102346619Y-141343142D01*
X102394238Y-141295523D01*
X161915476Y-68286380D02*
X161725000Y-68286380D01*
X161629761Y-68334000D01*
X161534523Y-68429238D01*
X161486904Y-68619714D01*
X161486904Y-68953047D01*
X161534523Y-69143523D01*
X161629761Y-69238761D01*
X161725000Y-69286380D01*
X161915476Y-69286380D01*
X162010714Y-69238761D01*
X162105952Y-69143523D01*
X162153571Y-68953047D01*
X162153571Y-68619714D01*
X162105952Y-68429238D01*
X162010714Y-68334000D01*
X161915476Y-68286380D01*
X161058333Y-69286380D02*
X161058333Y-68286380D01*
X160486904Y-69286380D01*
X160486904Y-68286380D01*
X159534523Y-69286380D02*
X160010714Y-69286380D01*
X160010714Y-68286380D01*
X159010714Y-68810190D02*
X159010714Y-69286380D01*
X159344047Y-68286380D02*
X159010714Y-68810190D01*
X158677380Y-68286380D01*
X157582142Y-69286380D02*
X157582142Y-68286380D01*
X157201190Y-68286380D01*
X157105952Y-68334000D01*
X157058333Y-68381619D01*
X157010714Y-68476857D01*
X157010714Y-68619714D01*
X157058333Y-68714952D01*
X157105952Y-68762571D01*
X157201190Y-68810190D01*
X157582142Y-68810190D01*
X156105952Y-69286380D02*
X156582142Y-69286380D01*
X156582142Y-68286380D01*
X155820238Y-69000666D02*
X155344047Y-69000666D01*
X155915476Y-69286380D02*
X155582142Y-68286380D01*
X155248809Y-69286380D01*
X154344047Y-69191142D02*
X154391666Y-69238761D01*
X154534523Y-69286380D01*
X154629761Y-69286380D01*
X154772619Y-69238761D01*
X154867857Y-69143523D01*
X154915476Y-69048285D01*
X154963095Y-68857809D01*
X154963095Y-68714952D01*
X154915476Y-68524476D01*
X154867857Y-68429238D01*
X154772619Y-68334000D01*
X154629761Y-68286380D01*
X154534523Y-68286380D01*
X154391666Y-68334000D01*
X154344047Y-68381619D01*
X153915476Y-68762571D02*
X153582142Y-68762571D01*
X153439285Y-69286380D02*
X153915476Y-69286380D01*
X153915476Y-68286380D01*
X153439285Y-68286380D01*
X152058333Y-68286380D02*
X151867857Y-68286380D01*
X151772619Y-68334000D01*
X151677380Y-68429238D01*
X151629761Y-68619714D01*
X151629761Y-68953047D01*
X151677380Y-69143523D01*
X151772619Y-69238761D01*
X151867857Y-69286380D01*
X152058333Y-69286380D01*
X152153571Y-69238761D01*
X152248809Y-69143523D01*
X152296428Y-68953047D01*
X152296428Y-68619714D01*
X152248809Y-68429238D01*
X152153571Y-68334000D01*
X152058333Y-68286380D01*
X151201190Y-69286380D02*
X151201190Y-68286380D01*
X150629761Y-69286380D01*
X150629761Y-68286380D01*
X150153571Y-68762571D02*
X149820238Y-68762571D01*
X149677380Y-69286380D02*
X150153571Y-69286380D01*
X150153571Y-68286380D01*
X149677380Y-68286380D01*
X148486904Y-68286380D02*
X148486904Y-69095904D01*
X148439285Y-69191142D01*
X148391666Y-69238761D01*
X148296428Y-69286380D01*
X148105952Y-69286380D01*
X148010714Y-69238761D01*
X147963095Y-69191142D01*
X147915476Y-69095904D01*
X147915476Y-68286380D01*
X147486904Y-69238761D02*
X147344047Y-69286380D01*
X147105952Y-69286380D01*
X147010714Y-69238761D01*
X146963095Y-69191142D01*
X146915476Y-69095904D01*
X146915476Y-69000666D01*
X146963095Y-68905428D01*
X147010714Y-68857809D01*
X147105952Y-68810190D01*
X147296428Y-68762571D01*
X147391666Y-68714952D01*
X147439285Y-68667333D01*
X147486904Y-68572095D01*
X147486904Y-68476857D01*
X147439285Y-68381619D01*
X147391666Y-68334000D01*
X147296428Y-68286380D01*
X147058333Y-68286380D01*
X146915476Y-68334000D01*
X146153571Y-68762571D02*
X146010714Y-68810190D01*
X145963095Y-68857809D01*
X145915476Y-68953047D01*
X145915476Y-69095904D01*
X145963095Y-69191142D01*
X146010714Y-69238761D01*
X146105952Y-69286380D01*
X146486904Y-69286380D01*
X146486904Y-68286380D01*
X146153571Y-68286380D01*
X146058333Y-68334000D01*
X146010714Y-68381619D01*
X145963095Y-68476857D01*
X145963095Y-68572095D01*
X146010714Y-68667333D01*
X146058333Y-68714952D01*
X146153571Y-68762571D01*
X146486904Y-68762571D01*
X144153571Y-69191142D02*
X144201190Y-69238761D01*
X144344047Y-69286380D01*
X144439285Y-69286380D01*
X144582142Y-69238761D01*
X144677380Y-69143523D01*
X144725000Y-69048285D01*
X144772619Y-68857809D01*
X144772619Y-68714952D01*
X144725000Y-68524476D01*
X144677380Y-68429238D01*
X144582142Y-68334000D01*
X144439285Y-68286380D01*
X144344047Y-68286380D01*
X144201190Y-68334000D01*
X144153571Y-68381619D01*
X143534523Y-68286380D02*
X143344047Y-68286380D01*
X143248809Y-68334000D01*
X143153571Y-68429238D01*
X143105952Y-68619714D01*
X143105952Y-68953047D01*
X143153571Y-69143523D01*
X143248809Y-69238761D01*
X143344047Y-69286380D01*
X143534523Y-69286380D01*
X143629761Y-69238761D01*
X143725000Y-69143523D01*
X143772619Y-68953047D01*
X143772619Y-68619714D01*
X143725000Y-68429238D01*
X143629761Y-68334000D01*
X143534523Y-68286380D01*
X142677380Y-69286380D02*
X142677380Y-68286380D01*
X142105952Y-69286380D01*
X142105952Y-68286380D01*
X141629761Y-69286380D02*
X141629761Y-68286380D01*
X141058333Y-69286380D01*
X141058333Y-68286380D01*
X140582142Y-68762571D02*
X140248809Y-68762571D01*
X140105952Y-69286380D02*
X140582142Y-69286380D01*
X140582142Y-68286380D01*
X140105952Y-68286380D01*
X139105952Y-69191142D02*
X139153571Y-69238761D01*
X139296428Y-69286380D01*
X139391666Y-69286380D01*
X139534523Y-69238761D01*
X139629761Y-69143523D01*
X139677380Y-69048285D01*
X139725000Y-68857809D01*
X139725000Y-68714952D01*
X139677380Y-68524476D01*
X139629761Y-68429238D01*
X139534523Y-68334000D01*
X139391666Y-68286380D01*
X139296428Y-68286380D01*
X139153571Y-68334000D01*
X139105952Y-68381619D01*
X138820238Y-68286380D02*
X138248809Y-68286380D01*
X138534523Y-69286380D02*
X138534523Y-68286380D01*
X137725000Y-68286380D02*
X137534523Y-68286380D01*
X137439285Y-68334000D01*
X137344047Y-68429238D01*
X137296428Y-68619714D01*
X137296428Y-68953047D01*
X137344047Y-69143523D01*
X137439285Y-69238761D01*
X137534523Y-69286380D01*
X137725000Y-69286380D01*
X137820238Y-69238761D01*
X137915476Y-69143523D01*
X137963095Y-68953047D01*
X137963095Y-68619714D01*
X137915476Y-68429238D01*
X137820238Y-68334000D01*
X137725000Y-68286380D01*
X136296428Y-69286380D02*
X136629761Y-68810190D01*
X136867857Y-69286380D02*
X136867857Y-68286380D01*
X136486904Y-68286380D01*
X136391666Y-68334000D01*
X136344047Y-68381619D01*
X136296428Y-68476857D01*
X136296428Y-68619714D01*
X136344047Y-68714952D01*
X136391666Y-68762571D01*
X136486904Y-68810190D01*
X136867857Y-68810190D01*
D11*
X172720000Y-38100000D02*
X121539000Y-38100000D01*
X172720000Y-143510000D02*
X172720000Y-38100000D01*
X96520000Y-143510000D02*
X172720000Y-143510000D01*
X96520000Y-38100000D02*
X96520000Y-143510000D01*
X121539000Y-38100000D02*
X96520000Y-38100000D01*
D12*
X116420000Y-141219000D02*
X116420000Y-138069000D01*
X114720000Y-141219000D02*
X114720000Y-138069000D01*
X116420000Y-141219000D02*
X114720000Y-141219000D01*
X137911252Y-52637000D02*
X135138748Y-52637000D01*
X137911252Y-49217000D02*
X135138748Y-49217000D01*
X111145000Y-40339500D02*
X116545000Y-40339500D01*
X111145000Y-44639500D02*
X111145000Y-40339500D01*
X117383779Y-46357000D02*
X117058221Y-46357000D01*
X117383779Y-45337000D02*
X117058221Y-45337000D01*
X110225721Y-45337000D02*
X110551279Y-45337000D01*
X110225721Y-46357000D02*
X110551279Y-46357000D01*
X113468000Y-49808000D02*
X113468000Y-49333000D01*
X118688000Y-54553000D02*
X118213000Y-54553000D01*
X118688000Y-54078000D02*
X118688000Y-54553000D01*
X118688000Y-49333000D02*
X118213000Y-49333000D01*
X118688000Y-49808000D02*
X118688000Y-49333000D01*
X113468000Y-54553000D02*
X113943000Y-54553000D01*
X113468000Y-54078000D02*
X113468000Y-54553000D01*
X123756267Y-45595000D02*
X123413733Y-45595000D01*
X123756267Y-44575000D02*
X123413733Y-44575000D01*
X123742267Y-47754000D02*
X123399733Y-47754000D01*
X123742267Y-46734000D02*
X123399733Y-46734000D01*
X139829000Y-40708733D02*
X139829000Y-41051267D01*
X138809000Y-40708733D02*
X138809000Y-41051267D01*
X125191733Y-40892000D02*
X125534267Y-40892000D01*
X125191733Y-41912000D02*
X125534267Y-41912000D01*
X113540000Y-60901733D02*
X113540000Y-61244267D01*
X112520000Y-60901733D02*
X112520000Y-61244267D01*
X158457000Y-141219000D02*
X158457000Y-138069000D01*
X156757000Y-141219000D02*
X156757000Y-138069000D01*
X158457000Y-141219000D02*
X156757000Y-141219000D01*
X139280000Y-141346000D02*
X139280000Y-138196000D01*
X137580000Y-141346000D02*
X137580000Y-138196000D01*
X139280000Y-141346000D02*
X137580000Y-141346000D01*
X120230000Y-141219000D02*
X120230000Y-138069000D01*
X118530000Y-141219000D02*
X118530000Y-138069000D01*
X120230000Y-141219000D02*
X118530000Y-141219000D01*
X158330000Y-122169000D02*
X158330000Y-119019000D01*
X156630000Y-122169000D02*
X156630000Y-119019000D01*
X158330000Y-122169000D02*
X156630000Y-122169000D01*
X139280000Y-122169000D02*
X139280000Y-119019000D01*
X137580000Y-122169000D02*
X137580000Y-119019000D01*
X139280000Y-122169000D02*
X137580000Y-122169000D01*
X120230000Y-122296000D02*
X120230000Y-119146000D01*
X118530000Y-122296000D02*
X118530000Y-119146000D01*
X120230000Y-122296000D02*
X118530000Y-122296000D01*
X101180000Y-122423000D02*
X101180000Y-119273000D01*
X99480000Y-122423000D02*
X99480000Y-119273000D01*
X101180000Y-122423000D02*
X99480000Y-122423000D01*
X158457000Y-103119000D02*
X158457000Y-99969000D01*
X156757000Y-103119000D02*
X156757000Y-99969000D01*
X158457000Y-103119000D02*
X156757000Y-103119000D01*
X139407000Y-103246000D02*
X139407000Y-100096000D01*
X137707000Y-103246000D02*
X137707000Y-100096000D01*
X139407000Y-103246000D02*
X137707000Y-103246000D01*
X120230000Y-103246000D02*
X120230000Y-100096000D01*
X118530000Y-103246000D02*
X118530000Y-100096000D01*
X120230000Y-103246000D02*
X118530000Y-103246000D01*
X100926000Y-103373000D02*
X100926000Y-100223000D01*
X99226000Y-103373000D02*
X99226000Y-100223000D01*
X100926000Y-103373000D02*
X99226000Y-103373000D01*
X158330000Y-84323000D02*
X158330000Y-81173000D01*
X156630000Y-84323000D02*
X156630000Y-81173000D01*
X158330000Y-84323000D02*
X156630000Y-84323000D01*
X139280000Y-84196000D02*
X139280000Y-81046000D01*
X137580000Y-84196000D02*
X137580000Y-81046000D01*
X139280000Y-84196000D02*
X137580000Y-84196000D01*
X120357000Y-84069000D02*
X120357000Y-80919000D01*
X118657000Y-84069000D02*
X118657000Y-80919000D01*
X120357000Y-84069000D02*
X118657000Y-84069000D01*
X100672000Y-84196000D02*
X100672000Y-81046000D01*
X98972000Y-84196000D02*
X98972000Y-81046000D01*
X100672000Y-84196000D02*
X98972000Y-84196000D01*
X158330000Y-65166000D02*
X158330000Y-62016000D01*
X156630000Y-65166000D02*
X156630000Y-62016000D01*
X158330000Y-65166000D02*
X156630000Y-65166000D01*
X138899000Y-65273000D02*
X138899000Y-62123000D01*
X137199000Y-65273000D02*
X137199000Y-62123000D01*
X138899000Y-65273000D02*
X137199000Y-65273000D01*
X135089000Y-65273000D02*
X135089000Y-62123000D01*
X133389000Y-65273000D02*
X133389000Y-62123000D01*
X135089000Y-65273000D02*
X133389000Y-65273000D01*
X100799000Y-65273000D02*
X100799000Y-62123000D01*
X99099000Y-65273000D02*
X99099000Y-62123000D01*
X100799000Y-65273000D02*
X99099000Y-65273000D01*
X110675267Y-51437000D02*
X110332733Y-51437000D01*
X110675267Y-50417000D02*
X110332733Y-50417000D01*
X110500279Y-48897000D02*
X110174721Y-48897000D01*
X110500279Y-47877000D02*
X110174721Y-47877000D01*
D10*
X117872380Y-138104714D02*
X116872380Y-138104714D01*
X116872380Y-138342809D01*
X116920000Y-138485666D01*
X117015238Y-138580904D01*
X117110476Y-138628523D01*
X117300952Y-138676142D01*
X117443809Y-138676142D01*
X117634285Y-138628523D01*
X117729523Y-138580904D01*
X117824761Y-138485666D01*
X117872380Y-138342809D01*
X117872380Y-138104714D01*
X117872380Y-139628523D02*
X117872380Y-139057095D01*
X117872380Y-139342809D02*
X116872380Y-139342809D01*
X117015238Y-139247571D01*
X117110476Y-139152333D01*
X117158095Y-139057095D01*
X116872380Y-139961857D02*
X116872380Y-140628523D01*
X117872380Y-140199952D01*
X136858333Y-48205571D02*
X137191666Y-48205571D01*
X137191666Y-48729380D02*
X137191666Y-47729380D01*
X136715476Y-47729380D01*
X135810714Y-48729380D02*
X136382142Y-48729380D01*
X136096428Y-48729380D02*
X136096428Y-47729380D01*
X136191666Y-47872238D01*
X136286904Y-47967476D01*
X136382142Y-48015095D01*
X114321190Y-45415690D02*
X114321190Y-45891880D01*
X114654523Y-44891880D02*
X114321190Y-45415690D01*
X113987857Y-44891880D01*
X113130714Y-45891880D02*
X113702142Y-45891880D01*
X113416428Y-45891880D02*
X113416428Y-44891880D01*
X113511666Y-45034738D01*
X113606904Y-45129976D01*
X113702142Y-45177595D01*
X117387666Y-44774142D02*
X117435285Y-44821761D01*
X117578142Y-44869380D01*
X117673380Y-44869380D01*
X117816238Y-44821761D01*
X117911476Y-44726523D01*
X117959095Y-44631285D01*
X118006714Y-44440809D01*
X118006714Y-44297952D01*
X117959095Y-44107476D01*
X117911476Y-44012238D01*
X117816238Y-43917000D01*
X117673380Y-43869380D01*
X117578142Y-43869380D01*
X117435285Y-43917000D01*
X117387666Y-43964619D01*
X117054333Y-43869380D02*
X116435285Y-43869380D01*
X116768619Y-44250333D01*
X116625761Y-44250333D01*
X116530523Y-44297952D01*
X116482904Y-44345571D01*
X116435285Y-44440809D01*
X116435285Y-44678904D01*
X116482904Y-44774142D01*
X116530523Y-44821761D01*
X116625761Y-44869380D01*
X116911476Y-44869380D01*
X117006714Y-44821761D01*
X117054333Y-44774142D01*
X110555166Y-47634142D02*
X110602785Y-47681761D01*
X110745642Y-47729380D01*
X110840880Y-47729380D01*
X110983738Y-47681761D01*
X111078976Y-47586523D01*
X111126595Y-47491285D01*
X111174214Y-47300809D01*
X111174214Y-47157952D01*
X111126595Y-46967476D01*
X111078976Y-46872238D01*
X110983738Y-46777000D01*
X110840880Y-46729380D01*
X110745642Y-46729380D01*
X110602785Y-46777000D01*
X110555166Y-46824619D01*
X110174214Y-46824619D02*
X110126595Y-46777000D01*
X110031357Y-46729380D01*
X109793261Y-46729380D01*
X109698023Y-46777000D01*
X109650404Y-46824619D01*
X109602785Y-46919857D01*
X109602785Y-47015095D01*
X109650404Y-47157952D01*
X110221833Y-47729380D01*
X109602785Y-47729380D01*
X111710380Y-51181095D02*
X112519904Y-51181095D01*
X112615142Y-51228714D01*
X112662761Y-51276333D01*
X112710380Y-51371571D01*
X112710380Y-51562047D01*
X112662761Y-51657285D01*
X112615142Y-51704904D01*
X112519904Y-51752523D01*
X111710380Y-51752523D01*
X112710380Y-52752523D02*
X112710380Y-52181095D01*
X112710380Y-52466809D02*
X111710380Y-52466809D01*
X111853238Y-52371571D01*
X111948476Y-52276333D01*
X111996095Y-52181095D01*
X123751666Y-44107380D02*
X124085000Y-43631190D01*
X124323095Y-44107380D02*
X124323095Y-43107380D01*
X123942142Y-43107380D01*
X123846904Y-43155000D01*
X123799285Y-43202619D01*
X123751666Y-43297857D01*
X123751666Y-43440714D01*
X123799285Y-43535952D01*
X123846904Y-43583571D01*
X123942142Y-43631190D01*
X124323095Y-43631190D01*
X122846904Y-43107380D02*
X123323095Y-43107380D01*
X123370714Y-43583571D01*
X123323095Y-43535952D01*
X123227857Y-43488333D01*
X122989761Y-43488333D01*
X122894523Y-43535952D01*
X122846904Y-43583571D01*
X122799285Y-43678809D01*
X122799285Y-43916904D01*
X122846904Y-44012142D01*
X122894523Y-44059761D01*
X122989761Y-44107380D01*
X123227857Y-44107380D01*
X123323095Y-44059761D01*
X123370714Y-44012142D01*
X123737666Y-46266380D02*
X124071000Y-45790190D01*
X124309095Y-46266380D02*
X124309095Y-45266380D01*
X123928142Y-45266380D01*
X123832904Y-45314000D01*
X123785285Y-45361619D01*
X123737666Y-45456857D01*
X123737666Y-45599714D01*
X123785285Y-45694952D01*
X123832904Y-45742571D01*
X123928142Y-45790190D01*
X124309095Y-45790190D01*
X122880523Y-45599714D02*
X122880523Y-46266380D01*
X123118619Y-45218761D02*
X123356714Y-45933047D01*
X122737666Y-45933047D01*
X138341380Y-40713333D02*
X137865190Y-40380000D01*
X138341380Y-40141904D02*
X137341380Y-40141904D01*
X137341380Y-40522857D01*
X137389000Y-40618095D01*
X137436619Y-40665714D01*
X137531857Y-40713333D01*
X137674714Y-40713333D01*
X137769952Y-40665714D01*
X137817571Y-40618095D01*
X137865190Y-40522857D01*
X137865190Y-40141904D01*
X137341380Y-41046666D02*
X137341380Y-41665714D01*
X137722333Y-41332380D01*
X137722333Y-41475238D01*
X137769952Y-41570476D01*
X137817571Y-41618095D01*
X137912809Y-41665714D01*
X138150904Y-41665714D01*
X138246142Y-41618095D01*
X138293761Y-41570476D01*
X138341380Y-41475238D01*
X138341380Y-41189523D01*
X138293761Y-41094285D01*
X138246142Y-41046666D01*
X125529666Y-43284380D02*
X125863000Y-42808190D01*
X126101095Y-43284380D02*
X126101095Y-42284380D01*
X125720142Y-42284380D01*
X125624904Y-42332000D01*
X125577285Y-42379619D01*
X125529666Y-42474857D01*
X125529666Y-42617714D01*
X125577285Y-42712952D01*
X125624904Y-42760571D01*
X125720142Y-42808190D01*
X126101095Y-42808190D01*
X125148714Y-42379619D02*
X125101095Y-42332000D01*
X125005857Y-42284380D01*
X124767761Y-42284380D01*
X124672523Y-42332000D01*
X124624904Y-42379619D01*
X124577285Y-42474857D01*
X124577285Y-42570095D01*
X124624904Y-42712952D01*
X125196333Y-43284380D01*
X124577285Y-43284380D01*
X112052380Y-60906333D02*
X111576190Y-60573000D01*
X112052380Y-60334904D02*
X111052380Y-60334904D01*
X111052380Y-60715857D01*
X111100000Y-60811095D01*
X111147619Y-60858714D01*
X111242857Y-60906333D01*
X111385714Y-60906333D01*
X111480952Y-60858714D01*
X111528571Y-60811095D01*
X111576190Y-60715857D01*
X111576190Y-60334904D01*
X112052380Y-61858714D02*
X112052380Y-61287285D01*
X112052380Y-61573000D02*
X111052380Y-61573000D01*
X111195238Y-61477761D01*
X111290476Y-61382523D01*
X111338095Y-61287285D01*
X159909380Y-138104714D02*
X158909380Y-138104714D01*
X158909380Y-138342809D01*
X158957000Y-138485666D01*
X159052238Y-138580904D01*
X159147476Y-138628523D01*
X159337952Y-138676142D01*
X159480809Y-138676142D01*
X159671285Y-138628523D01*
X159766523Y-138580904D01*
X159861761Y-138485666D01*
X159909380Y-138342809D01*
X159909380Y-138104714D01*
X159004619Y-139057095D02*
X158957000Y-139104714D01*
X158909380Y-139199952D01*
X158909380Y-139438047D01*
X158957000Y-139533285D01*
X159004619Y-139580904D01*
X159099857Y-139628523D01*
X159195095Y-139628523D01*
X159337952Y-139580904D01*
X159909380Y-139009476D01*
X159909380Y-139628523D01*
X158909380Y-140247571D02*
X158909380Y-140342809D01*
X158957000Y-140438047D01*
X159004619Y-140485666D01*
X159099857Y-140533285D01*
X159290333Y-140580904D01*
X159528428Y-140580904D01*
X159718904Y-140533285D01*
X159814142Y-140485666D01*
X159861761Y-140438047D01*
X159909380Y-140342809D01*
X159909380Y-140247571D01*
X159861761Y-140152333D01*
X159814142Y-140104714D01*
X159718904Y-140057095D01*
X159528428Y-140009476D01*
X159290333Y-140009476D01*
X159099857Y-140057095D01*
X159004619Y-140104714D01*
X158957000Y-140152333D01*
X158909380Y-140247571D01*
X140732380Y-138231714D02*
X139732380Y-138231714D01*
X139732380Y-138469809D01*
X139780000Y-138612666D01*
X139875238Y-138707904D01*
X139970476Y-138755523D01*
X140160952Y-138803142D01*
X140303809Y-138803142D01*
X140494285Y-138755523D01*
X140589523Y-138707904D01*
X140684761Y-138612666D01*
X140732380Y-138469809D01*
X140732380Y-138231714D01*
X140732380Y-139755523D02*
X140732380Y-139184095D01*
X140732380Y-139469809D02*
X139732380Y-139469809D01*
X139875238Y-139374571D01*
X139970476Y-139279333D01*
X140018095Y-139184095D01*
X140732380Y-140231714D02*
X140732380Y-140422190D01*
X140684761Y-140517428D01*
X140637142Y-140565047D01*
X140494285Y-140660285D01*
X140303809Y-140707904D01*
X139922857Y-140707904D01*
X139827619Y-140660285D01*
X139780000Y-140612666D01*
X139732380Y-140517428D01*
X139732380Y-140326952D01*
X139780000Y-140231714D01*
X139827619Y-140184095D01*
X139922857Y-140136476D01*
X140160952Y-140136476D01*
X140256190Y-140184095D01*
X140303809Y-140231714D01*
X140351428Y-140326952D01*
X140351428Y-140517428D01*
X140303809Y-140612666D01*
X140256190Y-140660285D01*
X140160952Y-140707904D01*
X121682380Y-138104714D02*
X120682380Y-138104714D01*
X120682380Y-138342809D01*
X120730000Y-138485666D01*
X120825238Y-138580904D01*
X120920476Y-138628523D01*
X121110952Y-138676142D01*
X121253809Y-138676142D01*
X121444285Y-138628523D01*
X121539523Y-138580904D01*
X121634761Y-138485666D01*
X121682380Y-138342809D01*
X121682380Y-138104714D01*
X121682380Y-139628523D02*
X121682380Y-139057095D01*
X121682380Y-139342809D02*
X120682380Y-139342809D01*
X120825238Y-139247571D01*
X120920476Y-139152333D01*
X120968095Y-139057095D01*
X121110952Y-140199952D02*
X121063333Y-140104714D01*
X121015714Y-140057095D01*
X120920476Y-140009476D01*
X120872857Y-140009476D01*
X120777619Y-140057095D01*
X120730000Y-140104714D01*
X120682380Y-140199952D01*
X120682380Y-140390428D01*
X120730000Y-140485666D01*
X120777619Y-140533285D01*
X120872857Y-140580904D01*
X120920476Y-140580904D01*
X121015714Y-140533285D01*
X121063333Y-140485666D01*
X121110952Y-140390428D01*
X121110952Y-140199952D01*
X121158571Y-140104714D01*
X121206190Y-140057095D01*
X121301428Y-140009476D01*
X121491904Y-140009476D01*
X121587142Y-140057095D01*
X121634761Y-140104714D01*
X121682380Y-140199952D01*
X121682380Y-140390428D01*
X121634761Y-140485666D01*
X121587142Y-140533285D01*
X121491904Y-140580904D01*
X121301428Y-140580904D01*
X121206190Y-140533285D01*
X121158571Y-140485666D01*
X121110952Y-140390428D01*
X159782380Y-119054714D02*
X158782380Y-119054714D01*
X158782380Y-119292809D01*
X158830000Y-119435666D01*
X158925238Y-119530904D01*
X159020476Y-119578523D01*
X159210952Y-119626142D01*
X159353809Y-119626142D01*
X159544285Y-119578523D01*
X159639523Y-119530904D01*
X159734761Y-119435666D01*
X159782380Y-119292809D01*
X159782380Y-119054714D01*
X159782380Y-120578523D02*
X159782380Y-120007095D01*
X159782380Y-120292809D02*
X158782380Y-120292809D01*
X158925238Y-120197571D01*
X159020476Y-120102333D01*
X159068095Y-120007095D01*
X158782380Y-121435666D02*
X158782380Y-121245190D01*
X158830000Y-121149952D01*
X158877619Y-121102333D01*
X159020476Y-121007095D01*
X159210952Y-120959476D01*
X159591904Y-120959476D01*
X159687142Y-121007095D01*
X159734761Y-121054714D01*
X159782380Y-121149952D01*
X159782380Y-121340428D01*
X159734761Y-121435666D01*
X159687142Y-121483285D01*
X159591904Y-121530904D01*
X159353809Y-121530904D01*
X159258571Y-121483285D01*
X159210952Y-121435666D01*
X159163333Y-121340428D01*
X159163333Y-121149952D01*
X159210952Y-121054714D01*
X159258571Y-121007095D01*
X159353809Y-120959476D01*
X140732380Y-119054714D02*
X139732380Y-119054714D01*
X139732380Y-119292809D01*
X139780000Y-119435666D01*
X139875238Y-119530904D01*
X139970476Y-119578523D01*
X140160952Y-119626142D01*
X140303809Y-119626142D01*
X140494285Y-119578523D01*
X140589523Y-119530904D01*
X140684761Y-119435666D01*
X140732380Y-119292809D01*
X140732380Y-119054714D01*
X140732380Y-120578523D02*
X140732380Y-120007095D01*
X140732380Y-120292809D02*
X139732380Y-120292809D01*
X139875238Y-120197571D01*
X139970476Y-120102333D01*
X140018095Y-120007095D01*
X139732380Y-121483285D02*
X139732380Y-121007095D01*
X140208571Y-120959476D01*
X140160952Y-121007095D01*
X140113333Y-121102333D01*
X140113333Y-121340428D01*
X140160952Y-121435666D01*
X140208571Y-121483285D01*
X140303809Y-121530904D01*
X140541904Y-121530904D01*
X140637142Y-121483285D01*
X140684761Y-121435666D01*
X140732380Y-121340428D01*
X140732380Y-121102333D01*
X140684761Y-121007095D01*
X140637142Y-120959476D01*
X121682380Y-119181714D02*
X120682380Y-119181714D01*
X120682380Y-119419809D01*
X120730000Y-119562666D01*
X120825238Y-119657904D01*
X120920476Y-119705523D01*
X121110952Y-119753142D01*
X121253809Y-119753142D01*
X121444285Y-119705523D01*
X121539523Y-119657904D01*
X121634761Y-119562666D01*
X121682380Y-119419809D01*
X121682380Y-119181714D01*
X121682380Y-120705523D02*
X121682380Y-120134095D01*
X121682380Y-120419809D02*
X120682380Y-120419809D01*
X120825238Y-120324571D01*
X120920476Y-120229333D01*
X120968095Y-120134095D01*
X121015714Y-121562666D02*
X121682380Y-121562666D01*
X120634761Y-121324571D02*
X121349047Y-121086476D01*
X121349047Y-121705523D01*
X102632380Y-119308714D02*
X101632380Y-119308714D01*
X101632380Y-119546809D01*
X101680000Y-119689666D01*
X101775238Y-119784904D01*
X101870476Y-119832523D01*
X102060952Y-119880142D01*
X102203809Y-119880142D01*
X102394285Y-119832523D01*
X102489523Y-119784904D01*
X102584761Y-119689666D01*
X102632380Y-119546809D01*
X102632380Y-119308714D01*
X102632380Y-120832523D02*
X102632380Y-120261095D01*
X102632380Y-120546809D02*
X101632380Y-120546809D01*
X101775238Y-120451571D01*
X101870476Y-120356333D01*
X101918095Y-120261095D01*
X101632380Y-121165857D02*
X101632380Y-121784904D01*
X102013333Y-121451571D01*
X102013333Y-121594428D01*
X102060952Y-121689666D01*
X102108571Y-121737285D01*
X102203809Y-121784904D01*
X102441904Y-121784904D01*
X102537142Y-121737285D01*
X102584761Y-121689666D01*
X102632380Y-121594428D01*
X102632380Y-121308714D01*
X102584761Y-121213476D01*
X102537142Y-121165857D01*
X159909380Y-100004714D02*
X158909380Y-100004714D01*
X158909380Y-100242809D01*
X158957000Y-100385666D01*
X159052238Y-100480904D01*
X159147476Y-100528523D01*
X159337952Y-100576142D01*
X159480809Y-100576142D01*
X159671285Y-100528523D01*
X159766523Y-100480904D01*
X159861761Y-100385666D01*
X159909380Y-100242809D01*
X159909380Y-100004714D01*
X159909380Y-101528523D02*
X159909380Y-100957095D01*
X159909380Y-101242809D02*
X158909380Y-101242809D01*
X159052238Y-101147571D01*
X159147476Y-101052333D01*
X159195095Y-100957095D01*
X159004619Y-101909476D02*
X158957000Y-101957095D01*
X158909380Y-102052333D01*
X158909380Y-102290428D01*
X158957000Y-102385666D01*
X159004619Y-102433285D01*
X159099857Y-102480904D01*
X159195095Y-102480904D01*
X159337952Y-102433285D01*
X159909380Y-101861857D01*
X159909380Y-102480904D01*
X140859380Y-100131714D02*
X139859380Y-100131714D01*
X139859380Y-100369809D01*
X139907000Y-100512666D01*
X140002238Y-100607904D01*
X140097476Y-100655523D01*
X140287952Y-100703142D01*
X140430809Y-100703142D01*
X140621285Y-100655523D01*
X140716523Y-100607904D01*
X140811761Y-100512666D01*
X140859380Y-100369809D01*
X140859380Y-100131714D01*
X140859380Y-101655523D02*
X140859380Y-101084095D01*
X140859380Y-101369809D02*
X139859380Y-101369809D01*
X140002238Y-101274571D01*
X140097476Y-101179333D01*
X140145095Y-101084095D01*
X140859380Y-102607904D02*
X140859380Y-102036476D01*
X140859380Y-102322190D02*
X139859380Y-102322190D01*
X140002238Y-102226952D01*
X140097476Y-102131714D01*
X140145095Y-102036476D01*
X121682380Y-100131714D02*
X120682380Y-100131714D01*
X120682380Y-100369809D01*
X120730000Y-100512666D01*
X120825238Y-100607904D01*
X120920476Y-100655523D01*
X121110952Y-100703142D01*
X121253809Y-100703142D01*
X121444285Y-100655523D01*
X121539523Y-100607904D01*
X121634761Y-100512666D01*
X121682380Y-100369809D01*
X121682380Y-100131714D01*
X121682380Y-101655523D02*
X121682380Y-101084095D01*
X121682380Y-101369809D02*
X120682380Y-101369809D01*
X120825238Y-101274571D01*
X120920476Y-101179333D01*
X120968095Y-101084095D01*
X120682380Y-102274571D02*
X120682380Y-102369809D01*
X120730000Y-102465047D01*
X120777619Y-102512666D01*
X120872857Y-102560285D01*
X121063333Y-102607904D01*
X121301428Y-102607904D01*
X121491904Y-102560285D01*
X121587142Y-102512666D01*
X121634761Y-102465047D01*
X121682380Y-102369809D01*
X121682380Y-102274571D01*
X121634761Y-102179333D01*
X121587142Y-102131714D01*
X121491904Y-102084095D01*
X121301428Y-102036476D01*
X121063333Y-102036476D01*
X120872857Y-102084095D01*
X120777619Y-102131714D01*
X120730000Y-102179333D01*
X120682380Y-102274571D01*
X102378380Y-100734904D02*
X101378380Y-100734904D01*
X101378380Y-100973000D01*
X101426000Y-101115857D01*
X101521238Y-101211095D01*
X101616476Y-101258714D01*
X101806952Y-101306333D01*
X101949809Y-101306333D01*
X102140285Y-101258714D01*
X102235523Y-101211095D01*
X102330761Y-101115857D01*
X102378380Y-100973000D01*
X102378380Y-100734904D01*
X102378380Y-101782523D02*
X102378380Y-101973000D01*
X102330761Y-102068238D01*
X102283142Y-102115857D01*
X102140285Y-102211095D01*
X101949809Y-102258714D01*
X101568857Y-102258714D01*
X101473619Y-102211095D01*
X101426000Y-102163476D01*
X101378380Y-102068238D01*
X101378380Y-101877761D01*
X101426000Y-101782523D01*
X101473619Y-101734904D01*
X101568857Y-101687285D01*
X101806952Y-101687285D01*
X101902190Y-101734904D01*
X101949809Y-101782523D01*
X101997428Y-101877761D01*
X101997428Y-102068238D01*
X101949809Y-102163476D01*
X101902190Y-102211095D01*
X101806952Y-102258714D01*
X159782380Y-81684904D02*
X158782380Y-81684904D01*
X158782380Y-81923000D01*
X158830000Y-82065857D01*
X158925238Y-82161095D01*
X159020476Y-82208714D01*
X159210952Y-82256333D01*
X159353809Y-82256333D01*
X159544285Y-82208714D01*
X159639523Y-82161095D01*
X159734761Y-82065857D01*
X159782380Y-81923000D01*
X159782380Y-81684904D01*
X159210952Y-82827761D02*
X159163333Y-82732523D01*
X159115714Y-82684904D01*
X159020476Y-82637285D01*
X158972857Y-82637285D01*
X158877619Y-82684904D01*
X158830000Y-82732523D01*
X158782380Y-82827761D01*
X158782380Y-83018238D01*
X158830000Y-83113476D01*
X158877619Y-83161095D01*
X158972857Y-83208714D01*
X159020476Y-83208714D01*
X159115714Y-83161095D01*
X159163333Y-83113476D01*
X159210952Y-83018238D01*
X159210952Y-82827761D01*
X159258571Y-82732523D01*
X159306190Y-82684904D01*
X159401428Y-82637285D01*
X159591904Y-82637285D01*
X159687142Y-82684904D01*
X159734761Y-82732523D01*
X159782380Y-82827761D01*
X159782380Y-83018238D01*
X159734761Y-83113476D01*
X159687142Y-83161095D01*
X159591904Y-83208714D01*
X159401428Y-83208714D01*
X159306190Y-83161095D01*
X159258571Y-83113476D01*
X159210952Y-83018238D01*
X140732380Y-81557904D02*
X139732380Y-81557904D01*
X139732380Y-81796000D01*
X139780000Y-81938857D01*
X139875238Y-82034095D01*
X139970476Y-82081714D01*
X140160952Y-82129333D01*
X140303809Y-82129333D01*
X140494285Y-82081714D01*
X140589523Y-82034095D01*
X140684761Y-81938857D01*
X140732380Y-81796000D01*
X140732380Y-81557904D01*
X139732380Y-82462666D02*
X139732380Y-83129333D01*
X140732380Y-82700761D01*
X121809380Y-81430904D02*
X120809380Y-81430904D01*
X120809380Y-81669000D01*
X120857000Y-81811857D01*
X120952238Y-81907095D01*
X121047476Y-81954714D01*
X121237952Y-82002333D01*
X121380809Y-82002333D01*
X121571285Y-81954714D01*
X121666523Y-81907095D01*
X121761761Y-81811857D01*
X121809380Y-81669000D01*
X121809380Y-81430904D01*
X120809380Y-82859476D02*
X120809380Y-82669000D01*
X120857000Y-82573761D01*
X120904619Y-82526142D01*
X121047476Y-82430904D01*
X121237952Y-82383285D01*
X121618904Y-82383285D01*
X121714142Y-82430904D01*
X121761761Y-82478523D01*
X121809380Y-82573761D01*
X121809380Y-82764238D01*
X121761761Y-82859476D01*
X121714142Y-82907095D01*
X121618904Y-82954714D01*
X121380809Y-82954714D01*
X121285571Y-82907095D01*
X121237952Y-82859476D01*
X121190333Y-82764238D01*
X121190333Y-82573761D01*
X121237952Y-82478523D01*
X121285571Y-82430904D01*
X121380809Y-82383285D01*
X102124380Y-81557904D02*
X101124380Y-81557904D01*
X101124380Y-81796000D01*
X101172000Y-81938857D01*
X101267238Y-82034095D01*
X101362476Y-82081714D01*
X101552952Y-82129333D01*
X101695809Y-82129333D01*
X101886285Y-82081714D01*
X101981523Y-82034095D01*
X102076761Y-81938857D01*
X102124380Y-81796000D01*
X102124380Y-81557904D01*
X101124380Y-83034095D02*
X101124380Y-82557904D01*
X101600571Y-82510285D01*
X101552952Y-82557904D01*
X101505333Y-82653142D01*
X101505333Y-82891238D01*
X101552952Y-82986476D01*
X101600571Y-83034095D01*
X101695809Y-83081714D01*
X101933904Y-83081714D01*
X102029142Y-83034095D01*
X102076761Y-82986476D01*
X102124380Y-82891238D01*
X102124380Y-82653142D01*
X102076761Y-82557904D01*
X102029142Y-82510285D01*
X159782380Y-62527904D02*
X158782380Y-62527904D01*
X158782380Y-62766000D01*
X158830000Y-62908857D01*
X158925238Y-63004095D01*
X159020476Y-63051714D01*
X159210952Y-63099333D01*
X159353809Y-63099333D01*
X159544285Y-63051714D01*
X159639523Y-63004095D01*
X159734761Y-62908857D01*
X159782380Y-62766000D01*
X159782380Y-62527904D01*
X159115714Y-63956476D02*
X159782380Y-63956476D01*
X158734761Y-63718380D02*
X159449047Y-63480285D01*
X159449047Y-64099333D01*
X140351380Y-62634904D02*
X139351380Y-62634904D01*
X139351380Y-62873000D01*
X139399000Y-63015857D01*
X139494238Y-63111095D01*
X139589476Y-63158714D01*
X139779952Y-63206333D01*
X139922809Y-63206333D01*
X140113285Y-63158714D01*
X140208523Y-63111095D01*
X140303761Y-63015857D01*
X140351380Y-62873000D01*
X140351380Y-62634904D01*
X139351380Y-63539666D02*
X139351380Y-64158714D01*
X139732333Y-63825380D01*
X139732333Y-63968238D01*
X139779952Y-64063476D01*
X139827571Y-64111095D01*
X139922809Y-64158714D01*
X140160904Y-64158714D01*
X140256142Y-64111095D01*
X140303761Y-64063476D01*
X140351380Y-63968238D01*
X140351380Y-63682523D01*
X140303761Y-63587285D01*
X140256142Y-63539666D01*
X136541380Y-62634904D02*
X135541380Y-62634904D01*
X135541380Y-62873000D01*
X135589000Y-63015857D01*
X135684238Y-63111095D01*
X135779476Y-63158714D01*
X135969952Y-63206333D01*
X136112809Y-63206333D01*
X136303285Y-63158714D01*
X136398523Y-63111095D01*
X136493761Y-63015857D01*
X136541380Y-62873000D01*
X136541380Y-62634904D01*
X135636619Y-63587285D02*
X135589000Y-63634904D01*
X135541380Y-63730142D01*
X135541380Y-63968238D01*
X135589000Y-64063476D01*
X135636619Y-64111095D01*
X135731857Y-64158714D01*
X135827095Y-64158714D01*
X135969952Y-64111095D01*
X136541380Y-63539666D01*
X136541380Y-64158714D01*
X102251380Y-62634904D02*
X101251380Y-62634904D01*
X101251380Y-62873000D01*
X101299000Y-63015857D01*
X101394238Y-63111095D01*
X101489476Y-63158714D01*
X101679952Y-63206333D01*
X101822809Y-63206333D01*
X102013285Y-63158714D01*
X102108523Y-63111095D01*
X102203761Y-63015857D01*
X102251380Y-62873000D01*
X102251380Y-62634904D01*
X102251380Y-64158714D02*
X102251380Y-63587285D01*
X102251380Y-63873000D02*
X101251380Y-63873000D01*
X101394238Y-63777761D01*
X101489476Y-63682523D01*
X101537095Y-63587285D01*
X110670666Y-49854142D02*
X110718285Y-49901761D01*
X110861142Y-49949380D01*
X110956380Y-49949380D01*
X111099238Y-49901761D01*
X111194476Y-49806523D01*
X111242095Y-49711285D01*
X111289714Y-49520809D01*
X111289714Y-49377952D01*
X111242095Y-49187476D01*
X111194476Y-49092238D01*
X111099238Y-48997000D01*
X110956380Y-48949380D01*
X110861142Y-48949380D01*
X110718285Y-48997000D01*
X110670666Y-49044619D01*
X109813523Y-49282714D02*
X109813523Y-49949380D01*
X110051619Y-48901761D02*
X110289714Y-49616047D01*
X109670666Y-49616047D01*
X110504166Y-47314142D02*
X110551785Y-47361761D01*
X110694642Y-47409380D01*
X110789880Y-47409380D01*
X110932738Y-47361761D01*
X111027976Y-47266523D01*
X111075595Y-47171285D01*
X111123214Y-46980809D01*
X111123214Y-46837952D01*
X111075595Y-46647476D01*
X111027976Y-46552238D01*
X110932738Y-46457000D01*
X110789880Y-46409380D01*
X110694642Y-46409380D01*
X110551785Y-46457000D01*
X110504166Y-46504619D01*
X109551785Y-47409380D02*
X110123214Y-47409380D01*
X109837500Y-47409380D02*
X109837500Y-46409380D01*
X109932738Y-46552238D01*
X110027976Y-46647476D01*
X110123214Y-46695095D01*
M02*
