M48
; DRILL file {KiCad (5.1.2)-2} date 6/20/2019 10:35:26 AM
; FORMAT={-:-/ absolute / inch / decimal}
; #@! TF.CreationDate,2019-06-20T10:35:26-04:00
; #@! TF.GenerationSoftware,Kicad,Pcbnew,(5.1.2)-2
; #@! TF.FileFunction,Plated,1,2,PTH
FMAT,2
INCH
T1C0.0157
T2C0.0197
T3C0.0236
T4C0.0335
T5C0.0579
%
G90
G05
T1
X4.045Y-1.635
X4.175Y-2.045
X4.275Y-1.635
X4.33Y-1.855
X4.37Y-2.44
X4.395Y-2.195
X4.4098Y-2.0502
X4.47Y-1.805
X4.54Y-1.87
X4.58Y-1.855
X4.64Y-1.895
X4.64Y-2.24
X4.66Y-1.635
X4.73Y-1.95
X4.73Y-2.135
X4.74Y-2.095
X4.785Y-1.945
X4.885Y-1.935
X4.89Y-1.715
X4.895Y-1.55
X4.895Y-1.55
X5.0865Y-1.8085
X5.16Y-3.25
X5.16Y-4.0
X5.23Y-4.74
X5.24Y-5.47
X5.265Y-2.29
X5.28Y-2.38
X5.375Y-1.855
X5.755Y-1.94
X6.63Y-1.75
X5.1207Y-1.6869
X5.1207Y-1.74
X5.1542Y-1.6869
X5.1542Y-1.74
X5.1877Y-1.6869
X5.1877Y-1.74
X5.2211Y-1.6869
X5.2211Y-1.74
X5.2546Y-1.6869
X5.2546Y-1.74
X5.2881Y-1.6869
X5.2881Y-1.74
X5.3215Y-1.6869
X5.3215Y-1.74
X5.355Y-1.6869
X5.355Y-1.74
T2
X3.9113Y-1.775
X3.9113Y-1.8144
X3.9506Y-1.775
X3.9506Y-1.8144
X3.99Y-1.775
X3.99Y-1.8144
T4
X5.6666Y-1.6626
X5.8634Y-1.6626
T5
X6.285Y-3.695
X6.3366Y-3.6375
X6.5334Y-3.6178
X6.535Y-3.595
X4.785Y-2.945
X4.8366Y-2.8875
X5.0334Y-2.8678
X5.035Y-2.845
X4.785Y-5.195
X4.8366Y-5.1375
X5.0334Y-5.1178
X5.035Y-5.095
X6.285Y-2.945
X6.3366Y-2.8875
X6.5334Y-2.8678
X6.535Y-2.845
X4.035Y-5.195
X4.0866Y-5.1375
X4.2834Y-5.1178
X4.285Y-5.095
X4.035Y-2.195
X4.0866Y-2.1375
X4.2834Y-2.1178
X4.285Y-2.095
X5.535Y-4.445
X5.5866Y-4.3875
X5.7834Y-4.3678
X5.785Y-4.345
X5.535Y-3.695
X5.5866Y-3.6375
X5.7834Y-3.6178
X5.785Y-3.595
X5.535Y-2.195
X5.5866Y-2.1375
X5.7834Y-2.1178
X5.785Y-2.095
X4.035Y-2.945
X4.0866Y-2.8875
X4.2834Y-2.8678
X4.285Y-2.845
X4.035Y-3.695
X4.0866Y-3.6375
X4.2834Y-3.6178
X4.285Y-3.595
X4.785Y-4.445
X4.8366Y-4.3875
X5.0334Y-4.3678
X5.035Y-4.345
X6.285Y-5.195
X6.3366Y-5.1375
X6.5334Y-5.1178
X6.535Y-5.095
X4.785Y-3.695
X4.8366Y-3.6375
X5.0334Y-3.6178
X5.035Y-3.595
X4.035Y-4.445
X4.0866Y-4.3875
X4.2834Y-4.3678
X4.285Y-4.345
X6.285Y-2.195
X6.3366Y-2.1375
X6.5334Y-2.1178
X6.535Y-2.095
X5.535Y-5.195
X5.5866Y-5.1375
X5.7834Y-5.1178
X5.785Y-5.095
X5.535Y-2.945
X5.5866Y-2.8875
X5.7834Y-2.8678
X5.785Y-2.845
X6.285Y-4.445
X6.3366Y-4.3875
X6.5334Y-4.3678
X6.535Y-4.345
X4.785Y-2.195
X4.8366Y-2.1375
X5.0334Y-2.1178
X5.035Y-2.095
T3
G00X5.6272Y-1.5701
M15
G01X5.6272Y-1.5425
M16
G05
G00X5.9028Y-1.5425
M15
G01X5.9028Y-1.5701
M16
G05
G00X5.0676Y-1.5841
M15
G01X5.0676Y-1.5526
M16
G05
G00X5.0676Y-1.7309
M15
G01X5.0676Y-1.6719
M16
G05
G00X5.4081Y-1.5841
M15
G01X5.4081Y-1.5526
M16
G05
G00X5.4081Y-1.7309
M15
G01X5.4081Y-1.6719
M16
G05
T0
M30
