G04 #@! TF.GenerationSoftware,KiCad,Pcbnew,(5.1.2)-2*
G04 #@! TF.CreationDate,2019-06-20T10:34:22-04:00*
G04 #@! TF.ProjectId,macropad,6d616372-6f70-4616-942e-6b696361645f,rev?*
G04 #@! TF.SameCoordinates,Original*
G04 #@! TF.FileFunction,Soldermask,Top*
G04 #@! TF.FilePolarity,Negative*
%FSLAX46Y46*%
G04 Gerber Fmt 4.6, Leading zero omitted, Abs format (unit mm)*
G04 Created by KiCad (PCBNEW (5.1.2)-2) date 2019-06-20 10:34:22*
%MOMM*%
%LPD*%
G04 APERTURE LIST*
%ADD10C,0.100000*%
G04 APERTURE END LIST*
D10*
X172720000Y-38100000D02*
X121539000Y-38100000D01*
X172720000Y-143510000D02*
X172720000Y-38100000D01*
X96520000Y-143510000D02*
X172720000Y-143510000D01*
X96520000Y-38100000D02*
X96520000Y-143510000D01*
X121539000Y-38100000D02*
X96520000Y-38100000D01*
G36*
X99411549Y-139714116D02*
G01*
X99522734Y-139736232D01*
X99670850Y-139797584D01*
X99729700Y-139821960D01*
X99732203Y-139822997D01*
X99920720Y-139948960D01*
X100081040Y-140109280D01*
X100207003Y-140297797D01*
X100293768Y-140507266D01*
X100338000Y-140729636D01*
X100338000Y-140956364D01*
X100293768Y-141178734D01*
X100207003Y-141388203D01*
X100081040Y-141576720D01*
X99920720Y-141737040D01*
X99732203Y-141863003D01*
X99732202Y-141863004D01*
X99732201Y-141863004D01*
X99670850Y-141888416D01*
X99522734Y-141949768D01*
X99411549Y-141971884D01*
X99300365Y-141994000D01*
X99073635Y-141994000D01*
X98962451Y-141971884D01*
X98851266Y-141949768D01*
X98703150Y-141888416D01*
X98641799Y-141863004D01*
X98641798Y-141863004D01*
X98641797Y-141863003D01*
X98453280Y-141737040D01*
X98292960Y-141576720D01*
X98166997Y-141388203D01*
X98080232Y-141178734D01*
X98036000Y-140956364D01*
X98036000Y-140729636D01*
X98080232Y-140507266D01*
X98166997Y-140297797D01*
X98292960Y-140109280D01*
X98453280Y-139948960D01*
X98641797Y-139822997D01*
X98644301Y-139821960D01*
X98703150Y-139797584D01*
X98851266Y-139736232D01*
X98962451Y-139714116D01*
X99073635Y-139692000D01*
X99300365Y-139692000D01*
X99411549Y-139714116D01*
X99411549Y-139714116D01*
G37*
G36*
X170150549Y-139587116D02*
G01*
X170261734Y-139609232D01*
X170409850Y-139670584D01*
X170461554Y-139692000D01*
X170471203Y-139695997D01*
X170659720Y-139821960D01*
X170820040Y-139982280D01*
X170946003Y-140170797D01*
X171032768Y-140380266D01*
X171077000Y-140602636D01*
X171077000Y-140829364D01*
X171032768Y-141051734D01*
X170946003Y-141261203D01*
X170820040Y-141449720D01*
X170659720Y-141610040D01*
X170471203Y-141736003D01*
X170471202Y-141736004D01*
X170471201Y-141736004D01*
X170409850Y-141761416D01*
X170261734Y-141822768D01*
X170150549Y-141844884D01*
X170039365Y-141867000D01*
X169812635Y-141867000D01*
X169701451Y-141844884D01*
X169590266Y-141822768D01*
X169442150Y-141761416D01*
X169380799Y-141736004D01*
X169380798Y-141736004D01*
X169380797Y-141736003D01*
X169192280Y-141610040D01*
X169031960Y-141449720D01*
X168905997Y-141261203D01*
X168819232Y-141051734D01*
X168775000Y-140829364D01*
X168775000Y-140602636D01*
X168819232Y-140380266D01*
X168905997Y-140170797D01*
X169031960Y-139982280D01*
X169192280Y-139821960D01*
X169380797Y-139695997D01*
X169390447Y-139692000D01*
X169442150Y-139670584D01*
X169590266Y-139609232D01*
X169701451Y-139587116D01*
X169812635Y-139565000D01*
X170039365Y-139565000D01*
X170150549Y-139587116D01*
X170150549Y-139587116D01*
G37*
G36*
X106895474Y-132526684D02*
G01*
X107113474Y-132616983D01*
X107267623Y-132680833D01*
X107602548Y-132904623D01*
X107887377Y-133189452D01*
X108111167Y-133524377D01*
X108143562Y-133602586D01*
X108265316Y-133896526D01*
X108343900Y-134291594D01*
X108343900Y-134694406D01*
X108265316Y-135089474D01*
X108214451Y-135212272D01*
X108111167Y-135461623D01*
X107887377Y-135796548D01*
X107602548Y-136081377D01*
X107267623Y-136305167D01*
X107113474Y-136369017D01*
X106895474Y-136459316D01*
X106500406Y-136537900D01*
X106097594Y-136537900D01*
X105702526Y-136459316D01*
X105484526Y-136369017D01*
X105330377Y-136305167D01*
X104995452Y-136081377D01*
X104710623Y-135796548D01*
X104486833Y-135461623D01*
X104383549Y-135212272D01*
X104332684Y-135089474D01*
X104254100Y-134694406D01*
X104254100Y-134291594D01*
X104332684Y-133896526D01*
X104454438Y-133602586D01*
X104486833Y-133524377D01*
X104710623Y-133189452D01*
X104995452Y-132904623D01*
X105330377Y-132680833D01*
X105484526Y-132616983D01*
X105702526Y-132526684D01*
X106097594Y-132448100D01*
X106500406Y-132448100D01*
X106895474Y-132526684D01*
X106895474Y-132526684D01*
G37*
G36*
X125945474Y-132526684D02*
G01*
X126163474Y-132616983D01*
X126317623Y-132680833D01*
X126652548Y-132904623D01*
X126937377Y-133189452D01*
X127161167Y-133524377D01*
X127193562Y-133602586D01*
X127315316Y-133896526D01*
X127393900Y-134291594D01*
X127393900Y-134694406D01*
X127315316Y-135089474D01*
X127264451Y-135212272D01*
X127161167Y-135461623D01*
X126937377Y-135796548D01*
X126652548Y-136081377D01*
X126317623Y-136305167D01*
X126163474Y-136369017D01*
X125945474Y-136459316D01*
X125550406Y-136537900D01*
X125147594Y-136537900D01*
X124752526Y-136459316D01*
X124534526Y-136369017D01*
X124380377Y-136305167D01*
X124045452Y-136081377D01*
X123760623Y-135796548D01*
X123536833Y-135461623D01*
X123433549Y-135212272D01*
X123382684Y-135089474D01*
X123304100Y-134694406D01*
X123304100Y-134291594D01*
X123382684Y-133896526D01*
X123504438Y-133602586D01*
X123536833Y-133524377D01*
X123760623Y-133189452D01*
X124045452Y-132904623D01*
X124380377Y-132680833D01*
X124534526Y-132616983D01*
X124752526Y-132526684D01*
X125147594Y-132448100D01*
X125550406Y-132448100D01*
X125945474Y-132526684D01*
X125945474Y-132526684D01*
G37*
G36*
X144995474Y-132526684D02*
G01*
X145213474Y-132616983D01*
X145367623Y-132680833D01*
X145702548Y-132904623D01*
X145987377Y-133189452D01*
X146211167Y-133524377D01*
X146243562Y-133602586D01*
X146365316Y-133896526D01*
X146443900Y-134291594D01*
X146443900Y-134694406D01*
X146365316Y-135089474D01*
X146314451Y-135212272D01*
X146211167Y-135461623D01*
X145987377Y-135796548D01*
X145702548Y-136081377D01*
X145367623Y-136305167D01*
X145213474Y-136369017D01*
X144995474Y-136459316D01*
X144600406Y-136537900D01*
X144197594Y-136537900D01*
X143802526Y-136459316D01*
X143584526Y-136369017D01*
X143430377Y-136305167D01*
X143095452Y-136081377D01*
X142810623Y-135796548D01*
X142586833Y-135461623D01*
X142483549Y-135212272D01*
X142432684Y-135089474D01*
X142354100Y-134694406D01*
X142354100Y-134291594D01*
X142432684Y-133896526D01*
X142554438Y-133602586D01*
X142586833Y-133524377D01*
X142810623Y-133189452D01*
X143095452Y-132904623D01*
X143430377Y-132680833D01*
X143584526Y-132616983D01*
X143802526Y-132526684D01*
X144197594Y-132448100D01*
X144600406Y-132448100D01*
X144995474Y-132526684D01*
X144995474Y-132526684D01*
G37*
G36*
X164045474Y-132526684D02*
G01*
X164263474Y-132616983D01*
X164417623Y-132680833D01*
X164752548Y-132904623D01*
X165037377Y-133189452D01*
X165261167Y-133524377D01*
X165293562Y-133602586D01*
X165415316Y-133896526D01*
X165493900Y-134291594D01*
X165493900Y-134694406D01*
X165415316Y-135089474D01*
X165364451Y-135212272D01*
X165261167Y-135461623D01*
X165037377Y-135796548D01*
X164752548Y-136081377D01*
X164417623Y-136305167D01*
X164263474Y-136369017D01*
X164045474Y-136459316D01*
X163650406Y-136537900D01*
X163247594Y-136537900D01*
X162852526Y-136459316D01*
X162634526Y-136369017D01*
X162480377Y-136305167D01*
X162145452Y-136081377D01*
X161860623Y-135796548D01*
X161636833Y-135461623D01*
X161533549Y-135212272D01*
X161482684Y-135089474D01*
X161404100Y-134694406D01*
X161404100Y-134291594D01*
X161482684Y-133896526D01*
X161604438Y-133602586D01*
X161636833Y-133524377D01*
X161860623Y-133189452D01*
X162145452Y-132904623D01*
X162480377Y-132680833D01*
X162634526Y-132616983D01*
X162852526Y-132526684D01*
X163247594Y-132448100D01*
X163650406Y-132448100D01*
X164045474Y-132526684D01*
X164045474Y-132526684D01*
G37*
G36*
X111649104Y-133602585D02*
G01*
X111817626Y-133672389D01*
X111969291Y-133773728D01*
X112098272Y-133902709D01*
X112199611Y-134054374D01*
X112269415Y-134222896D01*
X112305000Y-134401797D01*
X112305000Y-134584203D01*
X112269415Y-134763104D01*
X112199611Y-134931626D01*
X112098272Y-135083291D01*
X111969291Y-135212272D01*
X111817626Y-135313611D01*
X111649104Y-135383415D01*
X111470203Y-135419000D01*
X111287797Y-135419000D01*
X111108896Y-135383415D01*
X110940374Y-135313611D01*
X110788709Y-135212272D01*
X110659728Y-135083291D01*
X110558389Y-134931626D01*
X110488585Y-134763104D01*
X110453000Y-134584203D01*
X110453000Y-134401797D01*
X110488585Y-134222896D01*
X110558389Y-134054374D01*
X110659728Y-133902709D01*
X110788709Y-133773728D01*
X110940374Y-133672389D01*
X111108896Y-133602585D01*
X111287797Y-133567000D01*
X111470203Y-133567000D01*
X111649104Y-133602585D01*
X111649104Y-133602585D01*
G37*
G36*
X101489104Y-133602585D02*
G01*
X101657626Y-133672389D01*
X101809291Y-133773728D01*
X101938272Y-133902709D01*
X102039611Y-134054374D01*
X102109415Y-134222896D01*
X102145000Y-134401797D01*
X102145000Y-134584203D01*
X102109415Y-134763104D01*
X102039611Y-134931626D01*
X101938272Y-135083291D01*
X101809291Y-135212272D01*
X101657626Y-135313611D01*
X101489104Y-135383415D01*
X101310203Y-135419000D01*
X101127797Y-135419000D01*
X100948896Y-135383415D01*
X100780374Y-135313611D01*
X100628709Y-135212272D01*
X100499728Y-135083291D01*
X100398389Y-134931626D01*
X100328585Y-134763104D01*
X100293000Y-134584203D01*
X100293000Y-134401797D01*
X100328585Y-134222896D01*
X100398389Y-134054374D01*
X100499728Y-133902709D01*
X100628709Y-133773728D01*
X100780374Y-133672389D01*
X100948896Y-133602585D01*
X101127797Y-133567000D01*
X101310203Y-133567000D01*
X101489104Y-133602585D01*
X101489104Y-133602585D01*
G37*
G36*
X168799104Y-133602585D02*
G01*
X168967626Y-133672389D01*
X169119291Y-133773728D01*
X169248272Y-133902709D01*
X169349611Y-134054374D01*
X169419415Y-134222896D01*
X169455000Y-134401797D01*
X169455000Y-134584203D01*
X169419415Y-134763104D01*
X169349611Y-134931626D01*
X169248272Y-135083291D01*
X169119291Y-135212272D01*
X168967626Y-135313611D01*
X168799104Y-135383415D01*
X168620203Y-135419000D01*
X168437797Y-135419000D01*
X168258896Y-135383415D01*
X168090374Y-135313611D01*
X167938709Y-135212272D01*
X167809728Y-135083291D01*
X167708389Y-134931626D01*
X167638585Y-134763104D01*
X167603000Y-134584203D01*
X167603000Y-134401797D01*
X167638585Y-134222896D01*
X167708389Y-134054374D01*
X167809728Y-133902709D01*
X167938709Y-133773728D01*
X168090374Y-133672389D01*
X168258896Y-133602585D01*
X168437797Y-133567000D01*
X168620203Y-133567000D01*
X168799104Y-133602585D01*
X168799104Y-133602585D01*
G37*
G36*
X120539104Y-133602585D02*
G01*
X120707626Y-133672389D01*
X120859291Y-133773728D01*
X120988272Y-133902709D01*
X121089611Y-134054374D01*
X121159415Y-134222896D01*
X121195000Y-134401797D01*
X121195000Y-134584203D01*
X121159415Y-134763104D01*
X121089611Y-134931626D01*
X120988272Y-135083291D01*
X120859291Y-135212272D01*
X120707626Y-135313611D01*
X120539104Y-135383415D01*
X120360203Y-135419000D01*
X120177797Y-135419000D01*
X119998896Y-135383415D01*
X119830374Y-135313611D01*
X119678709Y-135212272D01*
X119549728Y-135083291D01*
X119448389Y-134931626D01*
X119378585Y-134763104D01*
X119343000Y-134584203D01*
X119343000Y-134401797D01*
X119378585Y-134222896D01*
X119448389Y-134054374D01*
X119549728Y-133902709D01*
X119678709Y-133773728D01*
X119830374Y-133672389D01*
X119998896Y-133602585D01*
X120177797Y-133567000D01*
X120360203Y-133567000D01*
X120539104Y-133602585D01*
X120539104Y-133602585D01*
G37*
G36*
X130699104Y-133602585D02*
G01*
X130867626Y-133672389D01*
X131019291Y-133773728D01*
X131148272Y-133902709D01*
X131249611Y-134054374D01*
X131319415Y-134222896D01*
X131355000Y-134401797D01*
X131355000Y-134584203D01*
X131319415Y-134763104D01*
X131249611Y-134931626D01*
X131148272Y-135083291D01*
X131019291Y-135212272D01*
X130867626Y-135313611D01*
X130699104Y-135383415D01*
X130520203Y-135419000D01*
X130337797Y-135419000D01*
X130158896Y-135383415D01*
X129990374Y-135313611D01*
X129838709Y-135212272D01*
X129709728Y-135083291D01*
X129608389Y-134931626D01*
X129538585Y-134763104D01*
X129503000Y-134584203D01*
X129503000Y-134401797D01*
X129538585Y-134222896D01*
X129608389Y-134054374D01*
X129709728Y-133902709D01*
X129838709Y-133773728D01*
X129990374Y-133672389D01*
X130158896Y-133602585D01*
X130337797Y-133567000D01*
X130520203Y-133567000D01*
X130699104Y-133602585D01*
X130699104Y-133602585D01*
G37*
G36*
X158639104Y-133602585D02*
G01*
X158807626Y-133672389D01*
X158959291Y-133773728D01*
X159088272Y-133902709D01*
X159189611Y-134054374D01*
X159259415Y-134222896D01*
X159295000Y-134401797D01*
X159295000Y-134584203D01*
X159259415Y-134763104D01*
X159189611Y-134931626D01*
X159088272Y-135083291D01*
X158959291Y-135212272D01*
X158807626Y-135313611D01*
X158639104Y-135383415D01*
X158460203Y-135419000D01*
X158277797Y-135419000D01*
X158098896Y-135383415D01*
X157930374Y-135313611D01*
X157778709Y-135212272D01*
X157649728Y-135083291D01*
X157548389Y-134931626D01*
X157478585Y-134763104D01*
X157443000Y-134584203D01*
X157443000Y-134401797D01*
X157478585Y-134222896D01*
X157548389Y-134054374D01*
X157649728Y-133902709D01*
X157778709Y-133773728D01*
X157930374Y-133672389D01*
X158098896Y-133602585D01*
X158277797Y-133567000D01*
X158460203Y-133567000D01*
X158639104Y-133602585D01*
X158639104Y-133602585D01*
G37*
G36*
X139589104Y-133602585D02*
G01*
X139757626Y-133672389D01*
X139909291Y-133773728D01*
X140038272Y-133902709D01*
X140139611Y-134054374D01*
X140209415Y-134222896D01*
X140245000Y-134401797D01*
X140245000Y-134584203D01*
X140209415Y-134763104D01*
X140139611Y-134931626D01*
X140038272Y-135083291D01*
X139909291Y-135212272D01*
X139757626Y-135313611D01*
X139589104Y-135383415D01*
X139410203Y-135419000D01*
X139227797Y-135419000D01*
X139048896Y-135383415D01*
X138880374Y-135313611D01*
X138728709Y-135212272D01*
X138599728Y-135083291D01*
X138498389Y-134931626D01*
X138428585Y-134763104D01*
X138393000Y-134584203D01*
X138393000Y-134401797D01*
X138428585Y-134222896D01*
X138498389Y-134054374D01*
X138599728Y-133902709D01*
X138728709Y-133773728D01*
X138880374Y-133672389D01*
X139048896Y-133602585D01*
X139227797Y-133567000D01*
X139410203Y-133567000D01*
X139589104Y-133602585D01*
X139589104Y-133602585D01*
G37*
G36*
X149749104Y-133602585D02*
G01*
X149917626Y-133672389D01*
X150069291Y-133773728D01*
X150198272Y-133902709D01*
X150299611Y-134054374D01*
X150369415Y-134222896D01*
X150405000Y-134401797D01*
X150405000Y-134584203D01*
X150369415Y-134763104D01*
X150299611Y-134931626D01*
X150198272Y-135083291D01*
X150069291Y-135212272D01*
X149917626Y-135313611D01*
X149749104Y-135383415D01*
X149570203Y-135419000D01*
X149387797Y-135419000D01*
X149208896Y-135383415D01*
X149040374Y-135313611D01*
X148888709Y-135212272D01*
X148759728Y-135083291D01*
X148658389Y-134931626D01*
X148588585Y-134763104D01*
X148553000Y-134584203D01*
X148553000Y-134401797D01*
X148588585Y-134222896D01*
X148658389Y-134054374D01*
X148759728Y-133902709D01*
X148888709Y-133773728D01*
X149040374Y-133672389D01*
X149208896Y-133602585D01*
X149387797Y-133567000D01*
X149570203Y-133567000D01*
X149749104Y-133602585D01*
X149749104Y-133602585D01*
G37*
G36*
X125945474Y-113476684D02*
G01*
X126163474Y-113566983D01*
X126317623Y-113630833D01*
X126652548Y-113854623D01*
X126937377Y-114139452D01*
X127161167Y-114474377D01*
X127193562Y-114552586D01*
X127315316Y-114846526D01*
X127393900Y-115241594D01*
X127393900Y-115644406D01*
X127315316Y-116039474D01*
X127264451Y-116162272D01*
X127161167Y-116411623D01*
X126937377Y-116746548D01*
X126652548Y-117031377D01*
X126317623Y-117255167D01*
X126163474Y-117319017D01*
X125945474Y-117409316D01*
X125550406Y-117487900D01*
X125147594Y-117487900D01*
X124752526Y-117409316D01*
X124534526Y-117319017D01*
X124380377Y-117255167D01*
X124045452Y-117031377D01*
X123760623Y-116746548D01*
X123536833Y-116411623D01*
X123433549Y-116162272D01*
X123382684Y-116039474D01*
X123304100Y-115644406D01*
X123304100Y-115241594D01*
X123382684Y-114846526D01*
X123504438Y-114552586D01*
X123536833Y-114474377D01*
X123760623Y-114139452D01*
X124045452Y-113854623D01*
X124380377Y-113630833D01*
X124534526Y-113566983D01*
X124752526Y-113476684D01*
X125147594Y-113398100D01*
X125550406Y-113398100D01*
X125945474Y-113476684D01*
X125945474Y-113476684D01*
G37*
G36*
X106895474Y-113476684D02*
G01*
X107113474Y-113566983D01*
X107267623Y-113630833D01*
X107602548Y-113854623D01*
X107887377Y-114139452D01*
X108111167Y-114474377D01*
X108143562Y-114552586D01*
X108265316Y-114846526D01*
X108343900Y-115241594D01*
X108343900Y-115644406D01*
X108265316Y-116039474D01*
X108214451Y-116162272D01*
X108111167Y-116411623D01*
X107887377Y-116746548D01*
X107602548Y-117031377D01*
X107267623Y-117255167D01*
X107113474Y-117319017D01*
X106895474Y-117409316D01*
X106500406Y-117487900D01*
X106097594Y-117487900D01*
X105702526Y-117409316D01*
X105484526Y-117319017D01*
X105330377Y-117255167D01*
X104995452Y-117031377D01*
X104710623Y-116746548D01*
X104486833Y-116411623D01*
X104383549Y-116162272D01*
X104332684Y-116039474D01*
X104254100Y-115644406D01*
X104254100Y-115241594D01*
X104332684Y-114846526D01*
X104454438Y-114552586D01*
X104486833Y-114474377D01*
X104710623Y-114139452D01*
X104995452Y-113854623D01*
X105330377Y-113630833D01*
X105484526Y-113566983D01*
X105702526Y-113476684D01*
X106097594Y-113398100D01*
X106500406Y-113398100D01*
X106895474Y-113476684D01*
X106895474Y-113476684D01*
G37*
G36*
X164045474Y-113476684D02*
G01*
X164263474Y-113566983D01*
X164417623Y-113630833D01*
X164752548Y-113854623D01*
X165037377Y-114139452D01*
X165261167Y-114474377D01*
X165293562Y-114552586D01*
X165415316Y-114846526D01*
X165493900Y-115241594D01*
X165493900Y-115644406D01*
X165415316Y-116039474D01*
X165364451Y-116162272D01*
X165261167Y-116411623D01*
X165037377Y-116746548D01*
X164752548Y-117031377D01*
X164417623Y-117255167D01*
X164263474Y-117319017D01*
X164045474Y-117409316D01*
X163650406Y-117487900D01*
X163247594Y-117487900D01*
X162852526Y-117409316D01*
X162634526Y-117319017D01*
X162480377Y-117255167D01*
X162145452Y-117031377D01*
X161860623Y-116746548D01*
X161636833Y-116411623D01*
X161533549Y-116162272D01*
X161482684Y-116039474D01*
X161404100Y-115644406D01*
X161404100Y-115241594D01*
X161482684Y-114846526D01*
X161604438Y-114552586D01*
X161636833Y-114474377D01*
X161860623Y-114139452D01*
X162145452Y-113854623D01*
X162480377Y-113630833D01*
X162634526Y-113566983D01*
X162852526Y-113476684D01*
X163247594Y-113398100D01*
X163650406Y-113398100D01*
X164045474Y-113476684D01*
X164045474Y-113476684D01*
G37*
G36*
X144995474Y-113476684D02*
G01*
X145213474Y-113566983D01*
X145367623Y-113630833D01*
X145702548Y-113854623D01*
X145987377Y-114139452D01*
X146211167Y-114474377D01*
X146243562Y-114552586D01*
X146365316Y-114846526D01*
X146443900Y-115241594D01*
X146443900Y-115644406D01*
X146365316Y-116039474D01*
X146314451Y-116162272D01*
X146211167Y-116411623D01*
X145987377Y-116746548D01*
X145702548Y-117031377D01*
X145367623Y-117255167D01*
X145213474Y-117319017D01*
X144995474Y-117409316D01*
X144600406Y-117487900D01*
X144197594Y-117487900D01*
X143802526Y-117409316D01*
X143584526Y-117319017D01*
X143430377Y-117255167D01*
X143095452Y-117031377D01*
X142810623Y-116746548D01*
X142586833Y-116411623D01*
X142483549Y-116162272D01*
X142432684Y-116039474D01*
X142354100Y-115644406D01*
X142354100Y-115241594D01*
X142432684Y-114846526D01*
X142554438Y-114552586D01*
X142586833Y-114474377D01*
X142810623Y-114139452D01*
X143095452Y-113854623D01*
X143430377Y-113630833D01*
X143584526Y-113566983D01*
X143802526Y-113476684D01*
X144197594Y-113398100D01*
X144600406Y-113398100D01*
X144995474Y-113476684D01*
X144995474Y-113476684D01*
G37*
G36*
X139589104Y-114552585D02*
G01*
X139757626Y-114622389D01*
X139909291Y-114723728D01*
X140038272Y-114852709D01*
X140139611Y-115004374D01*
X140209415Y-115172896D01*
X140245000Y-115351797D01*
X140245000Y-115534203D01*
X140209415Y-115713104D01*
X140139611Y-115881626D01*
X140038272Y-116033291D01*
X139909291Y-116162272D01*
X139757626Y-116263611D01*
X139589104Y-116333415D01*
X139410203Y-116369000D01*
X139227797Y-116369000D01*
X139048896Y-116333415D01*
X138880374Y-116263611D01*
X138728709Y-116162272D01*
X138599728Y-116033291D01*
X138498389Y-115881626D01*
X138428585Y-115713104D01*
X138393000Y-115534203D01*
X138393000Y-115351797D01*
X138428585Y-115172896D01*
X138498389Y-115004374D01*
X138599728Y-114852709D01*
X138728709Y-114723728D01*
X138880374Y-114622389D01*
X139048896Y-114552585D01*
X139227797Y-114517000D01*
X139410203Y-114517000D01*
X139589104Y-114552585D01*
X139589104Y-114552585D01*
G37*
G36*
X149749104Y-114552585D02*
G01*
X149917626Y-114622389D01*
X150069291Y-114723728D01*
X150198272Y-114852709D01*
X150299611Y-115004374D01*
X150369415Y-115172896D01*
X150405000Y-115351797D01*
X150405000Y-115534203D01*
X150369415Y-115713104D01*
X150299611Y-115881626D01*
X150198272Y-116033291D01*
X150069291Y-116162272D01*
X149917626Y-116263611D01*
X149749104Y-116333415D01*
X149570203Y-116369000D01*
X149387797Y-116369000D01*
X149208896Y-116333415D01*
X149040374Y-116263611D01*
X148888709Y-116162272D01*
X148759728Y-116033291D01*
X148658389Y-115881626D01*
X148588585Y-115713104D01*
X148553000Y-115534203D01*
X148553000Y-115351797D01*
X148588585Y-115172896D01*
X148658389Y-115004374D01*
X148759728Y-114852709D01*
X148888709Y-114723728D01*
X149040374Y-114622389D01*
X149208896Y-114552585D01*
X149387797Y-114517000D01*
X149570203Y-114517000D01*
X149749104Y-114552585D01*
X149749104Y-114552585D01*
G37*
G36*
X130699104Y-114552585D02*
G01*
X130867626Y-114622389D01*
X131019291Y-114723728D01*
X131148272Y-114852709D01*
X131249611Y-115004374D01*
X131319415Y-115172896D01*
X131355000Y-115351797D01*
X131355000Y-115534203D01*
X131319415Y-115713104D01*
X131249611Y-115881626D01*
X131148272Y-116033291D01*
X131019291Y-116162272D01*
X130867626Y-116263611D01*
X130699104Y-116333415D01*
X130520203Y-116369000D01*
X130337797Y-116369000D01*
X130158896Y-116333415D01*
X129990374Y-116263611D01*
X129838709Y-116162272D01*
X129709728Y-116033291D01*
X129608389Y-115881626D01*
X129538585Y-115713104D01*
X129503000Y-115534203D01*
X129503000Y-115351797D01*
X129538585Y-115172896D01*
X129608389Y-115004374D01*
X129709728Y-114852709D01*
X129838709Y-114723728D01*
X129990374Y-114622389D01*
X130158896Y-114552585D01*
X130337797Y-114517000D01*
X130520203Y-114517000D01*
X130699104Y-114552585D01*
X130699104Y-114552585D01*
G37*
G36*
X168799104Y-114552585D02*
G01*
X168967626Y-114622389D01*
X169119291Y-114723728D01*
X169248272Y-114852709D01*
X169349611Y-115004374D01*
X169419415Y-115172896D01*
X169455000Y-115351797D01*
X169455000Y-115534203D01*
X169419415Y-115713104D01*
X169349611Y-115881626D01*
X169248272Y-116033291D01*
X169119291Y-116162272D01*
X168967626Y-116263611D01*
X168799104Y-116333415D01*
X168620203Y-116369000D01*
X168437797Y-116369000D01*
X168258896Y-116333415D01*
X168090374Y-116263611D01*
X167938709Y-116162272D01*
X167809728Y-116033291D01*
X167708389Y-115881626D01*
X167638585Y-115713104D01*
X167603000Y-115534203D01*
X167603000Y-115351797D01*
X167638585Y-115172896D01*
X167708389Y-115004374D01*
X167809728Y-114852709D01*
X167938709Y-114723728D01*
X168090374Y-114622389D01*
X168258896Y-114552585D01*
X168437797Y-114517000D01*
X168620203Y-114517000D01*
X168799104Y-114552585D01*
X168799104Y-114552585D01*
G37*
G36*
X120539104Y-114552585D02*
G01*
X120707626Y-114622389D01*
X120859291Y-114723728D01*
X120988272Y-114852709D01*
X121089611Y-115004374D01*
X121159415Y-115172896D01*
X121195000Y-115351797D01*
X121195000Y-115534203D01*
X121159415Y-115713104D01*
X121089611Y-115881626D01*
X120988272Y-116033291D01*
X120859291Y-116162272D01*
X120707626Y-116263611D01*
X120539104Y-116333415D01*
X120360203Y-116369000D01*
X120177797Y-116369000D01*
X119998896Y-116333415D01*
X119830374Y-116263611D01*
X119678709Y-116162272D01*
X119549728Y-116033291D01*
X119448389Y-115881626D01*
X119378585Y-115713104D01*
X119343000Y-115534203D01*
X119343000Y-115351797D01*
X119378585Y-115172896D01*
X119448389Y-115004374D01*
X119549728Y-114852709D01*
X119678709Y-114723728D01*
X119830374Y-114622389D01*
X119998896Y-114552585D01*
X120177797Y-114517000D01*
X120360203Y-114517000D01*
X120539104Y-114552585D01*
X120539104Y-114552585D01*
G37*
G36*
X111649104Y-114552585D02*
G01*
X111817626Y-114622389D01*
X111969291Y-114723728D01*
X112098272Y-114852709D01*
X112199611Y-115004374D01*
X112269415Y-115172896D01*
X112305000Y-115351797D01*
X112305000Y-115534203D01*
X112269415Y-115713104D01*
X112199611Y-115881626D01*
X112098272Y-116033291D01*
X111969291Y-116162272D01*
X111817626Y-116263611D01*
X111649104Y-116333415D01*
X111470203Y-116369000D01*
X111287797Y-116369000D01*
X111108896Y-116333415D01*
X110940374Y-116263611D01*
X110788709Y-116162272D01*
X110659728Y-116033291D01*
X110558389Y-115881626D01*
X110488585Y-115713104D01*
X110453000Y-115534203D01*
X110453000Y-115351797D01*
X110488585Y-115172896D01*
X110558389Y-115004374D01*
X110659728Y-114852709D01*
X110788709Y-114723728D01*
X110940374Y-114622389D01*
X111108896Y-114552585D01*
X111287797Y-114517000D01*
X111470203Y-114517000D01*
X111649104Y-114552585D01*
X111649104Y-114552585D01*
G37*
G36*
X158639104Y-114552585D02*
G01*
X158807626Y-114622389D01*
X158959291Y-114723728D01*
X159088272Y-114852709D01*
X159189611Y-115004374D01*
X159259415Y-115172896D01*
X159295000Y-115351797D01*
X159295000Y-115534203D01*
X159259415Y-115713104D01*
X159189611Y-115881626D01*
X159088272Y-116033291D01*
X158959291Y-116162272D01*
X158807626Y-116263611D01*
X158639104Y-116333415D01*
X158460203Y-116369000D01*
X158277797Y-116369000D01*
X158098896Y-116333415D01*
X157930374Y-116263611D01*
X157778709Y-116162272D01*
X157649728Y-116033291D01*
X157548389Y-115881626D01*
X157478585Y-115713104D01*
X157443000Y-115534203D01*
X157443000Y-115351797D01*
X157478585Y-115172896D01*
X157548389Y-115004374D01*
X157649728Y-114852709D01*
X157778709Y-114723728D01*
X157930374Y-114622389D01*
X158098896Y-114552585D01*
X158277797Y-114517000D01*
X158460203Y-114517000D01*
X158639104Y-114552585D01*
X158639104Y-114552585D01*
G37*
G36*
X101489104Y-114552585D02*
G01*
X101657626Y-114622389D01*
X101809291Y-114723728D01*
X101938272Y-114852709D01*
X102039611Y-115004374D01*
X102109415Y-115172896D01*
X102145000Y-115351797D01*
X102145000Y-115534203D01*
X102109415Y-115713104D01*
X102039611Y-115881626D01*
X101938272Y-116033291D01*
X101809291Y-116162272D01*
X101657626Y-116263611D01*
X101489104Y-116333415D01*
X101310203Y-116369000D01*
X101127797Y-116369000D01*
X100948896Y-116333415D01*
X100780374Y-116263611D01*
X100628709Y-116162272D01*
X100499728Y-116033291D01*
X100398389Y-115881626D01*
X100328585Y-115713104D01*
X100293000Y-115534203D01*
X100293000Y-115351797D01*
X100328585Y-115172896D01*
X100398389Y-115004374D01*
X100499728Y-114852709D01*
X100628709Y-114723728D01*
X100780374Y-114622389D01*
X100948896Y-114552585D01*
X101127797Y-114517000D01*
X101310203Y-114517000D01*
X101489104Y-114552585D01*
X101489104Y-114552585D01*
G37*
G36*
X144995474Y-94426684D02*
G01*
X145213474Y-94516983D01*
X145367623Y-94580833D01*
X145702548Y-94804623D01*
X145987377Y-95089452D01*
X146211167Y-95424377D01*
X146243562Y-95502586D01*
X146365316Y-95796526D01*
X146443900Y-96191594D01*
X146443900Y-96594406D01*
X146365316Y-96989474D01*
X146314451Y-97112272D01*
X146211167Y-97361623D01*
X145987377Y-97696548D01*
X145702548Y-97981377D01*
X145367623Y-98205167D01*
X145213474Y-98269017D01*
X144995474Y-98359316D01*
X144600406Y-98437900D01*
X144197594Y-98437900D01*
X143802526Y-98359316D01*
X143584526Y-98269017D01*
X143430377Y-98205167D01*
X143095452Y-97981377D01*
X142810623Y-97696548D01*
X142586833Y-97361623D01*
X142483549Y-97112272D01*
X142432684Y-96989474D01*
X142354100Y-96594406D01*
X142354100Y-96191594D01*
X142432684Y-95796526D01*
X142554438Y-95502586D01*
X142586833Y-95424377D01*
X142810623Y-95089452D01*
X143095452Y-94804623D01*
X143430377Y-94580833D01*
X143584526Y-94516983D01*
X143802526Y-94426684D01*
X144197594Y-94348100D01*
X144600406Y-94348100D01*
X144995474Y-94426684D01*
X144995474Y-94426684D01*
G37*
G36*
X125945474Y-94426684D02*
G01*
X126163474Y-94516983D01*
X126317623Y-94580833D01*
X126652548Y-94804623D01*
X126937377Y-95089452D01*
X127161167Y-95424377D01*
X127193562Y-95502586D01*
X127315316Y-95796526D01*
X127393900Y-96191594D01*
X127393900Y-96594406D01*
X127315316Y-96989474D01*
X127264451Y-97112272D01*
X127161167Y-97361623D01*
X126937377Y-97696548D01*
X126652548Y-97981377D01*
X126317623Y-98205167D01*
X126163474Y-98269017D01*
X125945474Y-98359316D01*
X125550406Y-98437900D01*
X125147594Y-98437900D01*
X124752526Y-98359316D01*
X124534526Y-98269017D01*
X124380377Y-98205167D01*
X124045452Y-97981377D01*
X123760623Y-97696548D01*
X123536833Y-97361623D01*
X123433549Y-97112272D01*
X123382684Y-96989474D01*
X123304100Y-96594406D01*
X123304100Y-96191594D01*
X123382684Y-95796526D01*
X123504438Y-95502586D01*
X123536833Y-95424377D01*
X123760623Y-95089452D01*
X124045452Y-94804623D01*
X124380377Y-94580833D01*
X124534526Y-94516983D01*
X124752526Y-94426684D01*
X125147594Y-94348100D01*
X125550406Y-94348100D01*
X125945474Y-94426684D01*
X125945474Y-94426684D01*
G37*
G36*
X106895474Y-94426684D02*
G01*
X107113474Y-94516983D01*
X107267623Y-94580833D01*
X107602548Y-94804623D01*
X107887377Y-95089452D01*
X108111167Y-95424377D01*
X108143562Y-95502586D01*
X108265316Y-95796526D01*
X108343900Y-96191594D01*
X108343900Y-96594406D01*
X108265316Y-96989474D01*
X108214451Y-97112272D01*
X108111167Y-97361623D01*
X107887377Y-97696548D01*
X107602548Y-97981377D01*
X107267623Y-98205167D01*
X107113474Y-98269017D01*
X106895474Y-98359316D01*
X106500406Y-98437900D01*
X106097594Y-98437900D01*
X105702526Y-98359316D01*
X105484526Y-98269017D01*
X105330377Y-98205167D01*
X104995452Y-97981377D01*
X104710623Y-97696548D01*
X104486833Y-97361623D01*
X104383549Y-97112272D01*
X104332684Y-96989474D01*
X104254100Y-96594406D01*
X104254100Y-96191594D01*
X104332684Y-95796526D01*
X104454438Y-95502586D01*
X104486833Y-95424377D01*
X104710623Y-95089452D01*
X104995452Y-94804623D01*
X105330377Y-94580833D01*
X105484526Y-94516983D01*
X105702526Y-94426684D01*
X106097594Y-94348100D01*
X106500406Y-94348100D01*
X106895474Y-94426684D01*
X106895474Y-94426684D01*
G37*
G36*
X164045474Y-94426684D02*
G01*
X164263474Y-94516983D01*
X164417623Y-94580833D01*
X164752548Y-94804623D01*
X165037377Y-95089452D01*
X165261167Y-95424377D01*
X165293562Y-95502586D01*
X165415316Y-95796526D01*
X165493900Y-96191594D01*
X165493900Y-96594406D01*
X165415316Y-96989474D01*
X165364451Y-97112272D01*
X165261167Y-97361623D01*
X165037377Y-97696548D01*
X164752548Y-97981377D01*
X164417623Y-98205167D01*
X164263474Y-98269017D01*
X164045474Y-98359316D01*
X163650406Y-98437900D01*
X163247594Y-98437900D01*
X162852526Y-98359316D01*
X162634526Y-98269017D01*
X162480377Y-98205167D01*
X162145452Y-97981377D01*
X161860623Y-97696548D01*
X161636833Y-97361623D01*
X161533549Y-97112272D01*
X161482684Y-96989474D01*
X161404100Y-96594406D01*
X161404100Y-96191594D01*
X161482684Y-95796526D01*
X161604438Y-95502586D01*
X161636833Y-95424377D01*
X161860623Y-95089452D01*
X162145452Y-94804623D01*
X162480377Y-94580833D01*
X162634526Y-94516983D01*
X162852526Y-94426684D01*
X163247594Y-94348100D01*
X163650406Y-94348100D01*
X164045474Y-94426684D01*
X164045474Y-94426684D01*
G37*
G36*
X168799104Y-95502585D02*
G01*
X168967626Y-95572389D01*
X169119291Y-95673728D01*
X169248272Y-95802709D01*
X169349611Y-95954374D01*
X169419415Y-96122896D01*
X169455000Y-96301797D01*
X169455000Y-96484203D01*
X169419415Y-96663104D01*
X169349611Y-96831626D01*
X169248272Y-96983291D01*
X169119291Y-97112272D01*
X168967626Y-97213611D01*
X168799104Y-97283415D01*
X168620203Y-97319000D01*
X168437797Y-97319000D01*
X168258896Y-97283415D01*
X168090374Y-97213611D01*
X167938709Y-97112272D01*
X167809728Y-96983291D01*
X167708389Y-96831626D01*
X167638585Y-96663104D01*
X167603000Y-96484203D01*
X167603000Y-96301797D01*
X167638585Y-96122896D01*
X167708389Y-95954374D01*
X167809728Y-95802709D01*
X167938709Y-95673728D01*
X168090374Y-95572389D01*
X168258896Y-95502585D01*
X168437797Y-95467000D01*
X168620203Y-95467000D01*
X168799104Y-95502585D01*
X168799104Y-95502585D01*
G37*
G36*
X101489104Y-95502585D02*
G01*
X101657626Y-95572389D01*
X101809291Y-95673728D01*
X101938272Y-95802709D01*
X102039611Y-95954374D01*
X102109415Y-96122896D01*
X102145000Y-96301797D01*
X102145000Y-96484203D01*
X102109415Y-96663104D01*
X102039611Y-96831626D01*
X101938272Y-96983291D01*
X101809291Y-97112272D01*
X101657626Y-97213611D01*
X101489104Y-97283415D01*
X101310203Y-97319000D01*
X101127797Y-97319000D01*
X100948896Y-97283415D01*
X100780374Y-97213611D01*
X100628709Y-97112272D01*
X100499728Y-96983291D01*
X100398389Y-96831626D01*
X100328585Y-96663104D01*
X100293000Y-96484203D01*
X100293000Y-96301797D01*
X100328585Y-96122896D01*
X100398389Y-95954374D01*
X100499728Y-95802709D01*
X100628709Y-95673728D01*
X100780374Y-95572389D01*
X100948896Y-95502585D01*
X101127797Y-95467000D01*
X101310203Y-95467000D01*
X101489104Y-95502585D01*
X101489104Y-95502585D01*
G37*
G36*
X111649104Y-95502585D02*
G01*
X111817626Y-95572389D01*
X111969291Y-95673728D01*
X112098272Y-95802709D01*
X112199611Y-95954374D01*
X112269415Y-96122896D01*
X112305000Y-96301797D01*
X112305000Y-96484203D01*
X112269415Y-96663104D01*
X112199611Y-96831626D01*
X112098272Y-96983291D01*
X111969291Y-97112272D01*
X111817626Y-97213611D01*
X111649104Y-97283415D01*
X111470203Y-97319000D01*
X111287797Y-97319000D01*
X111108896Y-97283415D01*
X110940374Y-97213611D01*
X110788709Y-97112272D01*
X110659728Y-96983291D01*
X110558389Y-96831626D01*
X110488585Y-96663104D01*
X110453000Y-96484203D01*
X110453000Y-96301797D01*
X110488585Y-96122896D01*
X110558389Y-95954374D01*
X110659728Y-95802709D01*
X110788709Y-95673728D01*
X110940374Y-95572389D01*
X111108896Y-95502585D01*
X111287797Y-95467000D01*
X111470203Y-95467000D01*
X111649104Y-95502585D01*
X111649104Y-95502585D01*
G37*
G36*
X120539104Y-95502585D02*
G01*
X120707626Y-95572389D01*
X120859291Y-95673728D01*
X120988272Y-95802709D01*
X121089611Y-95954374D01*
X121159415Y-96122896D01*
X121195000Y-96301797D01*
X121195000Y-96484203D01*
X121159415Y-96663104D01*
X121089611Y-96831626D01*
X120988272Y-96983291D01*
X120859291Y-97112272D01*
X120707626Y-97213611D01*
X120539104Y-97283415D01*
X120360203Y-97319000D01*
X120177797Y-97319000D01*
X119998896Y-97283415D01*
X119830374Y-97213611D01*
X119678709Y-97112272D01*
X119549728Y-96983291D01*
X119448389Y-96831626D01*
X119378585Y-96663104D01*
X119343000Y-96484203D01*
X119343000Y-96301797D01*
X119378585Y-96122896D01*
X119448389Y-95954374D01*
X119549728Y-95802709D01*
X119678709Y-95673728D01*
X119830374Y-95572389D01*
X119998896Y-95502585D01*
X120177797Y-95467000D01*
X120360203Y-95467000D01*
X120539104Y-95502585D01*
X120539104Y-95502585D01*
G37*
G36*
X130699104Y-95502585D02*
G01*
X130867626Y-95572389D01*
X131019291Y-95673728D01*
X131148272Y-95802709D01*
X131249611Y-95954374D01*
X131319415Y-96122896D01*
X131355000Y-96301797D01*
X131355000Y-96484203D01*
X131319415Y-96663104D01*
X131249611Y-96831626D01*
X131148272Y-96983291D01*
X131019291Y-97112272D01*
X130867626Y-97213611D01*
X130699104Y-97283415D01*
X130520203Y-97319000D01*
X130337797Y-97319000D01*
X130158896Y-97283415D01*
X129990374Y-97213611D01*
X129838709Y-97112272D01*
X129709728Y-96983291D01*
X129608389Y-96831626D01*
X129538585Y-96663104D01*
X129503000Y-96484203D01*
X129503000Y-96301797D01*
X129538585Y-96122896D01*
X129608389Y-95954374D01*
X129709728Y-95802709D01*
X129838709Y-95673728D01*
X129990374Y-95572389D01*
X130158896Y-95502585D01*
X130337797Y-95467000D01*
X130520203Y-95467000D01*
X130699104Y-95502585D01*
X130699104Y-95502585D01*
G37*
G36*
X139589104Y-95502585D02*
G01*
X139757626Y-95572389D01*
X139909291Y-95673728D01*
X140038272Y-95802709D01*
X140139611Y-95954374D01*
X140209415Y-96122896D01*
X140245000Y-96301797D01*
X140245000Y-96484203D01*
X140209415Y-96663104D01*
X140139611Y-96831626D01*
X140038272Y-96983291D01*
X139909291Y-97112272D01*
X139757626Y-97213611D01*
X139589104Y-97283415D01*
X139410203Y-97319000D01*
X139227797Y-97319000D01*
X139048896Y-97283415D01*
X138880374Y-97213611D01*
X138728709Y-97112272D01*
X138599728Y-96983291D01*
X138498389Y-96831626D01*
X138428585Y-96663104D01*
X138393000Y-96484203D01*
X138393000Y-96301797D01*
X138428585Y-96122896D01*
X138498389Y-95954374D01*
X138599728Y-95802709D01*
X138728709Y-95673728D01*
X138880374Y-95572389D01*
X139048896Y-95502585D01*
X139227797Y-95467000D01*
X139410203Y-95467000D01*
X139589104Y-95502585D01*
X139589104Y-95502585D01*
G37*
G36*
X149749104Y-95502585D02*
G01*
X149917626Y-95572389D01*
X150069291Y-95673728D01*
X150198272Y-95802709D01*
X150299611Y-95954374D01*
X150369415Y-96122896D01*
X150405000Y-96301797D01*
X150405000Y-96484203D01*
X150369415Y-96663104D01*
X150299611Y-96831626D01*
X150198272Y-96983291D01*
X150069291Y-97112272D01*
X149917626Y-97213611D01*
X149749104Y-97283415D01*
X149570203Y-97319000D01*
X149387797Y-97319000D01*
X149208896Y-97283415D01*
X149040374Y-97213611D01*
X148888709Y-97112272D01*
X148759728Y-96983291D01*
X148658389Y-96831626D01*
X148588585Y-96663104D01*
X148553000Y-96484203D01*
X148553000Y-96301797D01*
X148588585Y-96122896D01*
X148658389Y-95954374D01*
X148759728Y-95802709D01*
X148888709Y-95673728D01*
X149040374Y-95572389D01*
X149208896Y-95502585D01*
X149387797Y-95467000D01*
X149570203Y-95467000D01*
X149749104Y-95502585D01*
X149749104Y-95502585D01*
G37*
G36*
X158639104Y-95502585D02*
G01*
X158807626Y-95572389D01*
X158959291Y-95673728D01*
X159088272Y-95802709D01*
X159189611Y-95954374D01*
X159259415Y-96122896D01*
X159295000Y-96301797D01*
X159295000Y-96484203D01*
X159259415Y-96663104D01*
X159189611Y-96831626D01*
X159088272Y-96983291D01*
X158959291Y-97112272D01*
X158807626Y-97213611D01*
X158639104Y-97283415D01*
X158460203Y-97319000D01*
X158277797Y-97319000D01*
X158098896Y-97283415D01*
X157930374Y-97213611D01*
X157778709Y-97112272D01*
X157649728Y-96983291D01*
X157548389Y-96831626D01*
X157478585Y-96663104D01*
X157443000Y-96484203D01*
X157443000Y-96301797D01*
X157478585Y-96122896D01*
X157548389Y-95954374D01*
X157649728Y-95802709D01*
X157778709Y-95673728D01*
X157930374Y-95572389D01*
X158098896Y-95502585D01*
X158277797Y-95467000D01*
X158460203Y-95467000D01*
X158639104Y-95502585D01*
X158639104Y-95502585D01*
G37*
G36*
X135098549Y-91708116D02*
G01*
X135209734Y-91730232D01*
X135419203Y-91816997D01*
X135607720Y-91942960D01*
X135768040Y-92103280D01*
X135894003Y-92291797D01*
X135980768Y-92501266D01*
X136025000Y-92723636D01*
X136025000Y-92950364D01*
X135980768Y-93172734D01*
X135894003Y-93382203D01*
X135768040Y-93570720D01*
X135607720Y-93731040D01*
X135419203Y-93857003D01*
X135209734Y-93943768D01*
X135098549Y-93965884D01*
X134987365Y-93988000D01*
X134760635Y-93988000D01*
X134649451Y-93965884D01*
X134538266Y-93943768D01*
X134328797Y-93857003D01*
X134140280Y-93731040D01*
X133979960Y-93570720D01*
X133853997Y-93382203D01*
X133767232Y-93172734D01*
X133723000Y-92950364D01*
X133723000Y-92723636D01*
X133767232Y-92501266D01*
X133853997Y-92291797D01*
X133979960Y-92103280D01*
X134140280Y-91942960D01*
X134328797Y-91816997D01*
X134538266Y-91730232D01*
X134649451Y-91708116D01*
X134760635Y-91686000D01*
X134987365Y-91686000D01*
X135098549Y-91708116D01*
X135098549Y-91708116D01*
G37*
G36*
X164045474Y-75376684D02*
G01*
X164263474Y-75466983D01*
X164417623Y-75530833D01*
X164752548Y-75754623D01*
X165037377Y-76039452D01*
X165261167Y-76374377D01*
X165293562Y-76452586D01*
X165415316Y-76746526D01*
X165493900Y-77141594D01*
X165493900Y-77544406D01*
X165415316Y-77939474D01*
X165364451Y-78062272D01*
X165261167Y-78311623D01*
X165037377Y-78646548D01*
X164752548Y-78931377D01*
X164417623Y-79155167D01*
X164263474Y-79219017D01*
X164045474Y-79309316D01*
X163650406Y-79387900D01*
X163247594Y-79387900D01*
X162852526Y-79309316D01*
X162634526Y-79219017D01*
X162480377Y-79155167D01*
X162145452Y-78931377D01*
X161860623Y-78646548D01*
X161636833Y-78311623D01*
X161533549Y-78062272D01*
X161482684Y-77939474D01*
X161404100Y-77544406D01*
X161404100Y-77141594D01*
X161482684Y-76746526D01*
X161604438Y-76452586D01*
X161636833Y-76374377D01*
X161860623Y-76039452D01*
X162145452Y-75754623D01*
X162480377Y-75530833D01*
X162634526Y-75466983D01*
X162852526Y-75376684D01*
X163247594Y-75298100D01*
X163650406Y-75298100D01*
X164045474Y-75376684D01*
X164045474Y-75376684D01*
G37*
G36*
X144995474Y-75376684D02*
G01*
X145213474Y-75466983D01*
X145367623Y-75530833D01*
X145702548Y-75754623D01*
X145987377Y-76039452D01*
X146211167Y-76374377D01*
X146243562Y-76452586D01*
X146365316Y-76746526D01*
X146443900Y-77141594D01*
X146443900Y-77544406D01*
X146365316Y-77939474D01*
X146314451Y-78062272D01*
X146211167Y-78311623D01*
X145987377Y-78646548D01*
X145702548Y-78931377D01*
X145367623Y-79155167D01*
X145213474Y-79219017D01*
X144995474Y-79309316D01*
X144600406Y-79387900D01*
X144197594Y-79387900D01*
X143802526Y-79309316D01*
X143584526Y-79219017D01*
X143430377Y-79155167D01*
X143095452Y-78931377D01*
X142810623Y-78646548D01*
X142586833Y-78311623D01*
X142483549Y-78062272D01*
X142432684Y-77939474D01*
X142354100Y-77544406D01*
X142354100Y-77141594D01*
X142432684Y-76746526D01*
X142554438Y-76452586D01*
X142586833Y-76374377D01*
X142810623Y-76039452D01*
X143095452Y-75754623D01*
X143430377Y-75530833D01*
X143584526Y-75466983D01*
X143802526Y-75376684D01*
X144197594Y-75298100D01*
X144600406Y-75298100D01*
X144995474Y-75376684D01*
X144995474Y-75376684D01*
G37*
G36*
X125945474Y-75376684D02*
G01*
X126163474Y-75466983D01*
X126317623Y-75530833D01*
X126652548Y-75754623D01*
X126937377Y-76039452D01*
X127161167Y-76374377D01*
X127193562Y-76452586D01*
X127315316Y-76746526D01*
X127393900Y-77141594D01*
X127393900Y-77544406D01*
X127315316Y-77939474D01*
X127264451Y-78062272D01*
X127161167Y-78311623D01*
X126937377Y-78646548D01*
X126652548Y-78931377D01*
X126317623Y-79155167D01*
X126163474Y-79219017D01*
X125945474Y-79309316D01*
X125550406Y-79387900D01*
X125147594Y-79387900D01*
X124752526Y-79309316D01*
X124534526Y-79219017D01*
X124380377Y-79155167D01*
X124045452Y-78931377D01*
X123760623Y-78646548D01*
X123536833Y-78311623D01*
X123433549Y-78062272D01*
X123382684Y-77939474D01*
X123304100Y-77544406D01*
X123304100Y-77141594D01*
X123382684Y-76746526D01*
X123504438Y-76452586D01*
X123536833Y-76374377D01*
X123760623Y-76039452D01*
X124045452Y-75754623D01*
X124380377Y-75530833D01*
X124534526Y-75466983D01*
X124752526Y-75376684D01*
X125147594Y-75298100D01*
X125550406Y-75298100D01*
X125945474Y-75376684D01*
X125945474Y-75376684D01*
G37*
G36*
X106895474Y-75376684D02*
G01*
X107113474Y-75466983D01*
X107267623Y-75530833D01*
X107602548Y-75754623D01*
X107887377Y-76039452D01*
X108111167Y-76374377D01*
X108143562Y-76452586D01*
X108265316Y-76746526D01*
X108343900Y-77141594D01*
X108343900Y-77544406D01*
X108265316Y-77939474D01*
X108214451Y-78062272D01*
X108111167Y-78311623D01*
X107887377Y-78646548D01*
X107602548Y-78931377D01*
X107267623Y-79155167D01*
X107113474Y-79219017D01*
X106895474Y-79309316D01*
X106500406Y-79387900D01*
X106097594Y-79387900D01*
X105702526Y-79309316D01*
X105484526Y-79219017D01*
X105330377Y-79155167D01*
X104995452Y-78931377D01*
X104710623Y-78646548D01*
X104486833Y-78311623D01*
X104383549Y-78062272D01*
X104332684Y-77939474D01*
X104254100Y-77544406D01*
X104254100Y-77141594D01*
X104332684Y-76746526D01*
X104454438Y-76452586D01*
X104486833Y-76374377D01*
X104710623Y-76039452D01*
X104995452Y-75754623D01*
X105330377Y-75530833D01*
X105484526Y-75466983D01*
X105702526Y-75376684D01*
X106097594Y-75298100D01*
X106500406Y-75298100D01*
X106895474Y-75376684D01*
X106895474Y-75376684D01*
G37*
G36*
X149749104Y-76452585D02*
G01*
X149917626Y-76522389D01*
X150069291Y-76623728D01*
X150198272Y-76752709D01*
X150299611Y-76904374D01*
X150369415Y-77072896D01*
X150405000Y-77251797D01*
X150405000Y-77434203D01*
X150369415Y-77613104D01*
X150299611Y-77781626D01*
X150198272Y-77933291D01*
X150069291Y-78062272D01*
X149917626Y-78163611D01*
X149749104Y-78233415D01*
X149570203Y-78269000D01*
X149387797Y-78269000D01*
X149208896Y-78233415D01*
X149040374Y-78163611D01*
X148888709Y-78062272D01*
X148759728Y-77933291D01*
X148658389Y-77781626D01*
X148588585Y-77613104D01*
X148553000Y-77434203D01*
X148553000Y-77251797D01*
X148588585Y-77072896D01*
X148658389Y-76904374D01*
X148759728Y-76752709D01*
X148888709Y-76623728D01*
X149040374Y-76522389D01*
X149208896Y-76452585D01*
X149387797Y-76417000D01*
X149570203Y-76417000D01*
X149749104Y-76452585D01*
X149749104Y-76452585D01*
G37*
G36*
X158639104Y-76452585D02*
G01*
X158807626Y-76522389D01*
X158959291Y-76623728D01*
X159088272Y-76752709D01*
X159189611Y-76904374D01*
X159259415Y-77072896D01*
X159295000Y-77251797D01*
X159295000Y-77434203D01*
X159259415Y-77613104D01*
X159189611Y-77781626D01*
X159088272Y-77933291D01*
X158959291Y-78062272D01*
X158807626Y-78163611D01*
X158639104Y-78233415D01*
X158460203Y-78269000D01*
X158277797Y-78269000D01*
X158098896Y-78233415D01*
X157930374Y-78163611D01*
X157778709Y-78062272D01*
X157649728Y-77933291D01*
X157548389Y-77781626D01*
X157478585Y-77613104D01*
X157443000Y-77434203D01*
X157443000Y-77251797D01*
X157478585Y-77072896D01*
X157548389Y-76904374D01*
X157649728Y-76752709D01*
X157778709Y-76623728D01*
X157930374Y-76522389D01*
X158098896Y-76452585D01*
X158277797Y-76417000D01*
X158460203Y-76417000D01*
X158639104Y-76452585D01*
X158639104Y-76452585D01*
G37*
G36*
X101489104Y-76452585D02*
G01*
X101657626Y-76522389D01*
X101809291Y-76623728D01*
X101938272Y-76752709D01*
X102039611Y-76904374D01*
X102109415Y-77072896D01*
X102145000Y-77251797D01*
X102145000Y-77434203D01*
X102109415Y-77613104D01*
X102039611Y-77781626D01*
X101938272Y-77933291D01*
X101809291Y-78062272D01*
X101657626Y-78163611D01*
X101489104Y-78233415D01*
X101310203Y-78269000D01*
X101127797Y-78269000D01*
X100948896Y-78233415D01*
X100780374Y-78163611D01*
X100628709Y-78062272D01*
X100499728Y-77933291D01*
X100398389Y-77781626D01*
X100328585Y-77613104D01*
X100293000Y-77434203D01*
X100293000Y-77251797D01*
X100328585Y-77072896D01*
X100398389Y-76904374D01*
X100499728Y-76752709D01*
X100628709Y-76623728D01*
X100780374Y-76522389D01*
X100948896Y-76452585D01*
X101127797Y-76417000D01*
X101310203Y-76417000D01*
X101489104Y-76452585D01*
X101489104Y-76452585D01*
G37*
G36*
X111649104Y-76452585D02*
G01*
X111817626Y-76522389D01*
X111969291Y-76623728D01*
X112098272Y-76752709D01*
X112199611Y-76904374D01*
X112269415Y-77072896D01*
X112305000Y-77251797D01*
X112305000Y-77434203D01*
X112269415Y-77613104D01*
X112199611Y-77781626D01*
X112098272Y-77933291D01*
X111969291Y-78062272D01*
X111817626Y-78163611D01*
X111649104Y-78233415D01*
X111470203Y-78269000D01*
X111287797Y-78269000D01*
X111108896Y-78233415D01*
X110940374Y-78163611D01*
X110788709Y-78062272D01*
X110659728Y-77933291D01*
X110558389Y-77781626D01*
X110488585Y-77613104D01*
X110453000Y-77434203D01*
X110453000Y-77251797D01*
X110488585Y-77072896D01*
X110558389Y-76904374D01*
X110659728Y-76752709D01*
X110788709Y-76623728D01*
X110940374Y-76522389D01*
X111108896Y-76452585D01*
X111287797Y-76417000D01*
X111470203Y-76417000D01*
X111649104Y-76452585D01*
X111649104Y-76452585D01*
G37*
G36*
X120539104Y-76452585D02*
G01*
X120707626Y-76522389D01*
X120859291Y-76623728D01*
X120988272Y-76752709D01*
X121089611Y-76904374D01*
X121159415Y-77072896D01*
X121195000Y-77251797D01*
X121195000Y-77434203D01*
X121159415Y-77613104D01*
X121089611Y-77781626D01*
X120988272Y-77933291D01*
X120859291Y-78062272D01*
X120707626Y-78163611D01*
X120539104Y-78233415D01*
X120360203Y-78269000D01*
X120177797Y-78269000D01*
X119998896Y-78233415D01*
X119830374Y-78163611D01*
X119678709Y-78062272D01*
X119549728Y-77933291D01*
X119448389Y-77781626D01*
X119378585Y-77613104D01*
X119343000Y-77434203D01*
X119343000Y-77251797D01*
X119378585Y-77072896D01*
X119448389Y-76904374D01*
X119549728Y-76752709D01*
X119678709Y-76623728D01*
X119830374Y-76522389D01*
X119998896Y-76452585D01*
X120177797Y-76417000D01*
X120360203Y-76417000D01*
X120539104Y-76452585D01*
X120539104Y-76452585D01*
G37*
G36*
X130699104Y-76452585D02*
G01*
X130867626Y-76522389D01*
X131019291Y-76623728D01*
X131148272Y-76752709D01*
X131249611Y-76904374D01*
X131319415Y-77072896D01*
X131355000Y-77251797D01*
X131355000Y-77434203D01*
X131319415Y-77613104D01*
X131249611Y-77781626D01*
X131148272Y-77933291D01*
X131019291Y-78062272D01*
X130867626Y-78163611D01*
X130699104Y-78233415D01*
X130520203Y-78269000D01*
X130337797Y-78269000D01*
X130158896Y-78233415D01*
X129990374Y-78163611D01*
X129838709Y-78062272D01*
X129709728Y-77933291D01*
X129608389Y-77781626D01*
X129538585Y-77613104D01*
X129503000Y-77434203D01*
X129503000Y-77251797D01*
X129538585Y-77072896D01*
X129608389Y-76904374D01*
X129709728Y-76752709D01*
X129838709Y-76623728D01*
X129990374Y-76522389D01*
X130158896Y-76452585D01*
X130337797Y-76417000D01*
X130520203Y-76417000D01*
X130699104Y-76452585D01*
X130699104Y-76452585D01*
G37*
G36*
X139589104Y-76452585D02*
G01*
X139757626Y-76522389D01*
X139909291Y-76623728D01*
X140038272Y-76752709D01*
X140139611Y-76904374D01*
X140209415Y-77072896D01*
X140245000Y-77251797D01*
X140245000Y-77434203D01*
X140209415Y-77613104D01*
X140139611Y-77781626D01*
X140038272Y-77933291D01*
X139909291Y-78062272D01*
X139757626Y-78163611D01*
X139589104Y-78233415D01*
X139410203Y-78269000D01*
X139227797Y-78269000D01*
X139048896Y-78233415D01*
X138880374Y-78163611D01*
X138728709Y-78062272D01*
X138599728Y-77933291D01*
X138498389Y-77781626D01*
X138428585Y-77613104D01*
X138393000Y-77434203D01*
X138393000Y-77251797D01*
X138428585Y-77072896D01*
X138498389Y-76904374D01*
X138599728Y-76752709D01*
X138728709Y-76623728D01*
X138880374Y-76522389D01*
X139048896Y-76452585D01*
X139227797Y-76417000D01*
X139410203Y-76417000D01*
X139589104Y-76452585D01*
X139589104Y-76452585D01*
G37*
G36*
X168799104Y-76452585D02*
G01*
X168967626Y-76522389D01*
X169119291Y-76623728D01*
X169248272Y-76752709D01*
X169349611Y-76904374D01*
X169419415Y-77072896D01*
X169455000Y-77251797D01*
X169455000Y-77434203D01*
X169419415Y-77613104D01*
X169349611Y-77781626D01*
X169248272Y-77933291D01*
X169119291Y-78062272D01*
X168967626Y-78163611D01*
X168799104Y-78233415D01*
X168620203Y-78269000D01*
X168437797Y-78269000D01*
X168258896Y-78233415D01*
X168090374Y-78163611D01*
X167938709Y-78062272D01*
X167809728Y-77933291D01*
X167708389Y-77781626D01*
X167638585Y-77613104D01*
X167603000Y-77434203D01*
X167603000Y-77251797D01*
X167638585Y-77072896D01*
X167708389Y-76904374D01*
X167809728Y-76752709D01*
X167938709Y-76623728D01*
X168090374Y-76522389D01*
X168258896Y-76452585D01*
X168437797Y-76417000D01*
X168620203Y-76417000D01*
X168799104Y-76452585D01*
X168799104Y-76452585D01*
G37*
G36*
X144995474Y-56326684D02*
G01*
X145213474Y-56416983D01*
X145367623Y-56480833D01*
X145702548Y-56704623D01*
X145987377Y-56989452D01*
X146211167Y-57324377D01*
X146243562Y-57402586D01*
X146365316Y-57696526D01*
X146443900Y-58091594D01*
X146443900Y-58494406D01*
X146365316Y-58889474D01*
X146314451Y-59012272D01*
X146211167Y-59261623D01*
X145987377Y-59596548D01*
X145702548Y-59881377D01*
X145367623Y-60105167D01*
X145213474Y-60169017D01*
X144995474Y-60259316D01*
X144600406Y-60337900D01*
X144197594Y-60337900D01*
X143802526Y-60259316D01*
X143584526Y-60169017D01*
X143430377Y-60105167D01*
X143095452Y-59881377D01*
X142810623Y-59596548D01*
X142586833Y-59261623D01*
X142483549Y-59012272D01*
X142432684Y-58889474D01*
X142354100Y-58494406D01*
X142354100Y-58091594D01*
X142432684Y-57696526D01*
X142554438Y-57402586D01*
X142586833Y-57324377D01*
X142810623Y-56989452D01*
X143095452Y-56704623D01*
X143430377Y-56480833D01*
X143584526Y-56416983D01*
X143802526Y-56326684D01*
X144197594Y-56248100D01*
X144600406Y-56248100D01*
X144995474Y-56326684D01*
X144995474Y-56326684D01*
G37*
G36*
X106895474Y-56326684D02*
G01*
X107113474Y-56416983D01*
X107267623Y-56480833D01*
X107602548Y-56704623D01*
X107887377Y-56989452D01*
X108111167Y-57324377D01*
X108143562Y-57402586D01*
X108265316Y-57696526D01*
X108343900Y-58091594D01*
X108343900Y-58494406D01*
X108265316Y-58889474D01*
X108214451Y-59012272D01*
X108111167Y-59261623D01*
X107887377Y-59596548D01*
X107602548Y-59881377D01*
X107267623Y-60105167D01*
X107113474Y-60169017D01*
X106895474Y-60259316D01*
X106500406Y-60337900D01*
X106097594Y-60337900D01*
X105702526Y-60259316D01*
X105484526Y-60169017D01*
X105330377Y-60105167D01*
X104995452Y-59881377D01*
X104710623Y-59596548D01*
X104486833Y-59261623D01*
X104383549Y-59012272D01*
X104332684Y-58889474D01*
X104254100Y-58494406D01*
X104254100Y-58091594D01*
X104332684Y-57696526D01*
X104454438Y-57402586D01*
X104486833Y-57324377D01*
X104710623Y-56989452D01*
X104995452Y-56704623D01*
X105330377Y-56480833D01*
X105484526Y-56416983D01*
X105702526Y-56326684D01*
X106097594Y-56248100D01*
X106500406Y-56248100D01*
X106895474Y-56326684D01*
X106895474Y-56326684D01*
G37*
G36*
X164045474Y-56326684D02*
G01*
X164263474Y-56416983D01*
X164417623Y-56480833D01*
X164752548Y-56704623D01*
X165037377Y-56989452D01*
X165261167Y-57324377D01*
X165293562Y-57402586D01*
X165415316Y-57696526D01*
X165493900Y-58091594D01*
X165493900Y-58494406D01*
X165415316Y-58889474D01*
X165364451Y-59012272D01*
X165261167Y-59261623D01*
X165037377Y-59596548D01*
X164752548Y-59881377D01*
X164417623Y-60105167D01*
X164263474Y-60169017D01*
X164045474Y-60259316D01*
X163650406Y-60337900D01*
X163247594Y-60337900D01*
X162852526Y-60259316D01*
X162634526Y-60169017D01*
X162480377Y-60105167D01*
X162145452Y-59881377D01*
X161860623Y-59596548D01*
X161636833Y-59261623D01*
X161533549Y-59012272D01*
X161482684Y-58889474D01*
X161404100Y-58494406D01*
X161404100Y-58091594D01*
X161482684Y-57696526D01*
X161604438Y-57402586D01*
X161636833Y-57324377D01*
X161860623Y-56989452D01*
X162145452Y-56704623D01*
X162480377Y-56480833D01*
X162634526Y-56416983D01*
X162852526Y-56326684D01*
X163247594Y-56248100D01*
X163650406Y-56248100D01*
X164045474Y-56326684D01*
X164045474Y-56326684D01*
G37*
G36*
X125945474Y-56326684D02*
G01*
X126163474Y-56416983D01*
X126317623Y-56480833D01*
X126652548Y-56704623D01*
X126937377Y-56989452D01*
X127161167Y-57324377D01*
X127193562Y-57402586D01*
X127315316Y-57696526D01*
X127393900Y-58091594D01*
X127393900Y-58494406D01*
X127315316Y-58889474D01*
X127264451Y-59012272D01*
X127161167Y-59261623D01*
X126937377Y-59596548D01*
X126652548Y-59881377D01*
X126317623Y-60105167D01*
X126163474Y-60169017D01*
X125945474Y-60259316D01*
X125550406Y-60337900D01*
X125147594Y-60337900D01*
X124752526Y-60259316D01*
X124534526Y-60169017D01*
X124380377Y-60105167D01*
X124045452Y-59881377D01*
X123760623Y-59596548D01*
X123536833Y-59261623D01*
X123433549Y-59012272D01*
X123382684Y-58889474D01*
X123304100Y-58494406D01*
X123304100Y-58091594D01*
X123382684Y-57696526D01*
X123504438Y-57402586D01*
X123536833Y-57324377D01*
X123760623Y-56989452D01*
X124045452Y-56704623D01*
X124380377Y-56480833D01*
X124534526Y-56416983D01*
X124752526Y-56326684D01*
X125147594Y-56248100D01*
X125550406Y-56248100D01*
X125945474Y-56326684D01*
X125945474Y-56326684D01*
G37*
G36*
X149749104Y-57402585D02*
G01*
X149917626Y-57472389D01*
X150069291Y-57573728D01*
X150198272Y-57702709D01*
X150299611Y-57854374D01*
X150369415Y-58022896D01*
X150405000Y-58201797D01*
X150405000Y-58384203D01*
X150369415Y-58563104D01*
X150299611Y-58731626D01*
X150198272Y-58883291D01*
X150069291Y-59012272D01*
X149917626Y-59113611D01*
X149749104Y-59183415D01*
X149570203Y-59219000D01*
X149387797Y-59219000D01*
X149208896Y-59183415D01*
X149040374Y-59113611D01*
X148888709Y-59012272D01*
X148759728Y-58883291D01*
X148658389Y-58731626D01*
X148588585Y-58563104D01*
X148553000Y-58384203D01*
X148553000Y-58201797D01*
X148588585Y-58022896D01*
X148658389Y-57854374D01*
X148759728Y-57702709D01*
X148888709Y-57573728D01*
X149040374Y-57472389D01*
X149208896Y-57402585D01*
X149387797Y-57367000D01*
X149570203Y-57367000D01*
X149749104Y-57402585D01*
X149749104Y-57402585D01*
G37*
G36*
X139589104Y-57402585D02*
G01*
X139757626Y-57472389D01*
X139909291Y-57573728D01*
X140038272Y-57702709D01*
X140139611Y-57854374D01*
X140209415Y-58022896D01*
X140245000Y-58201797D01*
X140245000Y-58384203D01*
X140209415Y-58563104D01*
X140139611Y-58731626D01*
X140038272Y-58883291D01*
X139909291Y-59012272D01*
X139757626Y-59113611D01*
X139589104Y-59183415D01*
X139410203Y-59219000D01*
X139227797Y-59219000D01*
X139048896Y-59183415D01*
X138880374Y-59113611D01*
X138728709Y-59012272D01*
X138599728Y-58883291D01*
X138498389Y-58731626D01*
X138428585Y-58563104D01*
X138393000Y-58384203D01*
X138393000Y-58201797D01*
X138428585Y-58022896D01*
X138498389Y-57854374D01*
X138599728Y-57702709D01*
X138728709Y-57573728D01*
X138880374Y-57472389D01*
X139048896Y-57402585D01*
X139227797Y-57367000D01*
X139410203Y-57367000D01*
X139589104Y-57402585D01*
X139589104Y-57402585D01*
G37*
G36*
X111649104Y-57402585D02*
G01*
X111817626Y-57472389D01*
X111969291Y-57573728D01*
X112098272Y-57702709D01*
X112199611Y-57854374D01*
X112269415Y-58022896D01*
X112305000Y-58201797D01*
X112305000Y-58384203D01*
X112269415Y-58563104D01*
X112199611Y-58731626D01*
X112098272Y-58883291D01*
X111969291Y-59012272D01*
X111817626Y-59113611D01*
X111649104Y-59183415D01*
X111470203Y-59219000D01*
X111287797Y-59219000D01*
X111108896Y-59183415D01*
X110940374Y-59113611D01*
X110788709Y-59012272D01*
X110659728Y-58883291D01*
X110558389Y-58731626D01*
X110488585Y-58563104D01*
X110453000Y-58384203D01*
X110453000Y-58201797D01*
X110488585Y-58022896D01*
X110558389Y-57854374D01*
X110659728Y-57702709D01*
X110788709Y-57573728D01*
X110940374Y-57472389D01*
X111108896Y-57402585D01*
X111287797Y-57367000D01*
X111470203Y-57367000D01*
X111649104Y-57402585D01*
X111649104Y-57402585D01*
G37*
G36*
X101489104Y-57402585D02*
G01*
X101657626Y-57472389D01*
X101809291Y-57573728D01*
X101938272Y-57702709D01*
X102039611Y-57854374D01*
X102109415Y-58022896D01*
X102145000Y-58201797D01*
X102145000Y-58384203D01*
X102109415Y-58563104D01*
X102039611Y-58731626D01*
X101938272Y-58883291D01*
X101809291Y-59012272D01*
X101657626Y-59113611D01*
X101489104Y-59183415D01*
X101310203Y-59219000D01*
X101127797Y-59219000D01*
X100948896Y-59183415D01*
X100780374Y-59113611D01*
X100628709Y-59012272D01*
X100499728Y-58883291D01*
X100398389Y-58731626D01*
X100328585Y-58563104D01*
X100293000Y-58384203D01*
X100293000Y-58201797D01*
X100328585Y-58022896D01*
X100398389Y-57854374D01*
X100499728Y-57702709D01*
X100628709Y-57573728D01*
X100780374Y-57472389D01*
X100948896Y-57402585D01*
X101127797Y-57367000D01*
X101310203Y-57367000D01*
X101489104Y-57402585D01*
X101489104Y-57402585D01*
G37*
G36*
X158639104Y-57402585D02*
G01*
X158807626Y-57472389D01*
X158959291Y-57573728D01*
X159088272Y-57702709D01*
X159189611Y-57854374D01*
X159259415Y-58022896D01*
X159295000Y-58201797D01*
X159295000Y-58384203D01*
X159259415Y-58563104D01*
X159189611Y-58731626D01*
X159088272Y-58883291D01*
X158959291Y-59012272D01*
X158807626Y-59113611D01*
X158639104Y-59183415D01*
X158460203Y-59219000D01*
X158277797Y-59219000D01*
X158098896Y-59183415D01*
X157930374Y-59113611D01*
X157778709Y-59012272D01*
X157649728Y-58883291D01*
X157548389Y-58731626D01*
X157478585Y-58563104D01*
X157443000Y-58384203D01*
X157443000Y-58201797D01*
X157478585Y-58022896D01*
X157548389Y-57854374D01*
X157649728Y-57702709D01*
X157778709Y-57573728D01*
X157930374Y-57472389D01*
X158098896Y-57402585D01*
X158277797Y-57367000D01*
X158460203Y-57367000D01*
X158639104Y-57402585D01*
X158639104Y-57402585D01*
G37*
G36*
X168799104Y-57402585D02*
G01*
X168967626Y-57472389D01*
X169119291Y-57573728D01*
X169248272Y-57702709D01*
X169349611Y-57854374D01*
X169419415Y-58022896D01*
X169455000Y-58201797D01*
X169455000Y-58384203D01*
X169419415Y-58563104D01*
X169349611Y-58731626D01*
X169248272Y-58883291D01*
X169119291Y-59012272D01*
X168967626Y-59113611D01*
X168799104Y-59183415D01*
X168620203Y-59219000D01*
X168437797Y-59219000D01*
X168258896Y-59183415D01*
X168090374Y-59113611D01*
X167938709Y-59012272D01*
X167809728Y-58883291D01*
X167708389Y-58731626D01*
X167638585Y-58563104D01*
X167603000Y-58384203D01*
X167603000Y-58201797D01*
X167638585Y-58022896D01*
X167708389Y-57854374D01*
X167809728Y-57702709D01*
X167938709Y-57573728D01*
X168090374Y-57472389D01*
X168258896Y-57402585D01*
X168437797Y-57367000D01*
X168620203Y-57367000D01*
X168799104Y-57402585D01*
X168799104Y-57402585D01*
G37*
G36*
X130699104Y-57402585D02*
G01*
X130867626Y-57472389D01*
X131019291Y-57573728D01*
X131148272Y-57702709D01*
X131249611Y-57854374D01*
X131319415Y-58022896D01*
X131355000Y-58201797D01*
X131355000Y-58384203D01*
X131319415Y-58563104D01*
X131249611Y-58731626D01*
X131148272Y-58883291D01*
X131019291Y-59012272D01*
X130867626Y-59113611D01*
X130699104Y-59183415D01*
X130520203Y-59219000D01*
X130337797Y-59219000D01*
X130158896Y-59183415D01*
X129990374Y-59113611D01*
X129838709Y-59012272D01*
X129709728Y-58883291D01*
X129608389Y-58731626D01*
X129538585Y-58563104D01*
X129503000Y-58384203D01*
X129503000Y-58201797D01*
X129538585Y-58022896D01*
X129608389Y-57854374D01*
X129709728Y-57702709D01*
X129838709Y-57573728D01*
X129990374Y-57472389D01*
X130158896Y-57402585D01*
X130337797Y-57367000D01*
X130520203Y-57367000D01*
X130699104Y-57402585D01*
X130699104Y-57402585D01*
G37*
G36*
X120539104Y-57402585D02*
G01*
X120707626Y-57472389D01*
X120859291Y-57573728D01*
X120988272Y-57702709D01*
X121089611Y-57854374D01*
X121159415Y-58022896D01*
X121195000Y-58201797D01*
X121195000Y-58384203D01*
X121159415Y-58563104D01*
X121089611Y-58731626D01*
X120988272Y-58883291D01*
X120859291Y-59012272D01*
X120707626Y-59113611D01*
X120539104Y-59183415D01*
X120360203Y-59219000D01*
X120177797Y-59219000D01*
X119998896Y-59183415D01*
X119830374Y-59113611D01*
X119678709Y-59012272D01*
X119549728Y-58883291D01*
X119448389Y-58731626D01*
X119378585Y-58563104D01*
X119343000Y-58384203D01*
X119343000Y-58201797D01*
X119378585Y-58022896D01*
X119448389Y-57854374D01*
X119549728Y-57702709D01*
X119678709Y-57573728D01*
X119830374Y-57472389D01*
X119998896Y-57402585D01*
X120177797Y-57367000D01*
X120360203Y-57367000D01*
X120539104Y-57402585D01*
X120539104Y-57402585D01*
G37*
G36*
X168766499Y-47928445D02*
G01*
X168803995Y-47939820D01*
X168838554Y-47958292D01*
X168868847Y-47983153D01*
X168893708Y-48013446D01*
X168912180Y-48048005D01*
X168923555Y-48085501D01*
X168928000Y-48130638D01*
X168928000Y-48869362D01*
X168923555Y-48914499D01*
X168912180Y-48951995D01*
X168893708Y-48986554D01*
X168868847Y-49016847D01*
X168838554Y-49041708D01*
X168803995Y-49060180D01*
X168766499Y-49071555D01*
X168721362Y-49076000D01*
X168082638Y-49076000D01*
X168037501Y-49071555D01*
X168000005Y-49060180D01*
X167965446Y-49041708D01*
X167935153Y-49016847D01*
X167910292Y-48986554D01*
X167891820Y-48951995D01*
X167880445Y-48914499D01*
X167876000Y-48869362D01*
X167876000Y-48130638D01*
X167880445Y-48085501D01*
X167891820Y-48048005D01*
X167910292Y-48013446D01*
X167935153Y-47983153D01*
X167965446Y-47958292D01*
X168000005Y-47939820D01*
X168037501Y-47928445D01*
X168082638Y-47924000D01*
X168721362Y-47924000D01*
X168766499Y-47928445D01*
X168766499Y-47928445D01*
G37*
G36*
X165591499Y-47928445D02*
G01*
X165628995Y-47939820D01*
X165663554Y-47958292D01*
X165693847Y-47983153D01*
X165718708Y-48013446D01*
X165737180Y-48048005D01*
X165748555Y-48085501D01*
X165753000Y-48130638D01*
X165753000Y-48869362D01*
X165748555Y-48914499D01*
X165737180Y-48951995D01*
X165718708Y-48986554D01*
X165693847Y-49016847D01*
X165663554Y-49041708D01*
X165628995Y-49060180D01*
X165591499Y-49071555D01*
X165546362Y-49076000D01*
X164907638Y-49076000D01*
X164862501Y-49071555D01*
X164825005Y-49060180D01*
X164790446Y-49041708D01*
X164760153Y-49016847D01*
X164735292Y-48986554D01*
X164716820Y-48951995D01*
X164705445Y-48914499D01*
X164701000Y-48869362D01*
X164701000Y-48130638D01*
X164705445Y-48085501D01*
X164716820Y-48048005D01*
X164735292Y-48013446D01*
X164760153Y-47983153D01*
X164790446Y-47958292D01*
X164825005Y-47939820D01*
X164862501Y-47928445D01*
X164907638Y-47924000D01*
X165546362Y-47924000D01*
X165591499Y-47928445D01*
X165591499Y-47928445D01*
G37*
G36*
X153006781Y-44481295D02*
G01*
X153042816Y-44492227D01*
X153076024Y-44509977D01*
X153105134Y-44533866D01*
X153129023Y-44562976D01*
X153146773Y-44596184D01*
X153157705Y-44632219D01*
X153162000Y-44675831D01*
X153162000Y-47780169D01*
X153157705Y-47823781D01*
X153146773Y-47859816D01*
X153129023Y-47893024D01*
X153105134Y-47922134D01*
X153076024Y-47946023D01*
X153042816Y-47963773D01*
X153006781Y-47974705D01*
X152963169Y-47979000D01*
X151958831Y-47979000D01*
X151915219Y-47974705D01*
X151879184Y-47963773D01*
X151845976Y-47946023D01*
X151816866Y-47922134D01*
X151792977Y-47893024D01*
X151775227Y-47859816D01*
X151764295Y-47823781D01*
X151760000Y-47780169D01*
X151760000Y-44675831D01*
X151764295Y-44632219D01*
X151775227Y-44596184D01*
X151792977Y-44562976D01*
X151816866Y-44533866D01*
X151845976Y-44509977D01*
X151879184Y-44492227D01*
X151915219Y-44481295D01*
X151958831Y-44477000D01*
X152963169Y-44477000D01*
X153006781Y-44481295D01*
X153006781Y-44481295D01*
G37*
G36*
X157456781Y-44481295D02*
G01*
X157492816Y-44492227D01*
X157526024Y-44509977D01*
X157555134Y-44533866D01*
X157579023Y-44562976D01*
X157596773Y-44596184D01*
X157607705Y-44632219D01*
X157612000Y-44675831D01*
X157612000Y-47780169D01*
X157607705Y-47823781D01*
X157596773Y-47859816D01*
X157579023Y-47893024D01*
X157555134Y-47922134D01*
X157526024Y-47946023D01*
X157492816Y-47963773D01*
X157456781Y-47974705D01*
X157413169Y-47979000D01*
X156408831Y-47979000D01*
X156365219Y-47974705D01*
X156329184Y-47963773D01*
X156295976Y-47946023D01*
X156266866Y-47922134D01*
X156242977Y-47893024D01*
X156225227Y-47859816D01*
X156214295Y-47823781D01*
X156210000Y-47780169D01*
X156210000Y-44675831D01*
X156214295Y-44632219D01*
X156225227Y-44596184D01*
X156242977Y-44562976D01*
X156266866Y-44533866D01*
X156295976Y-44509977D01*
X156329184Y-44492227D01*
X156365219Y-44481295D01*
X156408831Y-44477000D01*
X157413169Y-44477000D01*
X157456781Y-44481295D01*
X157456781Y-44481295D01*
G37*
G36*
X142096499Y-46644445D02*
G01*
X142133995Y-46655820D01*
X142168554Y-46674292D01*
X142198847Y-46699153D01*
X142223708Y-46729446D01*
X142242180Y-46764005D01*
X142253555Y-46801501D01*
X142258000Y-46846638D01*
X142258000Y-47585362D01*
X142253555Y-47630499D01*
X142242180Y-47667995D01*
X142223708Y-47702554D01*
X142198847Y-47732847D01*
X142168554Y-47757708D01*
X142133995Y-47776180D01*
X142096499Y-47787555D01*
X142051362Y-47792000D01*
X141412638Y-47792000D01*
X141367501Y-47787555D01*
X141330005Y-47776180D01*
X141295446Y-47757708D01*
X141265153Y-47732847D01*
X141240292Y-47702554D01*
X141221820Y-47667995D01*
X141210445Y-47630499D01*
X141206000Y-47585362D01*
X141206000Y-46846638D01*
X141210445Y-46801501D01*
X141221820Y-46764005D01*
X141240292Y-46729446D01*
X141265153Y-46699153D01*
X141295446Y-46674292D01*
X141330005Y-46655820D01*
X141367501Y-46644445D01*
X141412638Y-46640000D01*
X142051362Y-46640000D01*
X142096499Y-46644445D01*
X142096499Y-46644445D01*
G37*
G36*
X144636499Y-46644445D02*
G01*
X144673995Y-46655820D01*
X144708554Y-46674292D01*
X144738847Y-46699153D01*
X144763708Y-46729446D01*
X144782180Y-46764005D01*
X144793555Y-46801501D01*
X144798000Y-46846638D01*
X144798000Y-47585362D01*
X144793555Y-47630499D01*
X144782180Y-47667995D01*
X144763708Y-47702554D01*
X144738847Y-47732847D01*
X144708554Y-47757708D01*
X144673995Y-47776180D01*
X144636499Y-47787555D01*
X144591362Y-47792000D01*
X143952638Y-47792000D01*
X143907501Y-47787555D01*
X143870005Y-47776180D01*
X143835446Y-47757708D01*
X143805153Y-47732847D01*
X143780292Y-47702554D01*
X143761820Y-47667995D01*
X143750445Y-47630499D01*
X143746000Y-47585362D01*
X143746000Y-46846638D01*
X143750445Y-46801501D01*
X143761820Y-46764005D01*
X143780292Y-46729446D01*
X143805153Y-46699153D01*
X143835446Y-46674292D01*
X143870005Y-46655820D01*
X143907501Y-46644445D01*
X143952638Y-46640000D01*
X144591362Y-46640000D01*
X144636499Y-46644445D01*
X144636499Y-46644445D01*
G37*
G36*
X165591499Y-46178445D02*
G01*
X165628995Y-46189820D01*
X165663554Y-46208292D01*
X165693847Y-46233153D01*
X165718708Y-46263446D01*
X165737180Y-46298005D01*
X165748555Y-46335501D01*
X165753000Y-46380638D01*
X165753000Y-47119362D01*
X165748555Y-47164499D01*
X165737180Y-47201995D01*
X165718708Y-47236554D01*
X165693847Y-47266847D01*
X165663554Y-47291708D01*
X165628995Y-47310180D01*
X165591499Y-47321555D01*
X165546362Y-47326000D01*
X164907638Y-47326000D01*
X164862501Y-47321555D01*
X164825005Y-47310180D01*
X164790446Y-47291708D01*
X164760153Y-47266847D01*
X164735292Y-47236554D01*
X164716820Y-47201995D01*
X164705445Y-47164499D01*
X164701000Y-47119362D01*
X164701000Y-46380638D01*
X164705445Y-46335501D01*
X164716820Y-46298005D01*
X164735292Y-46263446D01*
X164760153Y-46233153D01*
X164790446Y-46208292D01*
X164825005Y-46189820D01*
X164862501Y-46178445D01*
X164907638Y-46174000D01*
X165546362Y-46174000D01*
X165591499Y-46178445D01*
X165591499Y-46178445D01*
G37*
G36*
X168766499Y-46178445D02*
G01*
X168803995Y-46189820D01*
X168838554Y-46208292D01*
X168868847Y-46233153D01*
X168893708Y-46263446D01*
X168912180Y-46298005D01*
X168923555Y-46335501D01*
X168928000Y-46380638D01*
X168928000Y-47119362D01*
X168923555Y-47164499D01*
X168912180Y-47201995D01*
X168893708Y-47236554D01*
X168868847Y-47266847D01*
X168838554Y-47291708D01*
X168803995Y-47310180D01*
X168766499Y-47321555D01*
X168721362Y-47326000D01*
X168082638Y-47326000D01*
X168037501Y-47321555D01*
X168000005Y-47310180D01*
X167965446Y-47291708D01*
X167935153Y-47266847D01*
X167910292Y-47236554D01*
X167891820Y-47201995D01*
X167880445Y-47164499D01*
X167876000Y-47119362D01*
X167876000Y-46380638D01*
X167880445Y-46335501D01*
X167891820Y-46298005D01*
X167910292Y-46263446D01*
X167935153Y-46233153D01*
X167965446Y-46208292D01*
X168000005Y-46189820D01*
X168037501Y-46178445D01*
X168082638Y-46174000D01*
X168721362Y-46174000D01*
X168766499Y-46178445D01*
X168766499Y-46178445D01*
G37*
G36*
X99439312Y-44615887D02*
G01*
X99529039Y-44643106D01*
X99611731Y-44687306D01*
X99684211Y-44746789D01*
X99743694Y-44819269D01*
X99743697Y-44819274D01*
X99749374Y-44826192D01*
X99766701Y-44843519D01*
X99787075Y-44857133D01*
X99809714Y-44866510D01*
X99833747Y-44871291D01*
X99858251Y-44871291D01*
X99882285Y-44866511D01*
X99904924Y-44857134D01*
X99925298Y-44843520D01*
X99942626Y-44826192D01*
X99948303Y-44819274D01*
X99948306Y-44819269D01*
X100007789Y-44746789D01*
X100080269Y-44687306D01*
X100162961Y-44643106D01*
X100252688Y-44615887D01*
X100322616Y-44609000D01*
X100369384Y-44609000D01*
X100439312Y-44615887D01*
X100529039Y-44643106D01*
X100611731Y-44687306D01*
X100684211Y-44746789D01*
X100743694Y-44819269D01*
X100743697Y-44819274D01*
X100749374Y-44826192D01*
X100766701Y-44843519D01*
X100787075Y-44857133D01*
X100809714Y-44866510D01*
X100833747Y-44871291D01*
X100858251Y-44871291D01*
X100882285Y-44866511D01*
X100904924Y-44857134D01*
X100925298Y-44843520D01*
X100942626Y-44826192D01*
X100948303Y-44819274D01*
X100948306Y-44819269D01*
X101007789Y-44746789D01*
X101080269Y-44687306D01*
X101162961Y-44643106D01*
X101252688Y-44615887D01*
X101322616Y-44609000D01*
X101369384Y-44609000D01*
X101439312Y-44615887D01*
X101529039Y-44643106D01*
X101611731Y-44687306D01*
X101684211Y-44746789D01*
X101743694Y-44819269D01*
X101787894Y-44901961D01*
X101815113Y-44991688D01*
X101824303Y-45085000D01*
X101815113Y-45178312D01*
X101787894Y-45268039D01*
X101743694Y-45350731D01*
X101684211Y-45423211D01*
X101611731Y-45482694D01*
X101611726Y-45482697D01*
X101604808Y-45488374D01*
X101587481Y-45505701D01*
X101573867Y-45526075D01*
X101564490Y-45548714D01*
X101559709Y-45572747D01*
X101559709Y-45597251D01*
X101564489Y-45621285D01*
X101573866Y-45643924D01*
X101587480Y-45664298D01*
X101604808Y-45681626D01*
X101611726Y-45687303D01*
X101611731Y-45687306D01*
X101684211Y-45746789D01*
X101743694Y-45819269D01*
X101787894Y-45901961D01*
X101815113Y-45991688D01*
X101824303Y-46085000D01*
X101815113Y-46178312D01*
X101787894Y-46268039D01*
X101743694Y-46350731D01*
X101684211Y-46423211D01*
X101611731Y-46482694D01*
X101529039Y-46526894D01*
X101439312Y-46554113D01*
X101369384Y-46561000D01*
X101322616Y-46561000D01*
X101252688Y-46554113D01*
X101162961Y-46526894D01*
X101080269Y-46482694D01*
X101007789Y-46423211D01*
X100948306Y-46350731D01*
X100948303Y-46350726D01*
X100942626Y-46343808D01*
X100925299Y-46326481D01*
X100904925Y-46312867D01*
X100882286Y-46303490D01*
X100858253Y-46298709D01*
X100833749Y-46298709D01*
X100809715Y-46303489D01*
X100787076Y-46312866D01*
X100766702Y-46326480D01*
X100749374Y-46343808D01*
X100743697Y-46350726D01*
X100743694Y-46350731D01*
X100684211Y-46423211D01*
X100611731Y-46482694D01*
X100529039Y-46526894D01*
X100439312Y-46554113D01*
X100369384Y-46561000D01*
X100322616Y-46561000D01*
X100252688Y-46554113D01*
X100162961Y-46526894D01*
X100080269Y-46482694D01*
X100026289Y-46438394D01*
X100005923Y-46424786D01*
X99983284Y-46415408D01*
X99959251Y-46410628D01*
X99934747Y-46410628D01*
X99910714Y-46415408D01*
X99888075Y-46424786D01*
X99867700Y-46438400D01*
X99850373Y-46455727D01*
X99836760Y-46476101D01*
X99827382Y-46498740D01*
X99822000Y-46535025D01*
X99822000Y-46561000D01*
X98870000Y-46561000D01*
X98870000Y-45609000D01*
X98895975Y-45609000D01*
X98920361Y-45606598D01*
X98943810Y-45599485D01*
X98965421Y-45587934D01*
X98984363Y-45572389D01*
X98999908Y-45553447D01*
X99011459Y-45531836D01*
X99018572Y-45508387D01*
X99020974Y-45484001D01*
X99019768Y-45471749D01*
X99671628Y-45471749D01*
X99671628Y-45496253D01*
X99676408Y-45520287D01*
X99685786Y-45542925D01*
X99699400Y-45563300D01*
X99716727Y-45580627D01*
X99737101Y-45594240D01*
X99759740Y-45603618D01*
X99796025Y-45609000D01*
X99822000Y-45609000D01*
X99822000Y-45634975D01*
X99824402Y-45659361D01*
X99831515Y-45682810D01*
X99843066Y-45704421D01*
X99858611Y-45723363D01*
X99877553Y-45738908D01*
X99899164Y-45750459D01*
X99922613Y-45757572D01*
X99946999Y-45759974D01*
X99971385Y-45757572D01*
X99994834Y-45750459D01*
X100026292Y-45731604D01*
X100080269Y-45687306D01*
X100080274Y-45687303D01*
X100087192Y-45681626D01*
X100104519Y-45664299D01*
X100118133Y-45643924D01*
X100127511Y-45621286D01*
X100132291Y-45597252D01*
X100132291Y-45572748D01*
X100132291Y-45572747D01*
X100559709Y-45572747D01*
X100559709Y-45597251D01*
X100564489Y-45621285D01*
X100573866Y-45643924D01*
X100587480Y-45664298D01*
X100604808Y-45681626D01*
X100611726Y-45687303D01*
X100611731Y-45687306D01*
X100684211Y-45746789D01*
X100743694Y-45819269D01*
X100743697Y-45819274D01*
X100749374Y-45826192D01*
X100766701Y-45843519D01*
X100787075Y-45857133D01*
X100809714Y-45866510D01*
X100833747Y-45871291D01*
X100858251Y-45871291D01*
X100882285Y-45866511D01*
X100904924Y-45857134D01*
X100925298Y-45843520D01*
X100942626Y-45826192D01*
X100948303Y-45819274D01*
X100948306Y-45819269D01*
X101007789Y-45746789D01*
X101080269Y-45687306D01*
X101080274Y-45687303D01*
X101087192Y-45681626D01*
X101104519Y-45664299D01*
X101118133Y-45643925D01*
X101127510Y-45621286D01*
X101132291Y-45597253D01*
X101132291Y-45572749D01*
X101127511Y-45548715D01*
X101118134Y-45526076D01*
X101104520Y-45505702D01*
X101087192Y-45488374D01*
X101080274Y-45482697D01*
X101080269Y-45482694D01*
X101007789Y-45423211D01*
X100948306Y-45350731D01*
X100948303Y-45350726D01*
X100942626Y-45343808D01*
X100925299Y-45326481D01*
X100904925Y-45312867D01*
X100882286Y-45303490D01*
X100858253Y-45298709D01*
X100833749Y-45298709D01*
X100809715Y-45303489D01*
X100787076Y-45312866D01*
X100766702Y-45326480D01*
X100749374Y-45343808D01*
X100743697Y-45350726D01*
X100743694Y-45350731D01*
X100684211Y-45423211D01*
X100611731Y-45482694D01*
X100611726Y-45482697D01*
X100604808Y-45488374D01*
X100587481Y-45505701D01*
X100573867Y-45526075D01*
X100564490Y-45548714D01*
X100559709Y-45572747D01*
X100132291Y-45572747D01*
X100127511Y-45548715D01*
X100118133Y-45526076D01*
X100104520Y-45505702D01*
X100087192Y-45488374D01*
X100080274Y-45482697D01*
X100080269Y-45482694D01*
X100026289Y-45438394D01*
X100005923Y-45424786D01*
X100004214Y-45424078D01*
X99992604Y-45404708D01*
X99948306Y-45350731D01*
X99948303Y-45350726D01*
X99942626Y-45343808D01*
X99925299Y-45326481D01*
X99904924Y-45312867D01*
X99882286Y-45303489D01*
X99858252Y-45298709D01*
X99833748Y-45298709D01*
X99809715Y-45303489D01*
X99787076Y-45312867D01*
X99766702Y-45326480D01*
X99749374Y-45343808D01*
X99743697Y-45350726D01*
X99743694Y-45350731D01*
X99699394Y-45404711D01*
X99685786Y-45425077D01*
X99676408Y-45447716D01*
X99671628Y-45471749D01*
X99019768Y-45471749D01*
X99018572Y-45459615D01*
X99011459Y-45436166D01*
X98992604Y-45404708D01*
X98948306Y-45350731D01*
X98904106Y-45268039D01*
X98876887Y-45178312D01*
X98867697Y-45085000D01*
X98876887Y-44991688D01*
X98904106Y-44901961D01*
X98948306Y-44819269D01*
X99007789Y-44746789D01*
X99080269Y-44687306D01*
X99162961Y-44643106D01*
X99252688Y-44615887D01*
X99322616Y-44609000D01*
X99369384Y-44609000D01*
X99439312Y-44615887D01*
X99439312Y-44615887D01*
G37*
G36*
X142096499Y-44894445D02*
G01*
X142133995Y-44905820D01*
X142168554Y-44924292D01*
X142198847Y-44949153D01*
X142223708Y-44979446D01*
X142242180Y-45014005D01*
X142253555Y-45051501D01*
X142258000Y-45096638D01*
X142258000Y-45835362D01*
X142253555Y-45880499D01*
X142242180Y-45917995D01*
X142223708Y-45952554D01*
X142198847Y-45982847D01*
X142168554Y-46007708D01*
X142133995Y-46026180D01*
X142096499Y-46037555D01*
X142051362Y-46042000D01*
X141412638Y-46042000D01*
X141367501Y-46037555D01*
X141330005Y-46026180D01*
X141295446Y-46007708D01*
X141265153Y-45982847D01*
X141240292Y-45952554D01*
X141221820Y-45917995D01*
X141210445Y-45880499D01*
X141206000Y-45835362D01*
X141206000Y-45096638D01*
X141210445Y-45051501D01*
X141221820Y-45014005D01*
X141240292Y-44979446D01*
X141265153Y-44949153D01*
X141295446Y-44924292D01*
X141330005Y-44905820D01*
X141367501Y-44894445D01*
X141412638Y-44890000D01*
X142051362Y-44890000D01*
X142096499Y-44894445D01*
X142096499Y-44894445D01*
G37*
G36*
X144636499Y-44894445D02*
G01*
X144673995Y-44905820D01*
X144708554Y-44924292D01*
X144738847Y-44949153D01*
X144763708Y-44979446D01*
X144782180Y-45014005D01*
X144793555Y-45051501D01*
X144798000Y-45096638D01*
X144798000Y-45835362D01*
X144793555Y-45880499D01*
X144782180Y-45917995D01*
X144763708Y-45952554D01*
X144738847Y-45982847D01*
X144708554Y-46007708D01*
X144673995Y-46026180D01*
X144636499Y-46037555D01*
X144591362Y-46042000D01*
X143952638Y-46042000D01*
X143907501Y-46037555D01*
X143870005Y-46026180D01*
X143835446Y-46007708D01*
X143805153Y-45982847D01*
X143780292Y-45952554D01*
X143761820Y-45917995D01*
X143750445Y-45880499D01*
X143746000Y-45835362D01*
X143746000Y-45096638D01*
X143750445Y-45051501D01*
X143761820Y-45014005D01*
X143780292Y-44979446D01*
X143805153Y-44949153D01*
X143835446Y-44924292D01*
X143870005Y-44905820D01*
X143907501Y-44894445D01*
X143952638Y-44890000D01*
X144591362Y-44890000D01*
X144636499Y-44894445D01*
X144636499Y-44894445D01*
G37*
G36*
X130145231Y-43802705D02*
G01*
X130183967Y-43810410D01*
X130214195Y-43822931D01*
X130256944Y-43840638D01*
X130322622Y-43884523D01*
X130378478Y-43940379D01*
X130388067Y-43954730D01*
X130403613Y-43973672D01*
X130422555Y-43989217D01*
X130444165Y-44000768D01*
X130467614Y-44007881D01*
X130492001Y-44010283D01*
X130516387Y-44007881D01*
X130539836Y-44000768D01*
X130561446Y-43989217D01*
X130580388Y-43973671D01*
X130595933Y-43954730D01*
X130605522Y-43940379D01*
X130661378Y-43884523D01*
X130727056Y-43840638D01*
X130769805Y-43822931D01*
X130800033Y-43810410D01*
X130838769Y-43802705D01*
X130877504Y-43795000D01*
X130956496Y-43795000D01*
X130995231Y-43802705D01*
X131033967Y-43810410D01*
X131064195Y-43822931D01*
X131106944Y-43840638D01*
X131172622Y-43884523D01*
X131228478Y-43940379D01*
X131238067Y-43954730D01*
X131253613Y-43973672D01*
X131272555Y-43989217D01*
X131294165Y-44000768D01*
X131317614Y-44007881D01*
X131342001Y-44010283D01*
X131366387Y-44007881D01*
X131389836Y-44000768D01*
X131411446Y-43989217D01*
X131430388Y-43973671D01*
X131445933Y-43954730D01*
X131455522Y-43940379D01*
X131511378Y-43884523D01*
X131577056Y-43840638D01*
X131619805Y-43822931D01*
X131650033Y-43810410D01*
X131688769Y-43802705D01*
X131727504Y-43795000D01*
X131806496Y-43795000D01*
X131845231Y-43802705D01*
X131883967Y-43810410D01*
X131914195Y-43822931D01*
X131956944Y-43840638D01*
X132022622Y-43884523D01*
X132078478Y-43940379D01*
X132088067Y-43954730D01*
X132103613Y-43973672D01*
X132122555Y-43989217D01*
X132144165Y-44000768D01*
X132167614Y-44007881D01*
X132192001Y-44010283D01*
X132216387Y-44007881D01*
X132239836Y-44000768D01*
X132261446Y-43989217D01*
X132280388Y-43973671D01*
X132295933Y-43954730D01*
X132305522Y-43940379D01*
X132361378Y-43884523D01*
X132427056Y-43840638D01*
X132469805Y-43822931D01*
X132500033Y-43810410D01*
X132538769Y-43802705D01*
X132577504Y-43795000D01*
X132656496Y-43795000D01*
X132695231Y-43802705D01*
X132733967Y-43810410D01*
X132764195Y-43822931D01*
X132806944Y-43840638D01*
X132872622Y-43884523D01*
X132928478Y-43940379D01*
X132938067Y-43954730D01*
X132953613Y-43973672D01*
X132972555Y-43989217D01*
X132994165Y-44000768D01*
X133017614Y-44007881D01*
X133042001Y-44010283D01*
X133066387Y-44007881D01*
X133089836Y-44000768D01*
X133111446Y-43989217D01*
X133130388Y-43973671D01*
X133145933Y-43954730D01*
X133155522Y-43940379D01*
X133211378Y-43884523D01*
X133277056Y-43840638D01*
X133319805Y-43822931D01*
X133350033Y-43810410D01*
X133388769Y-43802705D01*
X133427504Y-43795000D01*
X133506496Y-43795000D01*
X133545231Y-43802705D01*
X133583967Y-43810410D01*
X133614195Y-43822931D01*
X133656944Y-43840638D01*
X133722622Y-43884523D01*
X133778478Y-43940379D01*
X133788067Y-43954730D01*
X133803613Y-43973672D01*
X133822555Y-43989217D01*
X133844165Y-44000768D01*
X133867614Y-44007881D01*
X133892001Y-44010283D01*
X133916387Y-44007881D01*
X133939836Y-44000768D01*
X133961446Y-43989217D01*
X133980388Y-43973671D01*
X133995933Y-43954730D01*
X134005522Y-43940379D01*
X134061378Y-43884523D01*
X134127056Y-43840638D01*
X134169805Y-43822931D01*
X134200033Y-43810410D01*
X134238769Y-43802705D01*
X134277504Y-43795000D01*
X134356496Y-43795000D01*
X134395231Y-43802705D01*
X134433967Y-43810410D01*
X134464195Y-43822931D01*
X134506944Y-43840638D01*
X134572622Y-43884523D01*
X134628478Y-43940379D01*
X134638067Y-43954730D01*
X134653613Y-43973672D01*
X134672555Y-43989217D01*
X134694165Y-44000768D01*
X134717614Y-44007881D01*
X134742001Y-44010283D01*
X134766387Y-44007881D01*
X134789836Y-44000768D01*
X134811446Y-43989217D01*
X134830388Y-43973671D01*
X134845933Y-43954730D01*
X134855522Y-43940379D01*
X134911378Y-43884523D01*
X134977056Y-43840638D01*
X135019805Y-43822931D01*
X135050033Y-43810410D01*
X135088769Y-43802705D01*
X135127504Y-43795000D01*
X135206496Y-43795000D01*
X135245231Y-43802705D01*
X135283967Y-43810410D01*
X135314195Y-43822931D01*
X135356944Y-43840638D01*
X135422622Y-43884523D01*
X135478478Y-43940379D01*
X135488067Y-43954730D01*
X135503613Y-43973672D01*
X135522555Y-43989217D01*
X135544165Y-44000768D01*
X135567614Y-44007881D01*
X135592001Y-44010283D01*
X135616387Y-44007881D01*
X135639836Y-44000768D01*
X135661446Y-43989217D01*
X135680388Y-43973671D01*
X135695933Y-43954730D01*
X135705522Y-43940379D01*
X135761378Y-43884523D01*
X135827056Y-43840638D01*
X135869805Y-43822931D01*
X135900033Y-43810410D01*
X135938769Y-43802705D01*
X135977504Y-43795000D01*
X136056496Y-43795000D01*
X136095231Y-43802705D01*
X136133967Y-43810410D01*
X136164195Y-43822931D01*
X136206944Y-43840638D01*
X136272622Y-43884523D01*
X136328477Y-43940378D01*
X136372362Y-44006056D01*
X136390069Y-44048805D01*
X136402590Y-44079033D01*
X136418000Y-44156505D01*
X136418000Y-44235495D01*
X136402590Y-44312967D01*
X136390069Y-44343195D01*
X136372362Y-44385944D01*
X136328477Y-44451622D01*
X136272622Y-44507477D01*
X136206944Y-44551362D01*
X136164195Y-44569069D01*
X136133967Y-44581590D01*
X136095231Y-44589295D01*
X136056496Y-44597000D01*
X135977504Y-44597000D01*
X135938769Y-44589295D01*
X135900033Y-44581590D01*
X135869805Y-44569069D01*
X135827056Y-44551362D01*
X135761378Y-44507477D01*
X135705522Y-44451621D01*
X135695933Y-44437270D01*
X135680387Y-44418328D01*
X135661445Y-44402783D01*
X135639835Y-44391232D01*
X135616386Y-44384119D01*
X135591999Y-44381717D01*
X135567613Y-44384119D01*
X135544164Y-44391232D01*
X135522554Y-44402783D01*
X135503612Y-44418329D01*
X135488067Y-44437270D01*
X135478478Y-44451621D01*
X135422622Y-44507477D01*
X135356944Y-44551362D01*
X135314195Y-44569069D01*
X135283967Y-44581590D01*
X135245231Y-44589295D01*
X135206496Y-44597000D01*
X135127504Y-44597000D01*
X135088769Y-44589295D01*
X135050033Y-44581590D01*
X135019805Y-44569069D01*
X134977056Y-44551362D01*
X134911378Y-44507477D01*
X134855522Y-44451621D01*
X134845933Y-44437270D01*
X134830387Y-44418328D01*
X134811445Y-44402783D01*
X134789835Y-44391232D01*
X134766386Y-44384119D01*
X134741999Y-44381717D01*
X134717613Y-44384119D01*
X134694164Y-44391232D01*
X134672554Y-44402783D01*
X134653612Y-44418329D01*
X134638067Y-44437270D01*
X134628478Y-44451621D01*
X134572622Y-44507477D01*
X134506944Y-44551362D01*
X134464195Y-44569069D01*
X134433967Y-44581590D01*
X134395231Y-44589295D01*
X134356496Y-44597000D01*
X134277504Y-44597000D01*
X134238769Y-44589295D01*
X134200033Y-44581590D01*
X134169805Y-44569069D01*
X134127056Y-44551362D01*
X134061378Y-44507477D01*
X134005522Y-44451621D01*
X133995933Y-44437270D01*
X133980387Y-44418328D01*
X133961445Y-44402783D01*
X133939835Y-44391232D01*
X133916386Y-44384119D01*
X133891999Y-44381717D01*
X133867613Y-44384119D01*
X133844164Y-44391232D01*
X133822554Y-44402783D01*
X133803612Y-44418329D01*
X133788067Y-44437270D01*
X133778478Y-44451621D01*
X133722622Y-44507477D01*
X133656944Y-44551362D01*
X133614195Y-44569069D01*
X133583967Y-44581590D01*
X133545231Y-44589295D01*
X133506496Y-44597000D01*
X133427504Y-44597000D01*
X133388769Y-44589295D01*
X133350033Y-44581590D01*
X133319805Y-44569069D01*
X133277056Y-44551362D01*
X133211378Y-44507477D01*
X133155522Y-44451621D01*
X133145933Y-44437270D01*
X133130387Y-44418328D01*
X133111445Y-44402783D01*
X133089835Y-44391232D01*
X133066386Y-44384119D01*
X133041999Y-44381717D01*
X133017613Y-44384119D01*
X132994164Y-44391232D01*
X132972554Y-44402783D01*
X132953612Y-44418329D01*
X132938067Y-44437270D01*
X132928478Y-44451621D01*
X132872622Y-44507477D01*
X132806944Y-44551362D01*
X132764195Y-44569069D01*
X132733967Y-44581590D01*
X132695231Y-44589295D01*
X132656496Y-44597000D01*
X132577504Y-44597000D01*
X132538769Y-44589295D01*
X132500033Y-44581590D01*
X132469805Y-44569069D01*
X132427056Y-44551362D01*
X132361378Y-44507477D01*
X132305522Y-44451621D01*
X132295933Y-44437270D01*
X132280387Y-44418328D01*
X132261445Y-44402783D01*
X132239835Y-44391232D01*
X132216386Y-44384119D01*
X132191999Y-44381717D01*
X132167613Y-44384119D01*
X132144164Y-44391232D01*
X132122554Y-44402783D01*
X132103612Y-44418329D01*
X132088067Y-44437270D01*
X132078478Y-44451621D01*
X132022622Y-44507477D01*
X131956944Y-44551362D01*
X131914195Y-44569069D01*
X131883967Y-44581590D01*
X131845231Y-44589295D01*
X131806496Y-44597000D01*
X131727504Y-44597000D01*
X131688769Y-44589295D01*
X131650033Y-44581590D01*
X131619805Y-44569069D01*
X131577056Y-44551362D01*
X131511378Y-44507477D01*
X131455522Y-44451621D01*
X131445933Y-44437270D01*
X131430387Y-44418328D01*
X131411445Y-44402783D01*
X131389835Y-44391232D01*
X131366386Y-44384119D01*
X131341999Y-44381717D01*
X131317613Y-44384119D01*
X131294164Y-44391232D01*
X131272554Y-44402783D01*
X131253612Y-44418329D01*
X131238067Y-44437270D01*
X131228478Y-44451621D01*
X131172622Y-44507477D01*
X131106944Y-44551362D01*
X131064195Y-44569069D01*
X131033967Y-44581590D01*
X130995231Y-44589295D01*
X130956496Y-44597000D01*
X130877504Y-44597000D01*
X130838769Y-44589295D01*
X130800033Y-44581590D01*
X130769805Y-44569069D01*
X130727056Y-44551362D01*
X130661378Y-44507477D01*
X130605522Y-44451621D01*
X130595933Y-44437270D01*
X130580387Y-44418328D01*
X130561445Y-44402783D01*
X130539835Y-44391232D01*
X130516386Y-44384119D01*
X130491999Y-44381717D01*
X130467613Y-44384119D01*
X130444164Y-44391232D01*
X130422554Y-44402783D01*
X130403612Y-44418329D01*
X130388067Y-44437270D01*
X130378478Y-44451621D01*
X130322622Y-44507477D01*
X130256944Y-44551362D01*
X130214195Y-44569069D01*
X130183967Y-44581590D01*
X130145231Y-44589295D01*
X130106496Y-44597000D01*
X130027504Y-44597000D01*
X129988769Y-44589295D01*
X129950033Y-44581590D01*
X129919805Y-44569069D01*
X129877056Y-44551362D01*
X129811378Y-44507477D01*
X129755523Y-44451622D01*
X129711638Y-44385944D01*
X129693931Y-44343195D01*
X129681410Y-44312967D01*
X129666000Y-44235495D01*
X129666000Y-44156505D01*
X129681410Y-44079033D01*
X129693931Y-44048805D01*
X129711638Y-44006056D01*
X129755523Y-43940378D01*
X129811378Y-43884523D01*
X129877056Y-43840638D01*
X129919805Y-43822931D01*
X129950033Y-43810410D01*
X129988769Y-43802705D01*
X130027504Y-43795000D01*
X130106496Y-43795000D01*
X130145231Y-43802705D01*
X130145231Y-43802705D01*
G37*
G36*
X137465213Y-41972249D02*
G01*
X137559652Y-42000897D01*
X137646687Y-42047418D01*
X137722975Y-42110025D01*
X137785582Y-42186313D01*
X137832103Y-42273348D01*
X137860751Y-42367787D01*
X137868000Y-42441388D01*
X137868000Y-43990612D01*
X137860751Y-44064213D01*
X137832103Y-44158652D01*
X137785582Y-44245687D01*
X137722975Y-44321975D01*
X137646687Y-44384582D01*
X137559651Y-44431103D01*
X137465212Y-44459751D01*
X137367000Y-44469424D01*
X137268787Y-44459751D01*
X137174348Y-44431103D01*
X137087313Y-44384582D01*
X137011025Y-44321975D01*
X136948418Y-44245687D01*
X136901897Y-44158651D01*
X136873249Y-44064212D01*
X136866000Y-43990611D01*
X136866001Y-42441388D01*
X136873250Y-42367787D01*
X136901898Y-42273348D01*
X136948419Y-42186313D01*
X137011026Y-42110025D01*
X137087314Y-42047418D01*
X137174349Y-42000897D01*
X137268788Y-41972249D01*
X137367000Y-41962576D01*
X137465213Y-41972249D01*
X137465213Y-41972249D01*
G37*
G36*
X128815213Y-41972249D02*
G01*
X128909652Y-42000897D01*
X128996687Y-42047418D01*
X129072975Y-42110025D01*
X129135582Y-42186313D01*
X129182103Y-42273348D01*
X129210751Y-42367787D01*
X129218000Y-42441388D01*
X129218000Y-43990612D01*
X129210751Y-44064213D01*
X129182103Y-44158652D01*
X129135582Y-44245687D01*
X129072975Y-44321975D01*
X128996687Y-44384582D01*
X128909651Y-44431103D01*
X128815212Y-44459751D01*
X128717000Y-44469424D01*
X128618787Y-44459751D01*
X128524348Y-44431103D01*
X128437313Y-44384582D01*
X128361025Y-44321975D01*
X128298418Y-44245687D01*
X128251897Y-44158651D01*
X128223249Y-44064212D01*
X128216000Y-43990611D01*
X128216001Y-42441388D01*
X128223250Y-42367787D01*
X128251898Y-42273348D01*
X128298419Y-42186313D01*
X128361026Y-42110025D01*
X128437314Y-42047418D01*
X128524349Y-42000897D01*
X128618788Y-41972249D01*
X128717000Y-41962576D01*
X128815213Y-41972249D01*
X128815213Y-41972249D01*
G37*
G36*
X130145231Y-42452705D02*
G01*
X130183967Y-42460410D01*
X130206180Y-42469611D01*
X130256944Y-42490638D01*
X130322622Y-42534523D01*
X130378478Y-42590379D01*
X130388067Y-42604730D01*
X130403613Y-42623672D01*
X130422555Y-42639217D01*
X130444165Y-42650768D01*
X130467614Y-42657881D01*
X130492001Y-42660283D01*
X130516387Y-42657881D01*
X130539836Y-42650768D01*
X130561446Y-42639217D01*
X130580388Y-42623671D01*
X130595933Y-42604730D01*
X130605522Y-42590379D01*
X130661378Y-42534523D01*
X130727056Y-42490638D01*
X130777820Y-42469611D01*
X130800033Y-42460410D01*
X130838769Y-42452705D01*
X130877504Y-42445000D01*
X130956496Y-42445000D01*
X130995231Y-42452705D01*
X131033967Y-42460410D01*
X131056180Y-42469611D01*
X131106944Y-42490638D01*
X131172622Y-42534523D01*
X131228478Y-42590379D01*
X131238067Y-42604730D01*
X131253613Y-42623672D01*
X131272555Y-42639217D01*
X131294165Y-42650768D01*
X131317614Y-42657881D01*
X131342001Y-42660283D01*
X131366387Y-42657881D01*
X131389836Y-42650768D01*
X131411446Y-42639217D01*
X131430388Y-42623671D01*
X131445933Y-42604730D01*
X131455522Y-42590379D01*
X131511378Y-42534523D01*
X131577056Y-42490638D01*
X131627820Y-42469611D01*
X131650033Y-42460410D01*
X131688769Y-42452705D01*
X131727504Y-42445000D01*
X131806496Y-42445000D01*
X131845231Y-42452705D01*
X131883967Y-42460410D01*
X131906180Y-42469611D01*
X131956944Y-42490638D01*
X132022622Y-42534523D01*
X132078478Y-42590379D01*
X132088067Y-42604730D01*
X132103613Y-42623672D01*
X132122555Y-42639217D01*
X132144165Y-42650768D01*
X132167614Y-42657881D01*
X132192001Y-42660283D01*
X132216387Y-42657881D01*
X132239836Y-42650768D01*
X132261446Y-42639217D01*
X132280388Y-42623671D01*
X132295933Y-42604730D01*
X132305522Y-42590379D01*
X132361378Y-42534523D01*
X132427056Y-42490638D01*
X132477820Y-42469611D01*
X132500033Y-42460410D01*
X132538769Y-42452705D01*
X132577504Y-42445000D01*
X132656496Y-42445000D01*
X132695231Y-42452705D01*
X132733967Y-42460410D01*
X132756180Y-42469611D01*
X132806944Y-42490638D01*
X132872622Y-42534523D01*
X132928478Y-42590379D01*
X132938067Y-42604730D01*
X132953613Y-42623672D01*
X132972555Y-42639217D01*
X132994165Y-42650768D01*
X133017614Y-42657881D01*
X133042001Y-42660283D01*
X133066387Y-42657881D01*
X133089836Y-42650768D01*
X133111446Y-42639217D01*
X133130388Y-42623671D01*
X133145933Y-42604730D01*
X133155522Y-42590379D01*
X133211378Y-42534523D01*
X133277056Y-42490638D01*
X133327820Y-42469611D01*
X133350033Y-42460410D01*
X133388769Y-42452705D01*
X133427504Y-42445000D01*
X133506496Y-42445000D01*
X133545231Y-42452705D01*
X133583967Y-42460410D01*
X133606180Y-42469611D01*
X133656944Y-42490638D01*
X133722622Y-42534523D01*
X133778478Y-42590379D01*
X133788067Y-42604730D01*
X133803613Y-42623672D01*
X133822555Y-42639217D01*
X133844165Y-42650768D01*
X133867614Y-42657881D01*
X133892001Y-42660283D01*
X133916387Y-42657881D01*
X133939836Y-42650768D01*
X133961446Y-42639217D01*
X133980388Y-42623671D01*
X133995933Y-42604730D01*
X134005522Y-42590379D01*
X134061378Y-42534523D01*
X134127056Y-42490638D01*
X134177820Y-42469611D01*
X134200033Y-42460410D01*
X134238769Y-42452705D01*
X134277504Y-42445000D01*
X134356496Y-42445000D01*
X134395231Y-42452705D01*
X134433967Y-42460410D01*
X134456180Y-42469611D01*
X134506944Y-42490638D01*
X134572622Y-42534523D01*
X134628478Y-42590379D01*
X134638067Y-42604730D01*
X134653613Y-42623672D01*
X134672555Y-42639217D01*
X134694165Y-42650768D01*
X134717614Y-42657881D01*
X134742001Y-42660283D01*
X134766387Y-42657881D01*
X134789836Y-42650768D01*
X134811446Y-42639217D01*
X134830388Y-42623671D01*
X134845933Y-42604730D01*
X134855522Y-42590379D01*
X134911378Y-42534523D01*
X134977056Y-42490638D01*
X135027820Y-42469611D01*
X135050033Y-42460410D01*
X135088769Y-42452705D01*
X135127504Y-42445000D01*
X135206496Y-42445000D01*
X135245231Y-42452705D01*
X135283967Y-42460410D01*
X135306180Y-42469611D01*
X135356944Y-42490638D01*
X135422622Y-42534523D01*
X135478478Y-42590379D01*
X135488067Y-42604730D01*
X135503613Y-42623672D01*
X135522555Y-42639217D01*
X135544165Y-42650768D01*
X135567614Y-42657881D01*
X135592001Y-42660283D01*
X135616387Y-42657881D01*
X135639836Y-42650768D01*
X135661446Y-42639217D01*
X135680388Y-42623671D01*
X135695933Y-42604730D01*
X135705522Y-42590379D01*
X135761378Y-42534523D01*
X135827056Y-42490638D01*
X135877820Y-42469611D01*
X135900033Y-42460410D01*
X135938769Y-42452705D01*
X135977504Y-42445000D01*
X136056496Y-42445000D01*
X136095231Y-42452705D01*
X136133967Y-42460410D01*
X136156180Y-42469611D01*
X136206944Y-42490638D01*
X136272622Y-42534523D01*
X136328477Y-42590378D01*
X136372362Y-42656056D01*
X136402590Y-42729034D01*
X136418000Y-42806504D01*
X136418000Y-42885496D01*
X136402590Y-42962966D01*
X136372362Y-43035944D01*
X136328477Y-43101622D01*
X136272622Y-43157477D01*
X136206944Y-43201362D01*
X136164195Y-43219069D01*
X136133967Y-43231590D01*
X136095231Y-43239295D01*
X136056496Y-43247000D01*
X135977504Y-43247000D01*
X135938769Y-43239295D01*
X135900033Y-43231590D01*
X135869805Y-43219069D01*
X135827056Y-43201362D01*
X135761378Y-43157477D01*
X135705522Y-43101621D01*
X135695933Y-43087270D01*
X135680387Y-43068328D01*
X135661445Y-43052783D01*
X135639835Y-43041232D01*
X135616386Y-43034119D01*
X135591999Y-43031717D01*
X135567613Y-43034119D01*
X135544164Y-43041232D01*
X135522554Y-43052783D01*
X135503612Y-43068329D01*
X135488067Y-43087270D01*
X135478478Y-43101621D01*
X135422622Y-43157477D01*
X135356944Y-43201362D01*
X135314195Y-43219069D01*
X135283967Y-43231590D01*
X135245231Y-43239295D01*
X135206496Y-43247000D01*
X135127504Y-43247000D01*
X135088769Y-43239295D01*
X135050033Y-43231590D01*
X135019805Y-43219069D01*
X134977056Y-43201362D01*
X134911378Y-43157477D01*
X134855522Y-43101621D01*
X134845933Y-43087270D01*
X134830387Y-43068328D01*
X134811445Y-43052783D01*
X134789835Y-43041232D01*
X134766386Y-43034119D01*
X134741999Y-43031717D01*
X134717613Y-43034119D01*
X134694164Y-43041232D01*
X134672554Y-43052783D01*
X134653612Y-43068329D01*
X134638067Y-43087270D01*
X134628478Y-43101621D01*
X134572622Y-43157477D01*
X134506944Y-43201362D01*
X134464195Y-43219069D01*
X134433967Y-43231590D01*
X134395231Y-43239295D01*
X134356496Y-43247000D01*
X134277504Y-43247000D01*
X134238769Y-43239295D01*
X134200033Y-43231590D01*
X134169805Y-43219069D01*
X134127056Y-43201362D01*
X134061378Y-43157477D01*
X134005522Y-43101621D01*
X133995933Y-43087270D01*
X133980387Y-43068328D01*
X133961445Y-43052783D01*
X133939835Y-43041232D01*
X133916386Y-43034119D01*
X133891999Y-43031717D01*
X133867613Y-43034119D01*
X133844164Y-43041232D01*
X133822554Y-43052783D01*
X133803612Y-43068329D01*
X133788067Y-43087270D01*
X133778478Y-43101621D01*
X133722622Y-43157477D01*
X133656944Y-43201362D01*
X133614195Y-43219069D01*
X133583967Y-43231590D01*
X133545231Y-43239295D01*
X133506496Y-43247000D01*
X133427504Y-43247000D01*
X133388769Y-43239295D01*
X133350033Y-43231590D01*
X133319805Y-43219069D01*
X133277056Y-43201362D01*
X133211378Y-43157477D01*
X133155522Y-43101621D01*
X133145933Y-43087270D01*
X133130387Y-43068328D01*
X133111445Y-43052783D01*
X133089835Y-43041232D01*
X133066386Y-43034119D01*
X133041999Y-43031717D01*
X133017613Y-43034119D01*
X132994164Y-43041232D01*
X132972554Y-43052783D01*
X132953612Y-43068329D01*
X132938067Y-43087270D01*
X132928478Y-43101621D01*
X132872622Y-43157477D01*
X132806944Y-43201362D01*
X132764195Y-43219069D01*
X132733967Y-43231590D01*
X132695231Y-43239295D01*
X132656496Y-43247000D01*
X132577504Y-43247000D01*
X132538769Y-43239295D01*
X132500033Y-43231590D01*
X132469805Y-43219069D01*
X132427056Y-43201362D01*
X132361378Y-43157477D01*
X132305522Y-43101621D01*
X132295933Y-43087270D01*
X132280387Y-43068328D01*
X132261445Y-43052783D01*
X132239835Y-43041232D01*
X132216386Y-43034119D01*
X132191999Y-43031717D01*
X132167613Y-43034119D01*
X132144164Y-43041232D01*
X132122554Y-43052783D01*
X132103612Y-43068329D01*
X132088067Y-43087270D01*
X132078478Y-43101621D01*
X132022622Y-43157477D01*
X131956944Y-43201362D01*
X131914195Y-43219069D01*
X131883967Y-43231590D01*
X131845231Y-43239295D01*
X131806496Y-43247000D01*
X131727504Y-43247000D01*
X131688769Y-43239295D01*
X131650033Y-43231590D01*
X131619805Y-43219069D01*
X131577056Y-43201362D01*
X131511378Y-43157477D01*
X131455522Y-43101621D01*
X131445933Y-43087270D01*
X131430387Y-43068328D01*
X131411445Y-43052783D01*
X131389835Y-43041232D01*
X131366386Y-43034119D01*
X131341999Y-43031717D01*
X131317613Y-43034119D01*
X131294164Y-43041232D01*
X131272554Y-43052783D01*
X131253612Y-43068329D01*
X131238067Y-43087270D01*
X131228478Y-43101621D01*
X131172622Y-43157477D01*
X131106944Y-43201362D01*
X131064195Y-43219069D01*
X131033967Y-43231590D01*
X130995231Y-43239295D01*
X130956496Y-43247000D01*
X130877504Y-43247000D01*
X130838769Y-43239295D01*
X130800033Y-43231590D01*
X130769805Y-43219069D01*
X130727056Y-43201362D01*
X130661378Y-43157477D01*
X130605522Y-43101621D01*
X130595933Y-43087270D01*
X130580387Y-43068328D01*
X130561445Y-43052783D01*
X130539835Y-43041232D01*
X130516386Y-43034119D01*
X130491999Y-43031717D01*
X130467613Y-43034119D01*
X130444164Y-43041232D01*
X130422554Y-43052783D01*
X130403612Y-43068329D01*
X130388067Y-43087270D01*
X130378478Y-43101621D01*
X130322622Y-43157477D01*
X130256944Y-43201362D01*
X130214195Y-43219069D01*
X130183967Y-43231590D01*
X130145231Y-43239295D01*
X130106496Y-43247000D01*
X130027504Y-43247000D01*
X129988769Y-43239295D01*
X129950033Y-43231590D01*
X129919805Y-43219069D01*
X129877056Y-43201362D01*
X129811378Y-43157477D01*
X129755523Y-43101622D01*
X129711638Y-43035944D01*
X129681410Y-42962966D01*
X129666000Y-42885496D01*
X129666000Y-42806504D01*
X129681410Y-42729034D01*
X129711638Y-42656056D01*
X129755523Y-42590378D01*
X129811378Y-42534523D01*
X129877056Y-42490638D01*
X129927820Y-42469611D01*
X129950033Y-42460410D01*
X129988769Y-42452705D01*
X130027504Y-42445000D01*
X130106496Y-42445000D01*
X130145231Y-42452705D01*
X130145231Y-42452705D01*
G37*
G36*
X144157348Y-41483320D02*
G01*
X144157350Y-41483321D01*
X144157351Y-41483321D01*
X144298574Y-41541817D01*
X144298577Y-41541819D01*
X144425669Y-41626739D01*
X144533761Y-41734831D01*
X144569314Y-41788040D01*
X144618683Y-41861926D01*
X144639517Y-41912225D01*
X144651068Y-41933836D01*
X144666614Y-41952778D01*
X144685556Y-41968323D01*
X144707166Y-41979874D01*
X144730615Y-41986987D01*
X144755001Y-41989389D01*
X144779387Y-41986987D01*
X144802836Y-41979874D01*
X144824447Y-41968323D01*
X144843389Y-41952777D01*
X144858934Y-41933835D01*
X144870485Y-41912225D01*
X144877598Y-41888776D01*
X144880000Y-41864390D01*
X144880000Y-41503500D01*
X147982000Y-41503500D01*
X147982000Y-41864390D01*
X147984402Y-41888776D01*
X147991515Y-41912225D01*
X148003066Y-41933836D01*
X148018611Y-41952778D01*
X148037553Y-41968323D01*
X148059164Y-41979874D01*
X148082613Y-41986987D01*
X148106999Y-41989389D01*
X148131385Y-41986987D01*
X148154834Y-41979874D01*
X148176445Y-41968323D01*
X148195387Y-41952778D01*
X148210932Y-41933836D01*
X148222483Y-41912225D01*
X148243317Y-41861926D01*
X148292686Y-41788040D01*
X148328239Y-41734831D01*
X148436331Y-41626739D01*
X148563423Y-41541819D01*
X148563426Y-41541817D01*
X148704649Y-41483321D01*
X148704650Y-41483321D01*
X148704652Y-41483320D01*
X148854569Y-41453500D01*
X149007431Y-41453500D01*
X149157348Y-41483320D01*
X149157350Y-41483321D01*
X149157351Y-41483321D01*
X149298574Y-41541817D01*
X149298577Y-41541819D01*
X149425669Y-41626739D01*
X149533761Y-41734831D01*
X149569314Y-41788040D01*
X149618683Y-41861926D01*
X149677179Y-42003149D01*
X149677180Y-42003152D01*
X149707000Y-42153069D01*
X149707000Y-42305931D01*
X149679338Y-42445000D01*
X149677179Y-42455851D01*
X149618683Y-42597074D01*
X149618682Y-42597075D01*
X149618681Y-42597077D01*
X149533761Y-42724169D01*
X149425669Y-42832261D01*
X149345997Y-42885496D01*
X149298574Y-42917183D01*
X149157351Y-42975679D01*
X149157350Y-42975679D01*
X149157348Y-42975680D01*
X149007431Y-43005500D01*
X148854569Y-43005500D01*
X148704652Y-42975680D01*
X148704650Y-42975679D01*
X148704649Y-42975679D01*
X148563426Y-42917183D01*
X148516003Y-42885496D01*
X148436331Y-42832261D01*
X148328239Y-42724169D01*
X148243318Y-42597075D01*
X148243317Y-42597074D01*
X148222481Y-42546772D01*
X148210932Y-42525164D01*
X148195386Y-42506222D01*
X148176444Y-42490677D01*
X148154834Y-42479126D01*
X148131385Y-42472013D01*
X148106999Y-42469611D01*
X148082613Y-42472013D01*
X148059164Y-42479126D01*
X148037553Y-42490677D01*
X148018611Y-42506223D01*
X148003066Y-42525165D01*
X147991515Y-42546775D01*
X147984402Y-42570224D01*
X147982000Y-42594610D01*
X147982000Y-42955500D01*
X144880000Y-42955500D01*
X144880000Y-42594610D01*
X144877598Y-42570224D01*
X144870485Y-42546775D01*
X144858934Y-42525164D01*
X144843389Y-42506222D01*
X144824447Y-42490677D01*
X144802836Y-42479126D01*
X144779387Y-42472013D01*
X144755001Y-42469611D01*
X144730615Y-42472013D01*
X144707166Y-42479126D01*
X144685555Y-42490677D01*
X144666613Y-42506222D01*
X144651068Y-42525164D01*
X144639519Y-42546772D01*
X144618683Y-42597074D01*
X144618682Y-42597075D01*
X144533761Y-42724169D01*
X144425669Y-42832261D01*
X144345997Y-42885496D01*
X144298574Y-42917183D01*
X144157351Y-42975679D01*
X144157350Y-42975679D01*
X144157348Y-42975680D01*
X144007431Y-43005500D01*
X143854569Y-43005500D01*
X143704652Y-42975680D01*
X143704650Y-42975679D01*
X143704649Y-42975679D01*
X143563426Y-42917183D01*
X143516003Y-42885496D01*
X143436331Y-42832261D01*
X143328239Y-42724169D01*
X143243319Y-42597077D01*
X143243318Y-42597075D01*
X143243317Y-42597074D01*
X143184821Y-42455851D01*
X143182663Y-42445000D01*
X143155000Y-42305931D01*
X143155000Y-42153069D01*
X143184820Y-42003152D01*
X143184821Y-42003149D01*
X143243317Y-41861926D01*
X143292686Y-41788040D01*
X143328239Y-41734831D01*
X143436331Y-41626739D01*
X143563423Y-41541819D01*
X143563426Y-41541817D01*
X143704649Y-41483321D01*
X143704650Y-41483321D01*
X143704652Y-41483320D01*
X143854569Y-41453500D01*
X144007431Y-41453500D01*
X144157348Y-41483320D01*
X144157348Y-41483320D01*
G37*
G36*
X99538549Y-39765116D02*
G01*
X99649734Y-39787232D01*
X99859203Y-39873997D01*
X100047720Y-39999960D01*
X100208040Y-40160280D01*
X100334003Y-40348797D01*
X100389946Y-40483854D01*
X100420768Y-40558267D01*
X100456803Y-40739424D01*
X100465000Y-40780636D01*
X100465000Y-41007364D01*
X100420768Y-41229734D01*
X100334003Y-41439203D01*
X100208040Y-41627720D01*
X100047720Y-41788040D01*
X99859203Y-41914003D01*
X99649734Y-42000768D01*
X99538549Y-42022884D01*
X99427365Y-42045000D01*
X99200635Y-42045000D01*
X99089451Y-42022884D01*
X98978266Y-42000768D01*
X98768797Y-41914003D01*
X98580280Y-41788040D01*
X98419960Y-41627720D01*
X98293997Y-41439203D01*
X98207232Y-41229734D01*
X98163000Y-41007364D01*
X98163000Y-40780636D01*
X98171198Y-40739424D01*
X98207232Y-40558267D01*
X98238055Y-40483854D01*
X98293997Y-40348797D01*
X98419960Y-40160280D01*
X98580280Y-39999960D01*
X98768797Y-39873997D01*
X98978266Y-39787232D01*
X99089451Y-39765116D01*
X99200635Y-39743000D01*
X99427365Y-39743000D01*
X99538549Y-39765116D01*
X99538549Y-39765116D01*
G37*
G36*
X170150549Y-39765116D02*
G01*
X170261734Y-39787232D01*
X170471203Y-39873997D01*
X170659720Y-39999960D01*
X170820040Y-40160280D01*
X170946003Y-40348797D01*
X171001946Y-40483854D01*
X171032768Y-40558267D01*
X171068803Y-40739424D01*
X171077000Y-40780636D01*
X171077000Y-41007364D01*
X171032768Y-41229734D01*
X170946003Y-41439203D01*
X170820040Y-41627720D01*
X170659720Y-41788040D01*
X170471203Y-41914003D01*
X170261734Y-42000768D01*
X170150549Y-42022884D01*
X170039365Y-42045000D01*
X169812635Y-42045000D01*
X169701451Y-42022884D01*
X169590266Y-42000768D01*
X169380797Y-41914003D01*
X169192280Y-41788040D01*
X169031960Y-41627720D01*
X168905997Y-41439203D01*
X168819232Y-41229734D01*
X168775000Y-41007364D01*
X168775000Y-40780636D01*
X168783198Y-40739424D01*
X168819232Y-40558267D01*
X168850055Y-40483854D01*
X168905997Y-40348797D01*
X169031960Y-40160280D01*
X169192280Y-39999960D01*
X169380797Y-39873997D01*
X169590266Y-39787232D01*
X169701451Y-39765116D01*
X169812635Y-39743000D01*
X170039365Y-39743000D01*
X170150549Y-39765116D01*
X170150549Y-39765116D01*
G37*
G36*
X137465213Y-38942249D02*
G01*
X137559652Y-38970897D01*
X137646687Y-39017418D01*
X137722975Y-39080025D01*
X137785582Y-39156313D01*
X137832103Y-39243348D01*
X137860751Y-39337787D01*
X137868000Y-39411388D01*
X137868000Y-40260612D01*
X137860751Y-40334213D01*
X137832103Y-40428652D01*
X137785582Y-40515687D01*
X137722975Y-40591975D01*
X137646687Y-40654582D01*
X137559651Y-40701103D01*
X137465212Y-40729751D01*
X137367000Y-40739424D01*
X137268787Y-40729751D01*
X137174348Y-40701103D01*
X137087313Y-40654582D01*
X137011025Y-40591975D01*
X136948418Y-40515687D01*
X136901897Y-40428651D01*
X136873249Y-40334212D01*
X136866000Y-40260611D01*
X136866000Y-39411398D01*
X136873250Y-39337786D01*
X136883846Y-39302856D01*
X136901898Y-39243348D01*
X136948419Y-39156313D01*
X137011026Y-39080025D01*
X137087314Y-39017418D01*
X137174349Y-38970897D01*
X137268788Y-38942249D01*
X137367000Y-38932576D01*
X137465213Y-38942249D01*
X137465213Y-38942249D01*
G37*
G36*
X128815213Y-38942249D02*
G01*
X128909652Y-38970897D01*
X128996687Y-39017418D01*
X129072975Y-39080025D01*
X129135582Y-39156313D01*
X129182103Y-39243348D01*
X129210751Y-39337787D01*
X129218000Y-39411388D01*
X129218000Y-40260612D01*
X129210751Y-40334213D01*
X129182103Y-40428652D01*
X129135582Y-40515687D01*
X129072975Y-40591975D01*
X128996687Y-40654582D01*
X128909651Y-40701103D01*
X128815212Y-40729751D01*
X128717000Y-40739424D01*
X128618787Y-40729751D01*
X128524348Y-40701103D01*
X128437313Y-40654582D01*
X128361025Y-40591975D01*
X128298418Y-40515687D01*
X128251897Y-40428651D01*
X128223249Y-40334212D01*
X128216000Y-40260611D01*
X128216000Y-39411398D01*
X128223250Y-39337786D01*
X128233846Y-39302856D01*
X128251898Y-39243348D01*
X128298419Y-39156313D01*
X128361026Y-39080025D01*
X128437314Y-39017418D01*
X128524349Y-38970897D01*
X128618788Y-38942249D01*
X128717000Y-38932576D01*
X128815213Y-38942249D01*
X128815213Y-38942249D01*
G37*
G36*
X149956862Y-38527898D02*
G01*
X149969114Y-38528500D01*
X150042406Y-38528500D01*
X150059164Y-38537457D01*
X150070707Y-38541587D01*
X150181331Y-38575145D01*
X150181334Y-38575146D01*
X150294424Y-38635594D01*
X150393554Y-38716947D01*
X150474906Y-38816075D01*
X150535354Y-38929164D01*
X150545040Y-38961096D01*
X150572580Y-39051882D01*
X150582000Y-39147527D01*
X150582000Y-39911473D01*
X150572580Y-40007118D01*
X150545040Y-40097904D01*
X150535354Y-40129836D01*
X150474906Y-40242925D01*
X150393554Y-40342054D01*
X150294425Y-40423406D01*
X150181336Y-40483854D01*
X150155693Y-40491632D01*
X150070708Y-40517413D01*
X150048075Y-40526787D01*
X150042518Y-40530500D01*
X149969114Y-40530500D01*
X149956862Y-40531102D01*
X149931000Y-40533649D01*
X149905138Y-40531102D01*
X149892886Y-40530500D01*
X148680000Y-40530500D01*
X148680000Y-38528500D01*
X149892886Y-38528500D01*
X149905138Y-38527898D01*
X149931000Y-38525351D01*
X149956862Y-38527898D01*
X149956862Y-38527898D01*
G37*
G36*
X142956862Y-38527898D02*
G01*
X142969114Y-38528500D01*
X144182000Y-38528500D01*
X144182000Y-40530500D01*
X142969114Y-40530500D01*
X142956862Y-40531102D01*
X142931000Y-40533649D01*
X142905138Y-40531102D01*
X142892886Y-40530500D01*
X142819594Y-40530500D01*
X142802836Y-40521543D01*
X142791299Y-40517415D01*
X142706307Y-40491632D01*
X142680664Y-40483854D01*
X142567575Y-40423406D01*
X142468447Y-40342054D01*
X142387094Y-40242924D01*
X142326646Y-40129835D01*
X142316960Y-40097903D01*
X142289420Y-40007117D01*
X142280000Y-39911472D01*
X142280000Y-39147527D01*
X142289420Y-39051882D01*
X142326645Y-38929168D01*
X142387096Y-38816074D01*
X142468447Y-38716946D01*
X142567576Y-38635594D01*
X142680666Y-38575146D01*
X142680669Y-38575145D01*
X142791290Y-38541588D01*
X142813925Y-38532212D01*
X142819481Y-38528500D01*
X142892886Y-38528500D01*
X142905138Y-38527898D01*
X142931000Y-38525351D01*
X142956862Y-38527898D01*
X142956862Y-38527898D01*
G37*
G36*
X148232000Y-40530500D02*
G01*
X146630000Y-40530500D01*
X146630000Y-38528500D01*
X148232000Y-38528500D01*
X148232000Y-40530500D01*
X148232000Y-40530500D01*
G37*
G36*
X146232000Y-40530500D02*
G01*
X144630000Y-40530500D01*
X144630000Y-38528500D01*
X146232000Y-38528500D01*
X146232000Y-40530500D01*
X146232000Y-40530500D01*
G37*
M02*
