G04 #@! TF.GenerationSoftware,KiCad,Pcbnew,(5.1.2)-2*
G04 #@! TF.CreationDate,2019-06-20T10:34:22-04:00*
G04 #@! TF.ProjectId,macropad,6d616372-6f70-4616-942e-6b696361645f,rev?*
G04 #@! TF.SameCoordinates,Original*
G04 #@! TF.FileFunction,Paste,Top*
G04 #@! TF.FilePolarity,Positive*
%FSLAX46Y46*%
G04 Gerber Fmt 4.6, Leading zero omitted, Abs format (unit mm)*
G04 Created by KiCad (PCBNEW (5.1.2)-2) date 2019-06-20 10:34:22*
%MOMM*%
%LPD*%
G04 APERTURE LIST*
%ADD10C,0.100000*%
%ADD11C,0.950000*%
%ADD12R,1.500000X1.900000*%
%ADD13R,0.400000X1.350000*%
%ADD14C,1.300000*%
G04 APERTURE END LIST*
D10*
X172720000Y-38100000D02*
X121539000Y-38100000D01*
X172720000Y-143510000D02*
X172720000Y-38100000D01*
X96520000Y-143510000D02*
X172720000Y-143510000D01*
X96520000Y-38100000D02*
X96520000Y-143510000D01*
X121539000Y-38100000D02*
X96520000Y-38100000D01*
G36*
X165487779Y-46226144D02*
G01*
X165510834Y-46229563D01*
X165533443Y-46235227D01*
X165555387Y-46243079D01*
X165576457Y-46253044D01*
X165596448Y-46265026D01*
X165615168Y-46278910D01*
X165632438Y-46294562D01*
X165648090Y-46311832D01*
X165661974Y-46330552D01*
X165673956Y-46350543D01*
X165683921Y-46371613D01*
X165691773Y-46393557D01*
X165697437Y-46416166D01*
X165700856Y-46439221D01*
X165702000Y-46462500D01*
X165702000Y-47037500D01*
X165700856Y-47060779D01*
X165697437Y-47083834D01*
X165691773Y-47106443D01*
X165683921Y-47128387D01*
X165673956Y-47149457D01*
X165661974Y-47169448D01*
X165648090Y-47188168D01*
X165632438Y-47205438D01*
X165615168Y-47221090D01*
X165596448Y-47234974D01*
X165576457Y-47246956D01*
X165555387Y-47256921D01*
X165533443Y-47264773D01*
X165510834Y-47270437D01*
X165487779Y-47273856D01*
X165464500Y-47275000D01*
X164989500Y-47275000D01*
X164966221Y-47273856D01*
X164943166Y-47270437D01*
X164920557Y-47264773D01*
X164898613Y-47256921D01*
X164877543Y-47246956D01*
X164857552Y-47234974D01*
X164838832Y-47221090D01*
X164821562Y-47205438D01*
X164805910Y-47188168D01*
X164792026Y-47169448D01*
X164780044Y-47149457D01*
X164770079Y-47128387D01*
X164762227Y-47106443D01*
X164756563Y-47083834D01*
X164753144Y-47060779D01*
X164752000Y-47037500D01*
X164752000Y-46462500D01*
X164753144Y-46439221D01*
X164756563Y-46416166D01*
X164762227Y-46393557D01*
X164770079Y-46371613D01*
X164780044Y-46350543D01*
X164792026Y-46330552D01*
X164805910Y-46311832D01*
X164821562Y-46294562D01*
X164838832Y-46278910D01*
X164857552Y-46265026D01*
X164877543Y-46253044D01*
X164898613Y-46243079D01*
X164920557Y-46235227D01*
X164943166Y-46229563D01*
X164966221Y-46226144D01*
X164989500Y-46225000D01*
X165464500Y-46225000D01*
X165487779Y-46226144D01*
X165487779Y-46226144D01*
G37*
D11*
X165227000Y-46750000D03*
D10*
G36*
X165487779Y-47976144D02*
G01*
X165510834Y-47979563D01*
X165533443Y-47985227D01*
X165555387Y-47993079D01*
X165576457Y-48003044D01*
X165596448Y-48015026D01*
X165615168Y-48028910D01*
X165632438Y-48044562D01*
X165648090Y-48061832D01*
X165661974Y-48080552D01*
X165673956Y-48100543D01*
X165683921Y-48121613D01*
X165691773Y-48143557D01*
X165697437Y-48166166D01*
X165700856Y-48189221D01*
X165702000Y-48212500D01*
X165702000Y-48787500D01*
X165700856Y-48810779D01*
X165697437Y-48833834D01*
X165691773Y-48856443D01*
X165683921Y-48878387D01*
X165673956Y-48899457D01*
X165661974Y-48919448D01*
X165648090Y-48938168D01*
X165632438Y-48955438D01*
X165615168Y-48971090D01*
X165596448Y-48984974D01*
X165576457Y-48996956D01*
X165555387Y-49006921D01*
X165533443Y-49014773D01*
X165510834Y-49020437D01*
X165487779Y-49023856D01*
X165464500Y-49025000D01*
X164989500Y-49025000D01*
X164966221Y-49023856D01*
X164943166Y-49020437D01*
X164920557Y-49014773D01*
X164898613Y-49006921D01*
X164877543Y-48996956D01*
X164857552Y-48984974D01*
X164838832Y-48971090D01*
X164821562Y-48955438D01*
X164805910Y-48938168D01*
X164792026Y-48919448D01*
X164780044Y-48899457D01*
X164770079Y-48878387D01*
X164762227Y-48856443D01*
X164756563Y-48833834D01*
X164753144Y-48810779D01*
X164752000Y-48787500D01*
X164752000Y-48212500D01*
X164753144Y-48189221D01*
X164756563Y-48166166D01*
X164762227Y-48143557D01*
X164770079Y-48121613D01*
X164780044Y-48100543D01*
X164792026Y-48080552D01*
X164805910Y-48061832D01*
X164821562Y-48044562D01*
X164838832Y-48028910D01*
X164857552Y-48015026D01*
X164877543Y-48003044D01*
X164898613Y-47993079D01*
X164920557Y-47985227D01*
X164943166Y-47979563D01*
X164966221Y-47976144D01*
X164989500Y-47975000D01*
X165464500Y-47975000D01*
X165487779Y-47976144D01*
X165487779Y-47976144D01*
G37*
D11*
X165227000Y-48500000D03*
D10*
G36*
X168662779Y-47976144D02*
G01*
X168685834Y-47979563D01*
X168708443Y-47985227D01*
X168730387Y-47993079D01*
X168751457Y-48003044D01*
X168771448Y-48015026D01*
X168790168Y-48028910D01*
X168807438Y-48044562D01*
X168823090Y-48061832D01*
X168836974Y-48080552D01*
X168848956Y-48100543D01*
X168858921Y-48121613D01*
X168866773Y-48143557D01*
X168872437Y-48166166D01*
X168875856Y-48189221D01*
X168877000Y-48212500D01*
X168877000Y-48787500D01*
X168875856Y-48810779D01*
X168872437Y-48833834D01*
X168866773Y-48856443D01*
X168858921Y-48878387D01*
X168848956Y-48899457D01*
X168836974Y-48919448D01*
X168823090Y-48938168D01*
X168807438Y-48955438D01*
X168790168Y-48971090D01*
X168771448Y-48984974D01*
X168751457Y-48996956D01*
X168730387Y-49006921D01*
X168708443Y-49014773D01*
X168685834Y-49020437D01*
X168662779Y-49023856D01*
X168639500Y-49025000D01*
X168164500Y-49025000D01*
X168141221Y-49023856D01*
X168118166Y-49020437D01*
X168095557Y-49014773D01*
X168073613Y-49006921D01*
X168052543Y-48996956D01*
X168032552Y-48984974D01*
X168013832Y-48971090D01*
X167996562Y-48955438D01*
X167980910Y-48938168D01*
X167967026Y-48919448D01*
X167955044Y-48899457D01*
X167945079Y-48878387D01*
X167937227Y-48856443D01*
X167931563Y-48833834D01*
X167928144Y-48810779D01*
X167927000Y-48787500D01*
X167927000Y-48212500D01*
X167928144Y-48189221D01*
X167931563Y-48166166D01*
X167937227Y-48143557D01*
X167945079Y-48121613D01*
X167955044Y-48100543D01*
X167967026Y-48080552D01*
X167980910Y-48061832D01*
X167996562Y-48044562D01*
X168013832Y-48028910D01*
X168032552Y-48015026D01*
X168052543Y-48003044D01*
X168073613Y-47993079D01*
X168095557Y-47985227D01*
X168118166Y-47979563D01*
X168141221Y-47976144D01*
X168164500Y-47975000D01*
X168639500Y-47975000D01*
X168662779Y-47976144D01*
X168662779Y-47976144D01*
G37*
D11*
X168402000Y-48500000D03*
D10*
G36*
X168662779Y-46226144D02*
G01*
X168685834Y-46229563D01*
X168708443Y-46235227D01*
X168730387Y-46243079D01*
X168751457Y-46253044D01*
X168771448Y-46265026D01*
X168790168Y-46278910D01*
X168807438Y-46294562D01*
X168823090Y-46311832D01*
X168836974Y-46330552D01*
X168848956Y-46350543D01*
X168858921Y-46371613D01*
X168866773Y-46393557D01*
X168872437Y-46416166D01*
X168875856Y-46439221D01*
X168877000Y-46462500D01*
X168877000Y-47037500D01*
X168875856Y-47060779D01*
X168872437Y-47083834D01*
X168866773Y-47106443D01*
X168858921Y-47128387D01*
X168848956Y-47149457D01*
X168836974Y-47169448D01*
X168823090Y-47188168D01*
X168807438Y-47205438D01*
X168790168Y-47221090D01*
X168771448Y-47234974D01*
X168751457Y-47246956D01*
X168730387Y-47256921D01*
X168708443Y-47264773D01*
X168685834Y-47270437D01*
X168662779Y-47273856D01*
X168639500Y-47275000D01*
X168164500Y-47275000D01*
X168141221Y-47273856D01*
X168118166Y-47270437D01*
X168095557Y-47264773D01*
X168073613Y-47256921D01*
X168052543Y-47246956D01*
X168032552Y-47234974D01*
X168013832Y-47221090D01*
X167996562Y-47205438D01*
X167980910Y-47188168D01*
X167967026Y-47169448D01*
X167955044Y-47149457D01*
X167945079Y-47128387D01*
X167937227Y-47106443D01*
X167931563Y-47083834D01*
X167928144Y-47060779D01*
X167927000Y-47037500D01*
X167927000Y-46462500D01*
X167928144Y-46439221D01*
X167931563Y-46416166D01*
X167937227Y-46393557D01*
X167945079Y-46371613D01*
X167955044Y-46350543D01*
X167967026Y-46330552D01*
X167980910Y-46311832D01*
X167996562Y-46294562D01*
X168013832Y-46278910D01*
X168032552Y-46265026D01*
X168052543Y-46253044D01*
X168073613Y-46243079D01*
X168095557Y-46235227D01*
X168118166Y-46229563D01*
X168141221Y-46226144D01*
X168164500Y-46225000D01*
X168639500Y-46225000D01*
X168662779Y-46226144D01*
X168662779Y-46226144D01*
G37*
D11*
X168402000Y-46750000D03*
D10*
G36*
X144532779Y-46692144D02*
G01*
X144555834Y-46695563D01*
X144578443Y-46701227D01*
X144600387Y-46709079D01*
X144621457Y-46719044D01*
X144641448Y-46731026D01*
X144660168Y-46744910D01*
X144677438Y-46760562D01*
X144693090Y-46777832D01*
X144706974Y-46796552D01*
X144718956Y-46816543D01*
X144728921Y-46837613D01*
X144736773Y-46859557D01*
X144742437Y-46882166D01*
X144745856Y-46905221D01*
X144747000Y-46928500D01*
X144747000Y-47503500D01*
X144745856Y-47526779D01*
X144742437Y-47549834D01*
X144736773Y-47572443D01*
X144728921Y-47594387D01*
X144718956Y-47615457D01*
X144706974Y-47635448D01*
X144693090Y-47654168D01*
X144677438Y-47671438D01*
X144660168Y-47687090D01*
X144641448Y-47700974D01*
X144621457Y-47712956D01*
X144600387Y-47722921D01*
X144578443Y-47730773D01*
X144555834Y-47736437D01*
X144532779Y-47739856D01*
X144509500Y-47741000D01*
X144034500Y-47741000D01*
X144011221Y-47739856D01*
X143988166Y-47736437D01*
X143965557Y-47730773D01*
X143943613Y-47722921D01*
X143922543Y-47712956D01*
X143902552Y-47700974D01*
X143883832Y-47687090D01*
X143866562Y-47671438D01*
X143850910Y-47654168D01*
X143837026Y-47635448D01*
X143825044Y-47615457D01*
X143815079Y-47594387D01*
X143807227Y-47572443D01*
X143801563Y-47549834D01*
X143798144Y-47526779D01*
X143797000Y-47503500D01*
X143797000Y-46928500D01*
X143798144Y-46905221D01*
X143801563Y-46882166D01*
X143807227Y-46859557D01*
X143815079Y-46837613D01*
X143825044Y-46816543D01*
X143837026Y-46796552D01*
X143850910Y-46777832D01*
X143866562Y-46760562D01*
X143883832Y-46744910D01*
X143902552Y-46731026D01*
X143922543Y-46719044D01*
X143943613Y-46709079D01*
X143965557Y-46701227D01*
X143988166Y-46695563D01*
X144011221Y-46692144D01*
X144034500Y-46691000D01*
X144509500Y-46691000D01*
X144532779Y-46692144D01*
X144532779Y-46692144D01*
G37*
D11*
X144272000Y-47216000D03*
D10*
G36*
X144532779Y-44942144D02*
G01*
X144555834Y-44945563D01*
X144578443Y-44951227D01*
X144600387Y-44959079D01*
X144621457Y-44969044D01*
X144641448Y-44981026D01*
X144660168Y-44994910D01*
X144677438Y-45010562D01*
X144693090Y-45027832D01*
X144706974Y-45046552D01*
X144718956Y-45066543D01*
X144728921Y-45087613D01*
X144736773Y-45109557D01*
X144742437Y-45132166D01*
X144745856Y-45155221D01*
X144747000Y-45178500D01*
X144747000Y-45753500D01*
X144745856Y-45776779D01*
X144742437Y-45799834D01*
X144736773Y-45822443D01*
X144728921Y-45844387D01*
X144718956Y-45865457D01*
X144706974Y-45885448D01*
X144693090Y-45904168D01*
X144677438Y-45921438D01*
X144660168Y-45937090D01*
X144641448Y-45950974D01*
X144621457Y-45962956D01*
X144600387Y-45972921D01*
X144578443Y-45980773D01*
X144555834Y-45986437D01*
X144532779Y-45989856D01*
X144509500Y-45991000D01*
X144034500Y-45991000D01*
X144011221Y-45989856D01*
X143988166Y-45986437D01*
X143965557Y-45980773D01*
X143943613Y-45972921D01*
X143922543Y-45962956D01*
X143902552Y-45950974D01*
X143883832Y-45937090D01*
X143866562Y-45921438D01*
X143850910Y-45904168D01*
X143837026Y-45885448D01*
X143825044Y-45865457D01*
X143815079Y-45844387D01*
X143807227Y-45822443D01*
X143801563Y-45799834D01*
X143798144Y-45776779D01*
X143797000Y-45753500D01*
X143797000Y-45178500D01*
X143798144Y-45155221D01*
X143801563Y-45132166D01*
X143807227Y-45109557D01*
X143815079Y-45087613D01*
X143825044Y-45066543D01*
X143837026Y-45046552D01*
X143850910Y-45027832D01*
X143866562Y-45010562D01*
X143883832Y-44994910D01*
X143902552Y-44981026D01*
X143922543Y-44969044D01*
X143943613Y-44959079D01*
X143965557Y-44951227D01*
X143988166Y-44945563D01*
X144011221Y-44942144D01*
X144034500Y-44941000D01*
X144509500Y-44941000D01*
X144532779Y-44942144D01*
X144532779Y-44942144D01*
G37*
D11*
X144272000Y-45466000D03*
D10*
G36*
X141992779Y-46692144D02*
G01*
X142015834Y-46695563D01*
X142038443Y-46701227D01*
X142060387Y-46709079D01*
X142081457Y-46719044D01*
X142101448Y-46731026D01*
X142120168Y-46744910D01*
X142137438Y-46760562D01*
X142153090Y-46777832D01*
X142166974Y-46796552D01*
X142178956Y-46816543D01*
X142188921Y-46837613D01*
X142196773Y-46859557D01*
X142202437Y-46882166D01*
X142205856Y-46905221D01*
X142207000Y-46928500D01*
X142207000Y-47503500D01*
X142205856Y-47526779D01*
X142202437Y-47549834D01*
X142196773Y-47572443D01*
X142188921Y-47594387D01*
X142178956Y-47615457D01*
X142166974Y-47635448D01*
X142153090Y-47654168D01*
X142137438Y-47671438D01*
X142120168Y-47687090D01*
X142101448Y-47700974D01*
X142081457Y-47712956D01*
X142060387Y-47722921D01*
X142038443Y-47730773D01*
X142015834Y-47736437D01*
X141992779Y-47739856D01*
X141969500Y-47741000D01*
X141494500Y-47741000D01*
X141471221Y-47739856D01*
X141448166Y-47736437D01*
X141425557Y-47730773D01*
X141403613Y-47722921D01*
X141382543Y-47712956D01*
X141362552Y-47700974D01*
X141343832Y-47687090D01*
X141326562Y-47671438D01*
X141310910Y-47654168D01*
X141297026Y-47635448D01*
X141285044Y-47615457D01*
X141275079Y-47594387D01*
X141267227Y-47572443D01*
X141261563Y-47549834D01*
X141258144Y-47526779D01*
X141257000Y-47503500D01*
X141257000Y-46928500D01*
X141258144Y-46905221D01*
X141261563Y-46882166D01*
X141267227Y-46859557D01*
X141275079Y-46837613D01*
X141285044Y-46816543D01*
X141297026Y-46796552D01*
X141310910Y-46777832D01*
X141326562Y-46760562D01*
X141343832Y-46744910D01*
X141362552Y-46731026D01*
X141382543Y-46719044D01*
X141403613Y-46709079D01*
X141425557Y-46701227D01*
X141448166Y-46695563D01*
X141471221Y-46692144D01*
X141494500Y-46691000D01*
X141969500Y-46691000D01*
X141992779Y-46692144D01*
X141992779Y-46692144D01*
G37*
D11*
X141732000Y-47216000D03*
D10*
G36*
X141992779Y-44942144D02*
G01*
X142015834Y-44945563D01*
X142038443Y-44951227D01*
X142060387Y-44959079D01*
X142081457Y-44969044D01*
X142101448Y-44981026D01*
X142120168Y-44994910D01*
X142137438Y-45010562D01*
X142153090Y-45027832D01*
X142166974Y-45046552D01*
X142178956Y-45066543D01*
X142188921Y-45087613D01*
X142196773Y-45109557D01*
X142202437Y-45132166D01*
X142205856Y-45155221D01*
X142207000Y-45178500D01*
X142207000Y-45753500D01*
X142205856Y-45776779D01*
X142202437Y-45799834D01*
X142196773Y-45822443D01*
X142188921Y-45844387D01*
X142178956Y-45865457D01*
X142166974Y-45885448D01*
X142153090Y-45904168D01*
X142137438Y-45921438D01*
X142120168Y-45937090D01*
X142101448Y-45950974D01*
X142081457Y-45962956D01*
X142060387Y-45972921D01*
X142038443Y-45980773D01*
X142015834Y-45986437D01*
X141992779Y-45989856D01*
X141969500Y-45991000D01*
X141494500Y-45991000D01*
X141471221Y-45989856D01*
X141448166Y-45986437D01*
X141425557Y-45980773D01*
X141403613Y-45972921D01*
X141382543Y-45962956D01*
X141362552Y-45950974D01*
X141343832Y-45937090D01*
X141326562Y-45921438D01*
X141310910Y-45904168D01*
X141297026Y-45885448D01*
X141285044Y-45865457D01*
X141275079Y-45844387D01*
X141267227Y-45822443D01*
X141261563Y-45799834D01*
X141258144Y-45776779D01*
X141257000Y-45753500D01*
X141257000Y-45178500D01*
X141258144Y-45155221D01*
X141261563Y-45132166D01*
X141267227Y-45109557D01*
X141275079Y-45087613D01*
X141285044Y-45066543D01*
X141297026Y-45046552D01*
X141310910Y-45027832D01*
X141326562Y-45010562D01*
X141343832Y-44994910D01*
X141362552Y-44981026D01*
X141382543Y-44969044D01*
X141403613Y-44959079D01*
X141425557Y-44951227D01*
X141448166Y-44945563D01*
X141471221Y-44942144D01*
X141494500Y-44941000D01*
X141969500Y-44941000D01*
X141992779Y-44942144D01*
X141992779Y-44942144D01*
G37*
D11*
X141732000Y-45466000D03*
D12*
X147431000Y-39529500D03*
D13*
X146431000Y-42229500D03*
X145781000Y-42229500D03*
X145131000Y-42229500D03*
X147731000Y-42229500D03*
X147081000Y-42229500D03*
D12*
X145431000Y-39529500D03*
D10*
G36*
X152885504Y-44529204D02*
G01*
X152909773Y-44532804D01*
X152933571Y-44538765D01*
X152956671Y-44547030D01*
X152978849Y-44557520D01*
X152999893Y-44570133D01*
X153019598Y-44584747D01*
X153037777Y-44601223D01*
X153054253Y-44619402D01*
X153068867Y-44639107D01*
X153081480Y-44660151D01*
X153091970Y-44682329D01*
X153100235Y-44705429D01*
X153106196Y-44729227D01*
X153109796Y-44753496D01*
X153111000Y-44778000D01*
X153111000Y-47678000D01*
X153109796Y-47702504D01*
X153106196Y-47726773D01*
X153100235Y-47750571D01*
X153091970Y-47773671D01*
X153081480Y-47795849D01*
X153068867Y-47816893D01*
X153054253Y-47836598D01*
X153037777Y-47854777D01*
X153019598Y-47871253D01*
X152999893Y-47885867D01*
X152978849Y-47898480D01*
X152956671Y-47908970D01*
X152933571Y-47917235D01*
X152909773Y-47923196D01*
X152885504Y-47926796D01*
X152861000Y-47928000D01*
X152061000Y-47928000D01*
X152036496Y-47926796D01*
X152012227Y-47923196D01*
X151988429Y-47917235D01*
X151965329Y-47908970D01*
X151943151Y-47898480D01*
X151922107Y-47885867D01*
X151902402Y-47871253D01*
X151884223Y-47854777D01*
X151867747Y-47836598D01*
X151853133Y-47816893D01*
X151840520Y-47795849D01*
X151830030Y-47773671D01*
X151821765Y-47750571D01*
X151815804Y-47726773D01*
X151812204Y-47702504D01*
X151811000Y-47678000D01*
X151811000Y-44778000D01*
X151812204Y-44753496D01*
X151815804Y-44729227D01*
X151821765Y-44705429D01*
X151830030Y-44682329D01*
X151840520Y-44660151D01*
X151853133Y-44639107D01*
X151867747Y-44619402D01*
X151884223Y-44601223D01*
X151902402Y-44584747D01*
X151922107Y-44570133D01*
X151943151Y-44557520D01*
X151965329Y-44547030D01*
X151988429Y-44538765D01*
X152012227Y-44532804D01*
X152036496Y-44529204D01*
X152061000Y-44528000D01*
X152861000Y-44528000D01*
X152885504Y-44529204D01*
X152885504Y-44529204D01*
G37*
D14*
X152461000Y-46228000D03*
D10*
G36*
X157335504Y-44529204D02*
G01*
X157359773Y-44532804D01*
X157383571Y-44538765D01*
X157406671Y-44547030D01*
X157428849Y-44557520D01*
X157449893Y-44570133D01*
X157469598Y-44584747D01*
X157487777Y-44601223D01*
X157504253Y-44619402D01*
X157518867Y-44639107D01*
X157531480Y-44660151D01*
X157541970Y-44682329D01*
X157550235Y-44705429D01*
X157556196Y-44729227D01*
X157559796Y-44753496D01*
X157561000Y-44778000D01*
X157561000Y-47678000D01*
X157559796Y-47702504D01*
X157556196Y-47726773D01*
X157550235Y-47750571D01*
X157541970Y-47773671D01*
X157531480Y-47795849D01*
X157518867Y-47816893D01*
X157504253Y-47836598D01*
X157487777Y-47854777D01*
X157469598Y-47871253D01*
X157449893Y-47885867D01*
X157428849Y-47898480D01*
X157406671Y-47908970D01*
X157383571Y-47917235D01*
X157359773Y-47923196D01*
X157335504Y-47926796D01*
X157311000Y-47928000D01*
X156511000Y-47928000D01*
X156486496Y-47926796D01*
X156462227Y-47923196D01*
X156438429Y-47917235D01*
X156415329Y-47908970D01*
X156393151Y-47898480D01*
X156372107Y-47885867D01*
X156352402Y-47871253D01*
X156334223Y-47854777D01*
X156317747Y-47836598D01*
X156303133Y-47816893D01*
X156290520Y-47795849D01*
X156280030Y-47773671D01*
X156271765Y-47750571D01*
X156265804Y-47726773D01*
X156262204Y-47702504D01*
X156261000Y-47678000D01*
X156261000Y-44778000D01*
X156262204Y-44753496D01*
X156265804Y-44729227D01*
X156271765Y-44705429D01*
X156280030Y-44682329D01*
X156290520Y-44660151D01*
X156303133Y-44639107D01*
X156317747Y-44619402D01*
X156334223Y-44601223D01*
X156352402Y-44584747D01*
X156372107Y-44570133D01*
X156393151Y-44557520D01*
X156415329Y-44547030D01*
X156438429Y-44538765D01*
X156462227Y-44532804D01*
X156486496Y-44529204D01*
X156511000Y-44528000D01*
X157311000Y-44528000D01*
X157335504Y-44529204D01*
X157335504Y-44529204D01*
G37*
D14*
X156911000Y-46228000D03*
M02*
