M48
; DRILL file {KiCad (5.1.2)-2} date 6/20/2019 10:35:26 AM
; FORMAT={-:-/ absolute / inch / decimal}
; #@! TF.CreationDate,2019-06-20T10:35:26-04:00
; #@! TF.GenerationSoftware,Kicad,Pcbnew,(5.1.2)-2
; #@! TF.FileFunction,NonPlated,1,2,NPTH
FMAT,2
INCH
T1C0.0689
T2C0.0866
T3C0.1570
%
G90
G05
T1
X4.735Y-3.795
X5.135Y-3.795
X3.985Y-4.545
X4.385Y-4.545
X6.235Y-2.295
X6.635Y-2.295
X5.485Y-5.295
X5.885Y-5.295
X5.485Y-3.045
X5.885Y-3.045
X6.235Y-4.545
X6.635Y-4.545
X4.735Y-2.295
X5.135Y-2.295
X6.235Y-3.795
X6.635Y-3.795
X4.735Y-3.045
X5.135Y-3.045
X4.735Y-5.295
X5.135Y-5.295
X6.235Y-3.045
X6.635Y-3.045
X3.985Y-5.295
X4.385Y-5.295
X3.985Y-2.295
X4.385Y-2.295
X5.485Y-4.545
X5.885Y-4.545
X5.485Y-3.795
X5.885Y-3.795
X5.485Y-2.295
X5.885Y-2.295
X3.985Y-3.045
X4.385Y-3.045
X3.985Y-3.795
X4.385Y-3.795
X4.735Y-4.545
X5.135Y-4.545
X6.235Y-5.295
X6.635Y-5.295
T2
X6.69Y-5.54
X3.905Y-5.545
X5.31Y-3.655
X6.69Y-1.61
X3.91Y-1.61
T3
X4.935Y-3.795
X4.185Y-4.545
X6.435Y-2.295
X5.685Y-5.295
X5.685Y-3.045
X6.435Y-4.545
X4.935Y-2.295
X6.435Y-3.795
X4.935Y-3.045
X4.935Y-5.295
X6.435Y-3.045
X4.185Y-5.295
X4.185Y-2.295
X5.685Y-4.545
X5.685Y-3.795
X5.685Y-2.295
X4.185Y-3.045
X4.185Y-3.795
X4.935Y-4.545
X6.435Y-5.295
T0
M30
